<?xml version="1.0" standalone="no"?>
<!DOCTYPE svg PUBLIC "-//W3C//DTD SVG 1.1//EN" "http://www.w3.org/Graphics/SVG/1.1/DTD/svg11.dtd" >
<svg>
<metadata>
Created by FontForge 20090914 at Thu Feb 23 21:29:22 2017
 By www-data
Copyright (c) 2009-2011 by Accademia di Belle Arti di Urbino and students of MA course of Visual design. Some rights reserved.
</metadata>
<defs>
<font id="TitilliumWeb-SemiBold" horiz-adv-x="560" >
  <font-face 
    font-family="Titillium Web"
    font-weight="600"
    font-stretch="normal"
    units-per-em="1000"
    panose-1="0 0 7 0 0 0 0 0 0 0"
    ascent="800"
    descent="-200"
    x-height="500"
    cap-height="685"
    bbox="-224 -300 1062 1101"
    underline-thickness="30"
    underline-position="-80"
    unicode-range="U+0020-U+F6C3"
  />
<missing-glyph horiz-adv-x="235" 
 />
    <glyph glyph-name=".notdef" horiz-adv-x="235" 
 />
    <glyph glyph-name="space" unicode=" " horiz-adv-x="220" 
 />
    <glyph glyph-name="exclam" unicode="!" horiz-adv-x="266" 
d="M74 0v140h117v-140h-117zM85 241l-10 444h116l-10 -444h-96z" />
    <glyph glyph-name="quotedbl" unicode="&#x22;" horiz-adv-x="395" 
d="M329 453h-95l-4 232h105zM160 453h-96l-4 232h106z" />
    <glyph glyph-name="numbersign" unicode="#" 
d="M540 160h-102v-160h-95v160h-126v-160h-95v160h-102v91h102v152h-102v91h102v169h95v-169h126v169h95v-169h102v-91h-102v-152h102v-91zM343 251v152h-126v-152h126z" />
    <glyph glyph-name="dollar" unicode="$" 
d="M503 196c0 -69.333 -19.834 -121.17 -59.501 -155.503s-93.5 -51.5 -161.5 -51.5h-8l-14 -116c-42.667 2 -64 4.33301 -64 7l14 113c-42.667 4 -84 10 -124 18l-20 4l11 86c52.667 -7.33301 101 -12.333 145 -15l27 207c-69.333 18.667 -118.333 41.667 -147 69
s-43 70.333 -43 129s19.5 103.334 58.5 134.001s92.833 46 161.5 46h18l17 134h64l-18 -139l128 -18l-9 -86c-47.333 5.33301 -90.666 9.33301 -129.999 12l-25 -193c67.333 -19.333 114 -41.666 140 -66.999s39 -64.666 39 -117.999zM165.999 490.996
c0 -24.667 6.83203 -43.333 20.499 -56s38.834 -25 75.501 -37l23 179c-79.333 -1.33301 -119 -30 -119 -86zM394.998 189.997c0 22.667 -6.16797 40.333 -18.501 53s-34.166 23.667 -65.499 33l-25 -192c72.667 2.66699 109 38 109 106z" />
    <glyph glyph-name="percent" unicode="%" 
d="M138 -6l222 697l62 -21l-222 -696zM20 529c0 94.667 38.5 142 115.5 142s115.5 -47.333 115.5 -142c0 -48 -10 -84 -30 -108s-48.5 -36 -85.5 -36s-65.5 12 -85.5 36s-30 60 -30 108zM102 529c0 -26.667 2.5 -46 7.5 -58s13.833 -18 26.5 -18s21.5 6 26.5 18
s7.5 31.333 7.5 58s-2.5 45.834 -7.5 57.501s-13.833 17.5 -26.5 17.5s-21.5 -5.83301 -26.5 -17.5s-7.5 -30.834 -7.5 -57.501zM309 133c0 94.667 38.5 142 115.5 142s115.5 -47.333 115.5 -142c0 -48 -10 -84 -30 -108s-48.5 -36 -85.5 -36s-65.5 12 -85.5 36
s-30 60 -30 108zM397.5 189.5c-5 -11.667 -7.5 -30.668 -7.5 -57.001s2.5 -45.666 7.5 -57.999s13.833 -18.5 26.5 -18.5s21.5 6 26.5 18s7.5 31.5 7.5 58.5s-2.33301 46.167 -7 57.5s-13.5 17 -26.5 17s-22 -5.83301 -27 -17.5z" />
    <glyph glyph-name="ampersand" unicode="&#x26;" horiz-adv-x="696" 
d="M174.5 667c34.333 26.667 81.8301 40 142.497 40s107.334 -13.5 140.001 -40.5s49 -64.333 49 -112s-10.667 -85.167 -32 -112.5s-59 -56.666 -113 -87.999l122 -121c4.66699 12.667 9.33398 34.5 14.001 65.5s7.66699 56.833 9 77.5l105 -2
c-9.33301 -81.333 -25.666 -149.666 -48.999 -204.999l119 -109l-62 -71l-113 98c-22 -30.667 -51.333 -54.667 -88 -72s-77 -26 -121 -26c-94 0 -160.667 17.667 -200 53s-59 87.666 -59 156.999c0 55.333 11.667 98.166 35 128.499s61 55.166 113 74.499
c-26 30 -43 55.333 -51 76s-12 47.334 -12 80.001c0 46 17.167 82.333 51.5 109zM284.997 86c32 0 61.332 5.5 87.999 16.5s46.334 26.167 59.001 45.5l-189 189c-33.333 -12.667 -57.5 -29 -72.5 -49s-22.5 -46.667 -22.5 -80c0 -81.333 45.667 -122 137 -122zM232.996 536
c0 -32.667 15.001 -64.999 45.001 -96.999l22 -23c35.333 20 60.166 38.667 74.499 56s21.5 39.666 21.5 66.999c0 50.667 -27.167 76 -81.5 76s-81.5 -26.333 -81.5 -79z" />
    <glyph glyph-name="quotesingle" unicode="'" horiz-adv-x="225" 
d="M64 453l-3 232h106l-7 -232h-96z" />
    <glyph glyph-name="parenleft" unicode="(" horiz-adv-x="289" 
d="M163 301c0 -58 7.83203 -122.503 23.499 -193.503s31.5 -127.5 47.5 -169.5l24 -63h-103c-9.33301 15.333 -21.333 40.833 -36 76.5s-27 69.334 -37 101.001s-19 70.334 -27 116.001s-12 96.167 -12 151.5s9.33301 120.333 28 195s37.334 132.334 56.001 173.001l28 62
h103c-22.667 -57.333 -44.167 -132 -64.5 -224s-30.5 -167 -30.5 -225z" />
    <glyph glyph-name="parenright" unicode=")" horiz-adv-x="289" 
d="M246 301c0 -42.667 -3.83203 -86.499 -11.499 -131.499s-17.167 -84.167 -28.5 -117.5c-22.667 -70.667 -42.667 -122.667 -60 -156l-12 -21h-103c7.33301 17.333 16.166 40.5 26.499 69.5s24.333 81.167 42 156.5s26.5 142 26.5 200s-7.83301 124.5 -23.5 199.5
s-31.5 135.5 -47.5 181.5l-24 68h103c9.33301 -17.333 21.333 -45.333 36 -84s27 -74.834 37 -108.501s19 -74.167 27 -121.5s12 -92.333 12 -135z" />
    <glyph glyph-name="asterisk" unicode="*" horiz-adv-x="423" 
d="M382 504h-127l39 -122l-62 -19l-41 123l-105 -79l-40 51l107 79l-104 74l39 54l103 -75l40 123l64 -21l-39 -124h126v-64z" />
    <glyph glyph-name="plus" unicode="+" 
d="M52 202v98h178v179h98v-179h180v-98h-180v-181h-98v181h-178z" />
    <glyph glyph-name="comma" unicode="," horiz-adv-x="246" 
d="M26 -123l48 247h120l-80 -247h-88z" />
    <glyph glyph-name="hyphen" unicode="-" horiz-adv-x="421" 
d="M61 220v99h299v-99h-299z" />
    <glyph glyph-name="period" unicode="." horiz-adv-x="239" 
d="M61 0v144h117v-144h-117z" />
    <glyph glyph-name="slash" unicode="/" horiz-adv-x="443" 
d="M32 9l285 705l96 -35l-286 -704z" />
    <glyph glyph-name="zero" unicode="0" 
d="M280 671c83.333 0 145.667 -26.667 187 -80s62 -141.5 62 -264.5s-20.833 -210 -62.5 -261s-104 -76.5 -187 -76.5s-145.333 25.333 -187 76s-62.5 137.5 -62.5 260.5s20.833 211.333 62.5 265s104.167 80.5 187.5 80.5zM280.001 574c-48 0 -82.5 -18.167 -103.5 -54.5
s-31.5 -100.166 -31.5 -191.499s10.833 -154.5 32.5 -189.5s56 -52.5 103 -52.5s81 17.5 102 52.5s31.5 98.167 31.5 189.5s-10.333 155.166 -31 191.499s-55 54.5 -103 54.5z" />
    <glyph glyph-name="one" unicode="1" 
d="M405 660v-660h-111v534l-155 -100l-51 83l215 143h102z" />
    <glyph glyph-name="two" unicode="2" 
d="M492 0l-425 -0.000976562v95l163 168c49.333 50.667 84 90.334 104 119.001s30 60.167 30 94.5s-9.66699 58.833 -29 73.5s-51 22 -95 22c-41.333 0 -87 -4.66699 -137 -14l-25 -4l-7 88c64.667 19.333 131.667 29 201 29c138 0 207 -61.333 207 -184
c0 -48 -10.5 -89.667 -31.5 -125s-58.5 -78 -112.5 -128l-141 -137h298v-97z" />
    <glyph glyph-name="three" unicode="3" 
d="M66 639c62 21.333 130 32 204 32s127.833 -14.167 161.5 -42.5s50.5 -73.166 50.5 -134.499c0 -26.667 -5.16699 -50.667 -15.5 -72s-20.833 -36.833 -31.5 -46.5s-24 -19.834 -40 -30.501c35.333 -16.667 60.833 -34.834 76.5 -54.501s23.5 -51.5 23.5 -95.5
c0 -70 -17.5 -121.833 -52.5 -155.5s-90.833 -50.5 -167.5 -50.5c-30 0 -63 2.5 -99 7.5s-64.667 10.167 -86 15.5l-31 8l7 86c73.333 -13.333 138 -20 194 -20c80 0.666992 120 36 120 106c0 32 -10.333 56.333 -31 73s-48 25.334 -82 26.001h-133v93h133
c24.667 0 47.5 10.167 68.5 30.5s31.5 45 31.5 74s-9.16699 50.5 -27.5 64.5s-43.5 21 -75.5 21c-52.667 0 -107 -4.66699 -163 -14l-26 -5z" />
    <glyph glyph-name="four" unicode="4" 
d="M337 0v118h-297v85l174 457h123l-184 -445h184v194h112v-194h72v-97h-72v-118h-112z" />
    <glyph glyph-name="five" unicode="5" 
d="M484 660v-97.998h-306l-17 -174c45.333 20.667 90 31 134 31c141.333 0 212 -66 212 -198c0 -74.667 -19.5 -132 -58.5 -172s-94.167 -60 -165.5 -60c-30 0 -64 2.83301 -102 8.5s-68.333 11.167 -91 16.5l-34 9l12 84c78.667 -13.333 146 -20 202 -20
c38.667 0 68.667 10.667 90 32s32 51.666 32 90.999s-9.33301 67.666 -28 84.999s-43 26 -73 26c-54 0 -98 -6.66699 -132 -20l-18 -7l-70 15l18 351h395z" />
    <glyph glyph-name="six" unicode="6" 
d="M490 560c-64.667 9.33301 -123.335 14.001 -176.002 14.001s-92 -16.333 -118 -49s-39.333 -78.334 -40 -137.001l23 8c48 15.333 88.333 23 121 23c149.333 0 224 -70 224 -210c0 -72 -20.667 -126.667 -62 -164s-101.666 -56 -180.999 -56s-139.166 29.5 -179.499 88.5
s-60.5 143.167 -60.5 252.5c0 227.333 89.333 341 268 341c50 0 104 -6 162 -18l29 -6zM173.999 299.001l-19 -7c1.33301 -137.333 45.333 -206 132 -206c39.333 0 69.5 10.667 90.5 32s31.5 51 31.5 89s-10.333 66.5 -31 85.5s-49.5 28.5 -86.5 28.5
s-76.167 -7.33301 -117.5 -22z" />
    <glyph glyph-name="seven" unicode="7" 
d="M73 560v100h416v-132l-243 -539l-104 30l235 511v30h-304z" />
    <glyph glyph-name="eight" unicode="8" 
d="M278 671c73.333 0 131.835 -15.167 175.502 -45.5s65.5 -73.833 65.5 -130.5c0 -40 -6.16699 -70.167 -18.5 -90.5s-35.5 -41.166 -69.5 -62.499c34 -22 58.833 -44.5 74.5 -67.5s23.5 -54.833 23.5 -95.5c0 -66.667 -23 -115 -69 -145s-106.667 -45 -182 -45
c-165.333 0 -248 59.667 -248 179c0 44.667 7.66699 79 23 103s39.666 47.667 72.999 71c-31.333 20.667 -53.333 42.167 -66 64.5s-19 52.166 -19 89.499c0 56 21.167 99.167 63.5 129.5s100.166 45.5 173.499 45.5zM149.002 192c0 -68.667 43.5 -103.001 130.5 -103.001
s130.5 35 130.5 105c0 46 -28 77.667 -84 95h-96c-54 -17.333 -81 -49.666 -81 -96.999zM400.002 478.999c0 61.333 -40 92 -120 92s-120 -30.667 -120 -92c0 -40 23.333 -71.667 70 -95h96c49.333 23.333 74 55 74 95z" />
    <glyph glyph-name="nine" unicode="9" 
d="M248 86c101.333 0 152.668 64 154.001 192l-24 -8c-50.667 -17.333 -91.334 -26 -122.001 -26c-72 0 -127 17.167 -165 51.5s-57 85.833 -57 154.5s21.167 122.667 63.5 162s99.833 59 172.5 59c83.333 0 145.333 -29.667 186 -89s61 -147 61 -263
s-22.833 -200 -68.5 -252s-112.5 -78 -200.5 -78c-50 0 -104 6 -162 18l-29 6l10 87c64.667 -9.33301 125 -14 181 -14zM265.002 342c38 0 76.999 7.33301 116.999 22l21 7c-1.33301 135.333 -45.666 203 -132.999 203c-38 0 -67.667 -11 -89 -33s-32 -52 -32 -90
c0 -72.667 38.667 -109 116 -109z" />
    <glyph glyph-name="colon" unicode=":" horiz-adv-x="239" 
d="M61 303v144h117v-144h-117zM61 0v144h117v-144h-117z" />
    <glyph glyph-name="semicolon" unicode=";" horiz-adv-x="266" 
d="M84 124h120l-80 -247h-88zM77 303v144h117v-144h-117z" />
    <glyph glyph-name="less" unicode="&#x3c;" 
d="M474 377l-294 -124l294 -130v-112l-410 195v90l410 192v-111z" />
    <glyph glyph-name="equal" unicode="=" 
d="M61 301v98h438v-98h-438zM61 103v98h438v-98h-438z" />
    <glyph glyph-name="greater" unicode="&#x3e;" 
d="M380 253l-294 124v111l410 -192v-90l-410 -195v112z" />
    <glyph glyph-name="question" unicode="?" horiz-adv-x="441" 
d="M406 534c0 -44.667 -5.50195 -78.666 -16.502 -101.999s-33.5 -48.333 -67.5 -75s-56.5 -47.834 -67.5 -63.501s-16.5 -32.5 -16.5 -50.5v-33h-88c-16 20.667 -24 46.667 -24 78c0 16.667 6.33301 33.334 19 50.001s35.334 38.5 68.001 65.5s54.334 48 65.001 63
s16 34.833 16 59.5c0 48.667 -35.333 73 -106 73c-40 0 -82 -4.66699 -126 -14l-23 -5l-6 83c62 22 118.333 33 169 33c70 0 121.5 -12.833 154.5 -38.5s49.5 -66.834 49.5 -123.501zM132.998 0.000976562v140h116v-140h-116z" />
    <glyph glyph-name="at" unicode="@" horiz-adv-x="975" 
d="M939 305v-10c0 -110 -15.333 -187.167 -46 -231.5s-77 -66.5 -139 -66.5c-30 0 -55.5 4.83301 -76.5 14.5s-34.5 19.167 -40.5 28.5l-9 15c-58.667 -38 -114.5 -57 -167.5 -57s-95.333 18.5 -127 55.5s-47.5 100.333 -47.5 190s14.667 155.167 44 196.5s80 62 152 62
c26.667 0 55.334 -6 86.001 -18l16 -7v14h108v-184c0 -101.333 3.33301 -163 10 -185c2 -8 5.66699 -15 11 -21s10.833 -9.66699 16.5 -11s15.5 -2 29.5 -2s26.333 4.66699 37 14c22.667 20.667 34 85 34 193v11c0 114 -25.833 196.667 -77.5 248s-135.167 77 -250.5 77
s-202.5 -31 -261.5 -93s-88.5 -156.833 -88.5 -284.5s27.167 -220.334 81.5 -278.001s144.166 -86.5 269.499 -86.5l143 9l5 -95c-61.333 -6 -110.666 -9 -147.999 -9c-76.667 0 -142.334 7.5 -197.001 22.5s-102 40.167 -142 75.5c-80 70 -120 193 -120 369
c0 156.667 40.167 273.334 120.5 350.001s193.5 115 339.5 115c290 0 435 -140.333 435 -421zM477 93c28 0 66.001 11.332 114.001 33.999c-4.66699 26.667 -7 71.667 -7 135v130c-33.333 10 -60 15 -80 15c-42.667 0 -71.334 -12.167 -86.001 -36.5
s-22 -65.166 -22 -122.499c0 -103.333 27 -155 81 -155z" />
    <glyph glyph-name="A" unicode="A" horiz-adv-x="599" 
d="M20 0l169 685h221l170 -685h-112l-37 147h-263l-37 -147h-111zM275 592l-85 -347h219l-84 347h-50z" />
    <glyph glyph-name="B" unicode="B" horiz-adv-x="612" 
d="M79 685l260 -0.000976562c70 0 122.333 -14.167 157 -42.5s52 -73.5 52 -135.5c0 -40.667 -6.5 -72.667 -19.5 -96s-33.5 -42.666 -61.5 -57.999c65.333 -25.333 98 -78.333 98 -159c0 -129.333 -72.667 -194 -218 -194h-268v685zM339 298.999l-149 0.000976562v-203h151
c36.667 0 64.167 7.66699 82.5 23s27.5 41.666 27.5 78.999s-10.667 63.5 -32 78.5s-48 22.5 -80 22.5zM333 589h-143v-196h147c65.333 0 98 33.667 98 101c0 63.333 -34 95 -102 95z" />
    <glyph glyph-name="C" unicode="C" horiz-adv-x="544" 
d="M309 -11c-100 0 -167.832 27.666 -203.499 82.999s-53.5 146.333 -53.5 273s18 216.834 54 270.501s103.667 80.5 203 80.5c59.333 0 124.666 -8.33301 195.999 -25l-4 -90c-60 10.667 -120 16 -180 16s-100.667 -17.833 -122 -53.5s-32 -102.667 -32 -201
s10.333 -165.333 31 -201s61 -53.5 121 -53.5s120.667 5 182 15l3 -92c-68.667 -14.667 -133.667 -22 -195 -22z" />
    <glyph glyph-name="D" unicode="D" horiz-adv-x="641" 
d="M316 0h-237v685h237c105.333 0 177.333 -26.667 216 -80s58 -137 58 -251c0 -58 -3.83301 -107.167 -11.5 -147.5s-21.167 -76.833 -40.5 -109.5c-38 -64.667 -112 -97 -222 -97zM475 354c0 82.667 -10.333 142.333 -31 179s-63.334 55 -128.001 55h-126v-490h126
c66 0 110 24.333 132 73c10.667 24.667 17.834 51 21.501 79s5.5 62.667 5.5 104z" />
    <glyph glyph-name="E" unicode="E" horiz-adv-x="553" 
d="M79 0v685h432v-97h-321v-194h261v-96h-261v-200h321v-98h-432z" />
    <glyph glyph-name="F" unicode="F" horiz-adv-x="529" 
d="M79 0v685h425v-97h-314v-231h261v-97h-261v-260h-111z" />
    <glyph glyph-name="G" unicode="G" horiz-adv-x="613" 
d="M358 262l0.000976562 98.001h195v-348c-18 -4.66699 -54.5 -9.66699 -109.5 -15s-94.833 -8 -119.5 -8c-104 0 -175.667 28.667 -215 86s-59 147.166 -59 269.499s20.167 211.5 60.5 267.5s110.166 84 209.499 84c58.667 0 124.667 -6.66699 198 -20l35 -7l-4 -88
c-80.667 10.667 -153 16 -217 16s-107.833 -18 -131.5 -54s-35.5 -102.667 -35.5 -200s11.167 -164.5 33.5 -201.5s67.5 -55.5 135.5 -55.5c48.667 0 85 3 109 9v167h-85z" />
    <glyph glyph-name="H" unicode="H" horiz-adv-x="676" 
d="M486 0v296h-296v-296h-111v685h111v-292h296v292h112v-685h-112z" />
    <glyph glyph-name="I" unicode="I" horiz-adv-x="269" 
d="M79 0v685h111v-685h-111z" />
    <glyph glyph-name="J" unicode="J" horiz-adv-x="296" 
d="M19 -71v97.998c35.333 0 59.5 5.33301 72.5 16s19.5 34.334 19.5 71.001v571h110l1 -579c0 -71.333 -15 -118.666 -45 -141.999s-82.667 -35 -158 -35z" />
    <glyph glyph-name="K" unicode="K" horiz-adv-x="583" 
d="M190 0h-111v685h111v-309l102 8l140 301h127l-169 -344l176 -341h-129l-145 286l-102 -7v-279z" />
    <glyph glyph-name="L" unicode="L" horiz-adv-x="475" 
d="M463 0h-384v685h111v-586h273v-99z" />
    <glyph glyph-name="M" unicode="M" horiz-adv-x="850" 
d="M79 0v685h193l153 -535l153 535h194v-685h-112v562h-15l-162 -534h-116l-162 534h-15v-562h-111z" />
    <glyph glyph-name="N" unicode="N" horiz-adv-x="686" 
d="M79 0v685h194l208 -587h15v587h111v-685h-190l-213 588h-14v-588h-111z" />
    <glyph glyph-name="O" unicode="O" horiz-adv-x="656" 
d="M328 86c64 0 107.167 19.3311 129.5 57.998s33.5 103.5 33.5 194.5s-11.5 157.167 -34.5 198.5s-65.833 62 -128.5 62s-105.667 -20.667 -129 -62s-35 -107.166 -35 -197.499s11.333 -155.166 34 -194.499s66 -59 130 -59zM328 -11.002
c-103.333 0 -175.668 28.165 -217.001 84.498s-62 144.833 -62 265.5s20.833 210.334 62.5 269.001s113.834 88 216.501 88s174.667 -29.167 216 -87.5s62 -148.166 62 -269.499s-20.5 -210 -61.5 -266s-113.167 -84 -216.5 -84z" />
    <glyph glyph-name="P" unicode="P" horiz-adv-x="591" 
d="M330 213h-140v-213h-111v685h251c155.333 0 233 -76.667 233 -230c0 -78.667 -19.5 -138.667 -58.5 -180s-97.167 -62 -174.5 -62zM190 309h138.999c80 0 120 48.667 120 146c0 46.667 -9.66699 80.667 -29 102s-49.666 32 -90.999 32h-139v-280z" />
    <glyph glyph-name="Q" unicode="Q" horiz-adv-x="656" 
d="M328 -11c-104 0 -176.501 27.999 -217.501 83.999s-61.5 144.5 -61.5 265.5s20.833 210.833 62.5 269.5s113.834 88 216.501 88s174.667 -29.167 216 -87.5s62 -148.166 62 -269.499c0 -80 -8.5 -144.667 -25.5 -194s-44.833 -87 -83.5 -113l84 -135l-103 -48l-89 146
c-12.667 -4 -33 -6 -61 -6zM327.999 85.999c64 0 107.167 19.1689 129.5 57.502s33.5 103.166 33.5 194.499s-11.5 157.666 -34.5 198.999s-65.833 62 -128.5 62s-105.667 -20.667 -129 -62s-35 -107.333 -35 -198s11.333 -155.5 34 -194.5s66 -58.5 130 -58.5z" />
    <glyph glyph-name="R" unicode="R" horiz-adv-x="618" 
d="M190 244v-244h-111v685h260c154.667 0 232 -72.667 232 -218c0 -97.333 -37.333 -163.333 -112 -198l113 -269h-122l-99 244h-161zM457 466c0 82 -39.333 123 -118 123h-149v-249h151c40 0 69.333 11.5 88 34.5s28 53.5 28 91.5z" />
    <glyph glyph-name="S" unicode="S" horiz-adv-x="543" 
d="M280 599c-84.667 0 -126.998 -29.668 -126.998 -89.001c0 -30.667 10 -52.5 30 -65.5s64.167 -29 132.5 -48s116.5 -41.667 144.5 -68s42 -67.833 42 -124.5c0 -72 -20.5 -125.833 -61.5 -161.5s-96.833 -53.5 -167.5 -53.5c-56.667 0 -119.334 6.66699 -188.001 20
l-36 7l11 89c90 -12 158.667 -18 206 -18c82.667 0 124 36.667 124 110c0 28.667 -9.33301 49.834 -28 63.501s-60.667 28.667 -126 45s-114 38.833 -146 67.5s-48 74 -48 136s20.167 108.833 60.5 140.5s96.166 47.5 167.499 47.5c51.333 0 112 -6 182 -18l35 -6l-9 -90
c-93.333 10.667 -159.333 16 -198 16z" />
    <glyph glyph-name="T" unicode="T" horiz-adv-x="526" 
d="M13 586v99h500v-99h-193v-586h-112v586h-195z" />
    <glyph glyph-name="U" unicode="U" horiz-adv-x="650" 
d="M185 219c0 -88.667 46.667 -133 140 -133s140 44.333 140 133v466h112v-464c0 -80.667 -21.167 -139.5 -63.5 -176.5s-105.333 -55.5 -189 -55.5s-146.5 18.5 -188.5 55.5s-63 95.833 -63 176.5v464h112v-466z" />
    <glyph glyph-name="V" unicode="V" horiz-adv-x="594" 
d="M458 685h116l-168 -685h-218l-168 685h116l136 -587h50z" />
    <glyph glyph-name="W" unicode="W" horiz-adv-x="911" 
d="M24 685h117l98 -589h21l130 587h130l130 -587h22l98 589h117l-135 -685h-179l-118 549l-117 -549h-180z" />
    <glyph glyph-name="X" unicode="X" horiz-adv-x="564" 
d="M138 685l147 -270l149 270h117l-203 -348l203 -337h-124l-147 258l-150 -258h-117l204 331l-204 354h125z" />
    <glyph glyph-name="Y" unicode="Y" horiz-adv-x="549" 
d="M331 0h-112v282l-215 403h125l145 -294l146 294h124l-213 -403v-282z" />
    <glyph glyph-name="Z" unicode="Z" horiz-adv-x="534" 
d="M42 588v97h450v-107l-318 -462v-19h318v-97h-450v106l317 462v20h-317z" />
    <glyph glyph-name="bracketleft" unicode="[" horiz-adv-x="344" 
d="M306 749v-97h-123v-678h123v-97h-233v872h233z" />
    <glyph glyph-name="backslash" unicode="\" horiz-adv-x="471" 
d="M440 13l-95 -40l-314 697l94 42z" />
    <glyph glyph-name="bracketright" unicode="]" horiz-adv-x="344" 
d="M38 652v97h233v-872h-233v97h123v678h-123z" />
    <glyph glyph-name="asciicircum" unicode="^" 
d="M400 316l-124 238l-125 -238h-114l190 344h94l193 -344h-114z" />
    <glyph glyph-name="underscore" unicode="_" horiz-adv-x="625" 
d="M99 -81h428v-93h-428v93z" />
    <glyph glyph-name="grave" unicode="`" horiz-adv-x="254" 
d="M24 748l236 -101l-26 -71l-244 78z" />
    <glyph glyph-name="a" unicode="a" horiz-adv-x="507" 
d="M436 346v-228.004c0.666992 -14.667 4.5 -25.5 11.5 -32.5s17.833 -11.5 32.5 -13.5l-3 -83c-57.333 0 -101.666 12.333 -132.999 37c-53.333 -24.667 -107 -37 -161 -37c-99.333 0 -149 53 -149 159c0 50.667 13.5 87.334 40.5 110.001s68.5 36.334 124.5 41.001l129 11
v36c0 26.667 -5.83301 45.334 -17.5 56.001s-28.834 16 -51.501 16c-42.667 0 -96 -2.66699 -160 -8l-32 -2l-4 77c72.667 17.333 139.5 26 200.5 26s105 -13.167 132 -39.5s40.5 -68.166 40.5 -125.499zM212 221.996c-46 -4 -68.999 -29 -68.999 -75s20.333 -69 61 -69
c33.333 0 68.666 5.33301 105.999 16l18 6v133z" />
    <glyph glyph-name="b" unicode="b" horiz-adv-x="536" 
d="M299 511c68.667 0 118.167 -19.1689 148.5 -57.502s45.5 -106.166 45.5 -203.499s-18 -165.166 -54 -203.499s-99.333 -57.5 -190 -57.5c-31.333 0 -81 3 -149 9l-34 3v707h108v-227c46 20 87.667 30 125 30zM249 85.998c53.333 0 88.833 12.5 106.5 37.5
s26.5 67.5 26.5 127.5s-7.5 102.167 -22.5 126.5s-39.5 36.5 -73.5 36.5c-32 0 -64 -5 -96 -15l-16 -5v-304c36.667 -2.66699 61.667 -4 75 -4z" />
    <glyph glyph-name="c" unicode="c" horiz-adv-x="442" 
d="M253 511c35.333 0 76.999 -4.66602 124.999 -13.999l25 -5l-4 -86c-52.667 5.33301 -91.667 8 -117 8c-50.667 0 -84.667 -11.333 -102 -34s-26 -65.334 -26 -128.001s8.33301 -106 25 -130s51.334 -36 104.001 -36l117 8l3 -87c-67.333 -12 -118 -18 -152 -18
c-76 0 -129.5 20.5 -160.5 61.5s-46.5 108.167 -46.5 201.5s16.333 159.833 49 199.5s86 59.5 160 59.5z" />
    <glyph glyph-name="d" unicode="d" horiz-adv-x="540" 
d="M474 708v-708h-108v26c-48.667 -24.667 -93.334 -37 -134.001 -37c-65.333 0 -113.166 19.667 -143.499 59s-45.5 105.333 -45.5 198s16.833 160 50.5 202s86.167 63 157.5 63c24 0 62 -4.33301 114 -13v210h109zM348 104l17 7v296c-40 6.66699 -77 10 -111 10
c-67.333 0 -101 -56 -101 -168c0 -61.333 7.83301 -103.833 23.5 -127.5s40.5 -35.5 74.5 -35.5s66.333 6 97 18z" />
    <glyph glyph-name="e" unicode="e" horiz-adv-x="508" 
d="M422 90l28.001 2.99902l2 -81c-76 -15.333 -143.333 -23 -202 -23c-74 0 -127.167 20.333 -159.5 61s-48.5 105.667 -48.5 195c0 177.333 72.333 266 217 266c140 0 210 -76.333 210 -229l-7 -78h-310c0.666992 -41.333 9.66699 -71.666 27 -90.999
s49.666 -29 96.999 -29s96 2 146 6zM362.001 287.999c0 49.333 -7.83301 83.833 -23.5 103.5s-42.167 29.5 -79.5 29.5s-64.5 -10.333 -81.5 -31s-25.833 -54.667 -26.5 -102h211z" />
    <glyph glyph-name="f" unicode="f" horiz-adv-x="346" 
d="M197 407l0.000976562 -407h-108v407h-58v93h58v32c0 71.333 10.333 120.333 31 147s57.334 40 110.001 40l108 -10l-1 -89c-32.667 1.33301 -59.834 2 -81.501 2s-36.834 -6.5 -45.501 -19.5s-13 -36.833 -13 -71.5v-31h132v-93h-132z" />
    <glyph glyph-name="g" unicode="g" horiz-adv-x="525" 
d="M503 -68c0 -109.333 -78.998 -164.002 -236.998 -164.002c-76 0 -132.333 10.333 -169 31s-55 58.334 -55 113.001c0 24.667 6 45.834 18 63.501s31.333 36.834 58 57.501c-22 14.667 -33 39 -33 73c0 13.333 9 35 27 65l9 15c-48 28.667 -72 78.667 -72 150
c0 60 18 104 54 132s84.667 42 146 42c29.333 0 58.333 -3.33301 87 -10l15 -3l155 4v-88l-83 5c18 -23.333 27 -50.666 27 -81.999c0 -65.333 -16.5 -110.5 -49.5 -135.5s-84.5 -37.5 -154.5 -37.5c-17.333 0 -32 1.33301 -44 4c-9.33301 -22.667 -14 -40.167 -14 -52.5
s6.16699 -20.833 18.5 -25.5s42.166 -7.33398 89.499 -8.00098c79.333 -0.666992 133.666 -11.334 162.999 -32.001s44 -59.667 44 -117zM149.002 -78.002c0 -23.333 9.33301 -40 28 -50s50.667 -15 96 -15c80.667 0 121 23 121 69c0 26 -7.16699 42.5 -21.5 49.5
s-42.833 10.833 -85.5 11.5l-98 6c-14.667 -12 -25 -23.167 -31 -33.5s-9 -22.833 -9 -37.5zM179.002 268.498c14.667 -14.333 38.334 -21.5 71.001 -21.5s56.167 7.16699 70.5 21.5s21.5 36.833 21.5 67.5s-7.33301 53.167 -22 67.5s-38.334 21.5 -71.001 21.5
c-61.333 0 -92 -29.667 -92 -89c0 -30.667 7.33301 -53.167 22 -67.5z" />
    <glyph glyph-name="h" unicode="h" horiz-adv-x="546" 
d="M175 0l-109 0.000976562v708h109v-234c49.333 24.667 95 37 137 37c66.667 0 112.167 -18.833 136.5 -56.5s36.5 -99.834 36.5 -186.501v-268h-109v265c0 54 -5.66699 92.333 -17 115s-35.333 34 -72 34c-32 0 -64 -5.33301 -96 -16l-16 -6v-392z" />
    <glyph glyph-name="i" unicode="i" horiz-adv-x="241" 
d="M66 0v500h109v-500h-109zM66 585v115h109v-115h-109z" />
    <glyph glyph-name="j" unicode="j" horiz-adv-x="242" 
d="M67 19l-0.000976562 480.999h108v-482c0 -65.333 -11.5 -113.666 -34.5 -144.999s-69.167 -64.666 -138.5 -99.999l-43 81c46.667 29.333 76.334 53.166 89.001 71.499s19 49.5 19 93.5zM66.999 584.999v115h108v-115h-108z" />
    <glyph glyph-name="k" unicode="k" horiz-adv-x="499" 
d="M175 0h-109v708h109v-409l62 6l118 195h122l-144 -234l152 -266h-123l-122 211l-65 -7v-204z" />
    <glyph glyph-name="l" unicode="l" horiz-adv-x="253" 
d="M72 0v708h109v-708h-109z" />
    <glyph glyph-name="m" unicode="m" horiz-adv-x="838" 
d="M175 0h-108.999v500h108v-31c47.333 28 90.666 42 129.999 42c58 0 100.333 -16.333 127 -49c60.667 32.667 121 49 181 49s102.333 -18.5 127 -55.5s37 -99.5 37 -187.5v-268h-108v265c0 54 -5.5 92.333 -16.5 115s-33.833 34 -68.5 34c-30 0 -62.333 -6.66699 -97 -20
l-17 -7c5.33301 -13.333 8 -56 8 -128v-259h-108v257c0 59.333 -5.33301 100.333 -16 123s-34 34 -70 34c-33.333 0 -64.333 -6.66699 -93 -20l-15 -6v-388z" />
    <glyph glyph-name="n" unicode="n" horiz-adv-x="546" 
d="M175 0l-109 0.000976562v500h108v-31c48.667 28 94.667 42 138 42c66.667 0 112.167 -18.833 136.5 -56.5s36.5 -99.834 36.5 -186.501v-268h-108v265c0 54 -5.83301 92.333 -17.5 115s-35.5 34 -71.5 34c-34 0 -66.667 -6.66699 -98 -20l-15 -6v-388z" />
    <glyph glyph-name="o" unicode="o" horiz-adv-x="530" 
d="M265 511c80 0 137.167 -21.667 171.5 -65s51.5 -108.333 51.5 -195s-16.667 -152 -50 -196s-91 -66 -173 -66s-139.667 22 -173 66s-50 109.333 -50 196s17.167 151.667 51.5 195s91.5 65 171.5 65zM265 81c44.667 0 74.667 13.333 90 40s23 70.334 23 131.001
s-8.16699 103.667 -24.5 129s-45.833 38 -88.5 38s-72.167 -12.667 -88.5 -38s-24.5 -68.333 -24.5 -129s7.66699 -104.334 23 -131.001s45.333 -40 90 -40z" />
    <glyph glyph-name="p" unicode="p" horiz-adv-x="537" 
d="M66 -215v715h108v-31c46 28 89 42 129 42c66 0 114.333 -20.167 145 -60.5s46 -108 46 -203s-17.5 -161.833 -52.5 -200.5s-92.167 -58 -171.5 -58c-27.333 0 -59 3 -95 9v-213h-109zM284 414c-31.333 0 -62.666 -7 -93.999 -21l-15 -7v-295c26.667 -5.33301 56 -8 88 -8
c45.333 0 76.666 13 93.999 39s26 70.333 26 133c0 106 -33 159 -99 159z" />
    <glyph glyph-name="q" unicode="q" horiz-adv-x="535" 
d="M239 -11c-68.667 0 -118.498 19.333 -149.498 58s-46.5 106.5 -46.5 203.5s18.167 164.667 54.5 203s99.166 57.5 188.499 57.5c32.667 0 82.667 -3 150 -9l33 -3v-714h-108v234c-44.667 -20 -85.334 -30 -122.001 -30zM286.002 417
c-52.667 0 -88.166 -13.168 -106.499 -39.501s-27.5 -69.166 -27.5 -128.499s8.16699 -101.333 24.5 -126s41.5 -37 75.5 -37c31.333 0 62.666 5 93.999 15l15 5v307c-32 2.66699 -57 4 -75 4z" />
    <glyph glyph-name="r" unicode="r" horiz-adv-x="361" 
d="M66 0l-0.000976562 499.999h108v-60c56.667 36.667 113.334 60.334 170.001 71.001v-109c-57.333 -11.333 -106.333 -26 -147 -44l-22 -9v-349h-109z" />
    <glyph glyph-name="s" unicode="s" horiz-adv-x="469" 
d="M413 397c-78.667 10.667 -135.668 16.0049 -171.001 16.0049s-59.833 -4.16699 -73.5 -12.5s-20.5 -21.5 -20.5 -39.5s7.5 -30.667 22.5 -38s50.333 -15.833 106 -25.5s95.167 -24.834 118.5 -45.501s35 -57.334 35 -110.001s-16.833 -91.334 -50.5 -116.001
s-82.834 -37 -147.501 -37c-40.667 0 -92 5.66699 -154 17l-31 5l4 91c80 -10.667 137.667 -16 173 -16s60.5 4.33301 75.5 13s22.5 23 22.5 43s-7.16699 33.833 -21.5 41.5s-48.666 16 -102.999 25s-94.166 23.167 -119.499 42.5s-38 54.666 -38 105.999
s17.5 89.666 52.5 114.999s79.833 38 134.5 38c42.667 0 95 -5.33301 157 -16l31 -6z" />
    <glyph glyph-name="t" unicode="t" horiz-adv-x="358" 
d="M335 407h-138v-220c0 -40.667 3 -67.667 9 -81s21.333 -20 46 -20l82 3l5 -87c-44.667 -8.66699 -78.667 -13 -102 -13c-56.667 0 -95.5 13 -116.5 39s-31.5 75 -31.5 147v232h-64v93h64v145h108v-145h138v-93z" />
    <glyph glyph-name="u" unicode="u" horiz-adv-x="543" 
d="M369 500h108v-500h-108v31c-48.667 -28 -93.667 -42 -135 -42c-68.667 0 -114.667 18.5 -138 55.5s-35 101.833 -35 194.5v261h109v-262c0 -60 5 -100.333 15 -121s33.333 -31 70 -31c36 0 69 6.66699 99 20l15 6v388z" />
    <glyph glyph-name="v" unicode="v" horiz-adv-x="491" 
d="M19 500h114l96 -407h32l100 407h111l-130 -500h-194z" />
    <glyph glyph-name="w" unicode="w" horiz-adv-x="768" 
d="M27 500h107l79 -407h20l95 397h112l95 -397h20l78 407h108l-106 -500h-173l-78 343l-78 -343h-173z" />
    <glyph glyph-name="x" unicode="x" horiz-adv-x="464" 
d="M18 500h116l98 -173l99 173h116l-149 -246l149 -254h-116l-99 171l-98 -171h-116l145 251z" />
    <glyph glyph-name="y" unicode="y" horiz-adv-x="492" 
d="M20 500h107l106 -407h27l106 407h108l-190 -715h-107l60 215h-86z" />
    <glyph glyph-name="z" unicode="z" horiz-adv-x="454" 
d="M41 403v97h371v-97l-240 -306h240v-97h-371v97l241 306h-241z" />
    <glyph glyph-name="braceleft" unicode="{" horiz-adv-x="357" 
d="M228 575l6.99902 -125c0 -42 -7 -72.333 -21 -91s-43.333 -34 -88 -46c44 -11.333 73.167 -27.166 87.5 -47.499s21.5 -51.833 21.5 -94.5l-7 -117c0 -28.667 6.33301 -50.834 19 -66.501s36.334 -24.5 71.001 -26.5v-92c-71.333 2.66699 -121.833 17.167 -151.5 43.5
s-44.5 69.5 -44.5 129.5l7 121c0 51.333 -36.667 87 -110 107v85c38 8.66699 65.833 21.167 83.5 37.5s26.5 37.5 26.5 63.5l-7 127c0 62.667 14.833 106.834 44.5 132.501s80.5 39.834 152.5 42.501l1 -92c-35.333 -2.66699 -59.5 -11.334 -72.5 -26.001
s-19.5 -36.334 -19.5 -65.001z" />
    <glyph glyph-name="bar" unicode="|" horiz-adv-x="252" 
d="M72 -215v923h108v-923h-108z" />
    <glyph glyph-name="braceright" unicode="}" horiz-adv-x="357" 
d="M129 54l-7.00098 117c0 42.667 7.16699 74.167 21.5 94.5s43.5 36.166 87.5 47.499c-44.667 12 -74 27.333 -88 46s-21 49 -21 91l7 125c0 28.667 -6.5 50.334 -19.5 65.001s-37.167 23.334 -72.5 26.001l1 92c72 -2.66699 122.833 -16.834 152.5 -42.501
s44.5 -69.834 44.5 -132.501l-7 -127c0 -26 8.83301 -47.167 26.5 -63.5s45.5 -28.833 83.5 -37.5v-85c-73.333 -20 -110 -55.667 -110 -107l7 -121c0 -60 -14.833 -103.167 -44.5 -129.5s-80.167 -40.833 -151.5 -43.5v92c34.667 2 58.334 10.833 71.001 26.5
s19 37.834 19 66.501z" />
    <glyph glyph-name="asciitilde" unicode="~" 
d="M381.5 181c-18.333 0 -53.3301 8.5 -104.997 25.5s-83.834 25.5 -96.501 25.5s-27.834 -3.5 -45.501 -10.5s-32.167 -14.167 -43.5 -21.5l-17 -10l-10 88c41.333 34.667 81.333 52 120 52c18.667 0 53 -8.5 103 -25.5s81.667 -25.5 95 -25.5
c23.333 0 52.666 10.333 87.999 31l17 10l9 -87c-12 -12 -29.5 -23.667 -52.5 -35s-43.667 -17 -62 -17z" />
    <glyph glyph-name="uni00A0" unicode="&#xa0;" horiz-adv-x="220" 
 />
    <glyph glyph-name="exclamdown" unicode="&#xa1;" horiz-adv-x="248" 
d="M183 500v-140h-117v140h117zM172 259l10 -444h-116l10 444h96z" />
    <glyph glyph-name="cent" unicode="&#xa2;" 
d="M274 -78l0.000976562 110c-60.667 3.33301 -106 22 -136 56s-45 87.667 -45 161c0 137.333 60 210.333 180 219v108h91v-112l88 -12l-3 -83c-52.667 3.33301 -93.334 5 -122.001 5c-45.333 0 -77.166 -9.66699 -95.499 -29s-27.5 -51.5 -27.5 -96.5
s9.16699 -76.667 27.5 -95s51.166 -27.5 98.499 -27.5l120 5l3 -83c-32 -6.66699 -61.667 -10.667 -89 -12v-114h-90z" />
    <glyph glyph-name="sterling" unicode="&#xa3;" 
d="M456 564c-48.667 6 -88.166 9 -118.499 9s-50.333 -6.83301 -60 -20.5s-14.5 -38.5 -14.5 -74.5v-52h160v-93h-160v-240h137l72 16l17 -91l-81 -18h-331v93h79v240h-66v93h66v57c0 72.667 12.333 122 37 148s65 39 121 39c39.333 0 80.666 -5 123.999 -15l21 -5z" />
    <glyph glyph-name="currency" unicode="&#xa4;" 
d="M371 86c-28.667 -16 -59.167 -24 -91.5 -24s-62.833 8 -91.5 24l-71 -72l-75 75l72 71c-16 26.667 -24 56.667 -24 90s8 64.333 24 93l-72 72l75 75l71 -72c28.667 16 59.167 24 91.5 24s62.833 -8 91.5 -24l72 72l75 -75l-72 -72c16 -28.667 24 -59.167 24 -91.5
s-8 -62.833 -24 -91.5l72 -71l-75 -75zM280 154c26.667 0 49.667 9.66699 69 29s29 42.333 29 69s-9.66699 49.667 -29 69s-42.333 29 -69 29s-49.667 -9.66699 -69 -29s-29 -42.333 -29 -69s9.66699 -49.667 29 -69s42.333 -29 69 -29z" />
    <glyph glyph-name="yen" unicode="&#xa5;" 
d="M58 301v92h112l-157 267h124l144 -236l143 236h124l-156 -267h110v-92h-161l-4 -18v-45h165v-92h-165v-146h-111v146h-168v92h168v45l-3 18h-165z" />
    <glyph glyph-name="brokenbar" unicode="&#xa6;" horiz-adv-x="256" 
d="M74 708h108v-373h-108v373zM74 164h108v-379h-108v379z" />
    <glyph glyph-name="section" unicode="&#xa7;" horiz-adv-x="509" 
d="M433 534c-74 10.667 -129.168 15.9971 -165.501 15.9971s-62.333 -5.83301 -78 -17.5s-23.5 -30 -23.5 -55s9.66699 -42.5 29 -52.5s57.333 -21.167 114 -33.5s96.167 -28.166 118.5 -47.499s33.5 -52.5 33.5 -99.5s-15.667 -92.167 -47 -135.5
c24.667 -21.333 37 -59.666 37 -114.999c0 -111.333 -68.333 -167 -205 -167c-36 0 -86.667 5.33301 -152 16l-30 5l11 88c72 -10 126.333 -15 163 -15c72.667 0 109 25 109 75c0 23.333 -8.33301 39.333 -25 48s-40 16.334 -70 23.001s-45.667 10.334 -47 11.001
c-59.333 13.333 -101.166 30.5 -125.499 51.5s-36.5 54.833 -36.5 101.5c0 24 6.83301 49 20.5 75s27.5 44.667 41.5 56c-29.333 21.333 -44 57.666 -44 108.999c0 115.333 68.667 173 206 173c44 0 91.667 -5.33301 143 -16l28 -5zM176.999 324.997
c-16.667 -24.667 -25.001 -49.1689 -25.001 -73.502s5.83301 -41.333 17.5 -51s35.5 -18.667 71.5 -27s65.667 -16.833 89 -25.5c4 5.33301 8.5 16.5 13.5 33.5s7.5 34.833 7.5 53.5s-6.66699 32.834 -20 42.501s-41.666 19.834 -84.999 30.501z" />
    <glyph glyph-name="dieresis" unicode="&#xa8;" horiz-adv-x="254" 
d="M-22 607v114h104v-114h-104zM187 607v114h104v-114h-104z" />
    <glyph glyph-name="copyright" unicode="&#xa9;" horiz-adv-x="644" 
d="M128.5 235.5c-51 53.667 -76.5 120.167 -76.5 199.5s25.5 145.5 76.5 198.5s116 79.5 195 79.5s143.5 -27 193.5 -81s75 -120.5 75 -199.5s-25 -145 -75 -198s-114.5 -79.5 -193.5 -79.5s-144 26.833 -195 80.5zM106 434c0 -62.667 20.5 -116 61.5 -160
s92.333 -66 154 -66s113.167 21.833 154.5 65.5s62 97 62 160s-20.833 116.667 -62.5 161s-93 66.5 -154 66.5s-112.167 -22.167 -153.5 -66.5s-62 -97.833 -62 -160.5zM331 595c25.333 0 51.668 -4.33301 79.001 -13l-6 -72c-24 4.66699 -45.833 7 -65.5 7
s-32.667 -5.83301 -39 -17.5s-9.5 -32.667 -9.5 -63s3.33301 -52.166 10 -65.499s18.667 -20 36 -20l68 6l6 -69c-21.333 -10.667 -51.5 -16 -90.5 -16s-67.833 12.167 -86.5 36.5s-28 66.166 -28 125.499s9.66699 101 29 125s51.666 36 96.999 36z" />
    <glyph glyph-name="ordfeminine" unicode="&#xaa;" horiz-adv-x="403" 
d="M330 551l0.000976562 -138.999c5.33301 -6.66699 13 -10.667 23 -12l-2 -68c-36.667 0 -61.834 2.33301 -75.501 7s-24.5 12.334 -32.5 23.001c-32 -19.333 -64 -29 -96 -29s-56.667 9.16699 -74 27.5s-26 43.166 -26 74.499c0 58.667 38 90 114 94l76 4v23
c0 17.333 -15.333 26 -46 26l-124 -7l-3 63c46.667 14 91.667 21 135 21s76 -7.83301 98 -23.5s33 -43.834 33 -84.501zM177.001 470.001c-24 -2 -36 -13.167 -36 -33.5s11 -30.5 33 -30.5c16.667 0 34.667 4 54 12l9 4v52z" />
    <glyph glyph-name="guillemotleft" unicode="&#xab;" horiz-adv-x="574" 
d="M251 330l-116 -83l116 -94v-111l-209 162v81l209 155v-110zM514 330l-116 -83l116 -94v-111l-209 162v81l209 155v-110z" />
    <glyph glyph-name="logicalnot" unicode="&#xac;" 
d="M61 351h432v-241h-98v144h-334v97z" />
    <glyph glyph-name="registered" unicode="&#xae;" horiz-adv-x="644" 
d="M129 235.5c-51.333 53.667 -77 120.167 -77 199.5s25.5 145.5 76.5 198.5s116 79.5 195 79.5s143.5 -27 193.5 -81s75 -120.5 75 -199.5s-25 -145 -75 -198s-114.333 -79.5 -193 -79.5s-143.667 26.833 -195 80.5zM106 434c0 -62.667 20.833 -116 62.5 -160
s93.167 -66 154.5 -66s112.5 21.833 153.5 65.5s61.5 97 61.5 160s-20.833 116.667 -62.5 161s-93 66.5 -154 66.5s-112.167 -22.167 -153.5 -66.5s-62 -97.833 -62 -160.5zM286 378v-99.001h-80v309h125c76 0 114 -33.333 114 -100
c0 -25.333 -3.16699 -45.166 -9.5 -59.499s-17.833 -26.833 -34.5 -37.5l48 -112h-84l-37 99h-42zM285 526.999v-89h41c28 0 42 14.833 42 44.5s-15.667 44.5 -47 44.5h-36z" />
    <glyph glyph-name="macron" unicode="&#xaf;" horiz-adv-x="254" 
d="M-9 609v82h282v-82h-282z" />
    <glyph glyph-name="degree" unicode="&#xb0;" 
d="M134 550c0 43.333 13.5 78.5 40.5 105.5s62.167 40.5 105.5 40.5s78.5 -13.5 105.5 -40.5s40.5 -62.167 40.5 -105.5s-13.5 -78.333 -40.5 -105s-62.167 -40 -105.5 -40s-78.5 13.333 -105.5 40s-40.5 61.667 -40.5 105zM198 550c0 -24.667 7.5 -44.667 22.5 -60
s34.833 -23 59.5 -23s44.834 7.66699 60.501 23s23.5 35.333 23.5 60s-7.83301 44.834 -23.5 60.501s-35.834 23.5 -60.501 23.5s-44.5 -7.83301 -59.5 -23.5s-22.5 -35.834 -22.5 -60.501z" />
    <glyph glyph-name="plusminus" unicode="&#xb1;" 
d="M52 280v98h178v115h98v-115h180v-98h-180v-112h-98v112h-178zM52 125h456v-98h-456v98z" />
    <glyph glyph-name="twosuperior" unicode="&#xb2;" horiz-adv-x="280" 
d="M246 478l-221 0.000976562v75l79 71c32 27.333 48 50 48 68c0 16.667 -14 25 -42 25l-79 -7l-4 80c44.667 6.66699 84 10 118 10s59 -7.5 75 -22.5s24 -36.5 24 -64.5s-4.33301 -49.833 -13 -65.5s-23.667 -31.834 -45 -48.501l-49 -42h109v-79z" />
    <glyph glyph-name="threesuperior" unicode="&#xb3;" horiz-adv-x="280" 
d="M134 800c76 0 114.001 -28.667 114.001 -86c0 -35.333 -11.333 -59.333 -34 -72c27.333 -10.667 41 -35.667 41 -75c0 -66 -37.667 -99 -113 -99l-118 8l6 77c39.333 -4.66699 71.5 -7 96.5 -7s37.5 9.33301 37.5 28c0 17.333 -11.667 26 -35 26h-66v72h65
c8 0 14.667 2.33301 20 7s8 11 8 19c0 16 -11.667 24 -35 24l-87 -6l-6 75c43.333 6 78.666 9 105.999 9z" />
    <glyph glyph-name="acute" unicode="&#xb4;" horiz-adv-x="268" 
d="M14 647l236 101l34 -94l-244 -78z" />
    <glyph glyph-name="mu" unicode="&#xb5;" 
d="M380 500h107.998v-500h-108v31c-48.667 -28 -93.667 -42 -135 -42c-26 0 -47.333 2.33301 -64 7v-211h-109v715h109v-286c0.666992 -49.333 6.33398 -83 17.001 -101s33.334 -27 68.001 -27c36 0 69 6.66699 99 20l15 6v388z" />
    <glyph glyph-name="paragraph" unicode="&#xb6;" horiz-adv-x="596" 
d="M403 0l0.000976562 592h-85v-592h-94v303h-7c-54.667 0 -99.334 17.667 -134.001 53s-52 81 -52 137s17.5 102 52.5 138s80.167 54 135.5 54h330v-93h-52v-592h-94z" />
    <glyph glyph-name="periodcentered" unicode="&#xb7;" horiz-adv-x="239" 
d="M61 194v144h117v-144h-117z" />
    <glyph glyph-name="cedilla" unicode="&#xb8;" horiz-adv-x="264" 
d="M201 -60c18.667 -11.333 28 -34 28 -68s-9.16699 -59.667 -27.5 -77s-43.833 -26 -76.5 -26c-25.333 0 -51 2.33301 -77 7l-13 3l4 65c22.667 -1.33301 41 -2 55 -2c27.333 0 41 10.333 41 31c0 10 -3.16699 17 -9.5 21s-16.833 6 -31.5 6h-31v101h47v-43
c42 -0.666992 72.333 -6.66699 91 -18z" />
    <glyph glyph-name="onesuperior" unicode="&#xb9;" horiz-adv-x="280" 
d="M204 790v-312h-88v215l-56 -38l-41 62l105 73h80z" />
    <glyph glyph-name="ordmasculine" unicode="&#xba;" horiz-adv-x="403" 
d="M201.5 659c103.667 0 155.5 -54.333 155.5 -163s-51.833 -163 -155.5 -163s-155.5 54.333 -155.5 163s51.833 163 155.5 163zM202 419c21.333 0 36.001 5.99902 44.001 17.999s12 32 12 60s-3.83301 47.833 -11.5 59.5s-22.334 17.5 -44.001 17.5s-37 -6 -46 -18
s-13.5 -31.667 -13.5 -59s4.5 -47.166 13.5 -59.499s24.167 -18.5 45.5 -18.5z" />
    <glyph glyph-name="guillemotright" unicode="&#xbb;" horiz-adv-x="575" 
d="M439 247l-116 83v110l209 -155v-81l-209 -162v111zM176 247l-116 83v110l209 -155v-81l-209 -162v111z" />
    <glyph glyph-name="onequarter" unicode="&#xbc;" horiz-adv-x="542" 
d="M211 790v-312h-88v215l-56 -38l-41 62l105 73h80zM32 29l393 631l47 -30l-393 -633zM410 -100v41h-136v73l52 198h98l-61 -192h47l10 89h77v-89h18v-79h-18v-41h-87z" />
    <glyph glyph-name="onehalf" unicode="&#xbd;" horiz-adv-x="536" 
d="M213 790v-312h-88v215l-56 -38l-41 62l105 73h80zM31 29l393 631l47 -30l-393 -633zM501 -100l-221 0.000976562v75l79 71c32 27.333 48 50 48 68c0 16.667 -14 25 -42 25l-79 -7l-4 80c44.667 6.66699 84 10 118 10s59 -7.5 75 -22.5s24 -36.5 24 -64.5
s-4.33301 -49.833 -13 -65.5s-23.667 -31.834 -45 -48.501l-49 -42h109v-79z" />
    <glyph glyph-name="threequarters" unicode="&#xbe;" horiz-adv-x="556" 
d="M151 800c76 0 114.001 -28.667 114.001 -86c0 -35.333 -11.333 -59.333 -34 -72c27.333 -10.667 41 -35.667 41 -75c0 -66 -37.667 -99 -113 -99l-118 8l6 77c39.333 -4.66699 71.5 -7 96.5 -7s37.5 9.33301 37.5 28c0 17.333 -11.667 26 -35 26h-66v72h65
c8 0 14.667 2.33301 20 7s8 11 8 19c0 16 -11.667 24 -35 24l-87 -6l-6 75c43.333 6 78.666 9 105.999 9zM47.001 29l393 631l47 -30l-393 -633zM426.001 -100v41h-136v73l52 198h98l-61 -192h47l10 89h77v-89h18v-79h-18v-41h-87z" />
    <glyph glyph-name="questiondown" unicode="&#xbf;" horiz-adv-x="437" 
d="M32 -34c0 44.667 5.50195 78.666 16.502 101.999s33.5 48.333 67.5 75s56.5 47.834 67.5 63.501s16.5 32.5 16.5 50.5v33h88c16 -20.667 24 -46.667 24 -78c0 -16.667 -6.33301 -33.334 -19 -50.001s-35.334 -38.5 -68.001 -65.5s-54.334 -48 -65.001 -63
s-16 -34.833 -16 -59.5c0 -48.667 35.333 -73 106 -73c40 0 82 4.66699 126 14l23 5l6 -83c-62 -22 -118.333 -33 -169 -33c-70 0 -121.5 12.833 -154.5 38.5s-49.5 66.834 -49.5 123.501zM305.002 499.999v-140h-116v140h116z" />
    <glyph glyph-name="Agrave" unicode="&#xc0;" horiz-adv-x="599" 
d="M20 0l169 685h221l170 -685h-112l-37 147h-263l-37 -147h-111zM275 592l-85 -347h219l-84 347h-50zM186 939l236 -103l-28 -76l-243 82z" />
    <glyph glyph-name="Aacute" unicode="&#xc1;" horiz-adv-x="599" 
d="M20 0l169 685h221l170 -685h-112l-37 147h-263l-37 -147h-111zM275 592l-85 -347h219l-84 347h-50zM172 836l236 103l35 -97l-243 -82z" />
    <glyph glyph-name="Acircumflex" unicode="&#xc2;" horiz-adv-x="599" 
d="M20 0l169 685h221l170 -685h-112l-37 147h-263l-37 -147h-111zM275 592l-85 -347h219l-84 347h-50zM117 776l134 143h94l134 -143h-116l-64 67l-65 -67h-117z" />
    <glyph glyph-name="Atilde" unicode="&#xc3;" horiz-adv-x="599" 
d="M20 0l169 685h221l170 -685h-112l-37 147h-263l-37 -147h-111zM275 592l-85 -347h219l-84 347h-50zM376 777c-16 0 -45.001 8.33301 -87.001 25s-67.333 25 -76 25c-16.667 0 -38 -11 -64 -33l-13 -11l-24 78l15.5 17.5c6.33301 7 18.333 16.167 36 27.5
s35.167 17 52.5 17s46.5 -8.33301 87.5 -25s65.167 -25 72.5 -25c14.667 0 35.334 11 62.001 33l14 11l24 -79c-10 -14 -25.167 -27.667 -45.5 -41s-38.5 -20 -54.5 -20z" />
    <glyph glyph-name="Adieresis" unicode="&#xc4;" horiz-adv-x="599" 
d="M20 0l169 685h221l170 -685h-112l-37 147h-263l-37 -147h-111zM275 592l-85 -347h219l-84 347h-50zM142 783v114h104v-114h-104zM351 783v114h104v-114h-104z" />
    <glyph glyph-name="Aring" unicode="&#xc5;" horiz-adv-x="599" 
d="M436 731c0 -25.333 -7 -47.666 -21 -66.999l165 -664h-112l-37 147h-263l-37 -147h-111l164 664c-14 19.333 -21 41.666 -21 66.999c0 36 13 64.5 39 85.5s58.5 31.5 97.5 31.5s71.5 -10.5 97.5 -31.5s39 -49.5 39 -85.5zM275 592l-85 -347h219l-84 347h-50zM239 731
c0 -14.667 5.33301 -26 16 -34s25.334 -12 44.001 -12s33.5 4 44.5 12s16.5 19.333 16.5 34s-5.5 26.167 -16.5 34.5s-25.833 12.5 -44.5 12.5s-33.334 -4.16699 -44.001 -12.5s-16 -19.833 -16 -34.5z" />
    <glyph glyph-name="AE" unicode="&#xc6;" horiz-adv-x="873" 
d="M399 0v142h-229l-42 -142h-113l202 693h612v-107h-320v-181h260v-105h-260v-193h320v-107h-430zM296 586l-98 -337h201l1 337h-104z" />
    <glyph glyph-name="Ccedilla" unicode="&#xc7;" horiz-adv-x="544" 
d="M409 -60c18.667 -11.333 28.001 -34.0029 28.001 -68.0029s-9.16699 -59.667 -27.5 -77s-43.833 -26 -76.5 -26c-25.333 0 -51 2.33301 -77 7l-13 3l4 65c22.667 -1.33301 41 -2 55 -2c27.333 0 41 10.333 41 31c0 10 -3.16699 17 -9.5 21s-16.833 6 -31.5 6h-31v91
c-84 6 -141.5 36.833 -172.5 92.5s-46.5 144.834 -46.5 267.501s18 210.834 54 264.501s103.667 80.5 203 80.5c59.333 0 124.666 -8.33301 195.999 -25l-4 -90c-60 10.667 -120 16 -180 16s-100.667 -17.833 -122 -53.5s-32 -102.667 -32 -201s10.333 -165.333 31 -201
s61 -53.5 121 -53.5s120.667 5 182 15l3 -92c-61.333 -13.333 -123.333 -20.666 -186 -21.999v-31c42 -0.666992 72.333 -6.66699 91 -18z" />
    <glyph glyph-name="Egrave" unicode="&#xc8;" horiz-adv-x="553" 
d="M79 0v685h432v-97h-321v-194h261v-96h-261v-200h321v-98h-432zM187 939l236 -103l-28 -76l-243 82z" />
    <glyph glyph-name="Eacute" unicode="&#xc9;" horiz-adv-x="553" 
d="M79 0v685h432v-97h-321v-194h261v-96h-261v-200h321v-98h-432zM164 836l236 103l35 -97l-243 -82z" />
    <glyph glyph-name="Ecircumflex" unicode="&#xca;" horiz-adv-x="553" 
d="M79 0v685h432v-97h-321v-194h261v-96h-261v-200h321v-98h-432zM115 776l134 143h94l134 -143h-116l-64 67l-65 -67h-117z" />
    <glyph glyph-name="Edieresis" unicode="&#xcb;" horiz-adv-x="553" 
d="M79 0v685h432v-97h-321v-194h261v-96h-261v-200h321v-98h-432zM138 783v114h104v-114h-104zM347 783v114h104v-114h-104z" />
    <glyph glyph-name="Igrave" unicode="&#xcc;" horiz-adv-x="269" 
d="M79 0v685h111v-685h-111zM12 939l236 -103l-28 -76l-243 82z" />
    <glyph glyph-name="Iacute" unicode="&#xcd;" horiz-adv-x="269" 
d="M79 0v685h111v-685h-111zM10 836l236 103l35 -97l-243 -82z" />
    <glyph glyph-name="Icircumflex" unicode="&#xce;" horiz-adv-x="269" 
d="M79 0v685h111v-685h-111zM-49 776l134 143h94l134 -143h-116l-64 67l-65 -67h-117z" />
    <glyph glyph-name="Idieresis" unicode="&#xcf;" horiz-adv-x="269" 
d="M79 0v685h111v-685h-111zM-22 783v114h104v-114h-104zM187 783v114h104v-114h-104z" />
    <glyph glyph-name="Eth" unicode="&#xd0;" horiz-adv-x="644" 
d="M23 292v106h60v295h235c108 0 181.667 -29 221 -87c20 -30 34 -64.5 42 -103.5s12 -87.333 12 -145s-3.83301 -107 -11.5 -148s-21.167 -78.167 -40.5 -111.5c-38.667 -65.333 -113 -98 -223 -98h-235v292h-60zM478 359c0 79.333 -10.5 137.167 -31.5 173.5
s-63.833 54.5 -128.5 54.5h-125v-189h142v-106h-142v-186h125c66.667 0 110.667 24.333 132 73c11.333 24.667 18.833 50.667 22.5 78s5.5 61.333 5.5 102z" />
    <glyph glyph-name="Ntilde" unicode="&#xd1;" horiz-adv-x="686" 
d="M79 0v685h194l208 -587h15v587h111v-685h-190l-213 588h-14v-588h-111zM421 777c-16 0 -45 8.33301 -87 25s-67.333 25 -76 25c-16.667 0 -38 -11 -64 -33l-13 -11l-24 78l15.5 17.5c6.33301 7 18.333 16.167 36 27.5s35.167 17 52.5 17s46.5 -8.33301 87.5 -25
s65.167 -25 72.5 -25c14.667 0 35.667 11 63 33l13 11l24 -79c-10 -14 -25.167 -27.667 -45.5 -41s-38.5 -20 -54.5 -20z" />
    <glyph glyph-name="Ograve" unicode="&#xd2;" horiz-adv-x="656" 
d="M328 86c64 0 107.167 19.3311 129.5 57.998s33.5 103.5 33.5 194.5s-11.5 157.167 -34.5 198.5s-65.833 62 -128.5 62s-105.667 -20.667 -129 -62s-35 -107.166 -35 -197.499s11.333 -155.166 34 -194.499s66 -59 130 -59zM328 -11.002
c-103.333 0 -175.668 28.165 -217.001 84.498s-62 144.833 -62 265.5s20.833 210.334 62.5 269.001s113.834 88 216.501 88s174.667 -29.167 216 -87.5s62 -148.166 62 -269.499s-20.5 -210 -61.5 -266s-113.167 -84 -216.5 -84zM213.998 938.996l236 -103l-28 -76l-243 82z
" />
    <glyph glyph-name="Oacute" unicode="&#xd3;" horiz-adv-x="656" 
d="M328 86c64 0 107.167 19.3311 129.5 57.998s33.5 103.5 33.5 194.5s-11.5 157.167 -34.5 198.5s-65.833 62 -128.5 62s-105.667 -20.667 -129 -62s-35 -107.166 -35 -197.499s11.333 -155.166 34 -194.499s66 -59 130 -59zM328 -11.002
c-103.333 0 -175.668 28.165 -217.001 84.498s-62 144.833 -62 265.5s20.833 210.334 62.5 269.001s113.834 88 216.501 88s174.667 -29.167 216 -87.5s62 -148.166 62 -269.499s-20.5 -210 -61.5 -266s-113.167 -84 -216.5 -84zM180.998 835.996l236 103l35 -97l-243 -82z
" />
    <glyph glyph-name="Ocircumflex" unicode="&#xd4;" horiz-adv-x="656" 
d="M328 86c64 0 107.167 19.3311 129.5 57.998s33.5 103.5 33.5 194.5s-11.5 157.167 -34.5 198.5s-65.833 62 -128.5 62s-105.667 -20.667 -129 -62s-35 -107.166 -35 -197.499s11.333 -155.166 34 -194.499s66 -59 130 -59zM328 -11.002
c-103.333 0 -175.668 28.165 -217.001 84.498s-62 144.833 -62 265.5s20.833 210.334 62.5 269.001s113.834 88 216.501 88s174.667 -29.167 216 -87.5s62 -148.166 62 -269.499s-20.5 -210 -61.5 -266s-113.167 -84 -216.5 -84zM147.998 775.996l134 143h94l134 -143h-116
l-64 67l-65 -67h-117z" />
    <glyph glyph-name="Otilde" unicode="&#xd5;" horiz-adv-x="656" 
d="M328 86c64 0 107.167 19.3311 129.5 57.998s33.5 103.5 33.5 194.5s-11.5 157.167 -34.5 198.5s-65.833 62 -128.5 62s-105.667 -20.667 -129 -62s-35 -107.166 -35 -197.499s11.333 -155.166 34 -194.499s66 -59 130 -59zM328 -11.002
c-103.333 0 -175.668 28.165 -217.001 84.498s-62 144.833 -62 265.5s20.833 210.334 62.5 269.001s113.834 88 216.501 88s174.667 -29.167 216 -87.5s62 -148.166 62 -269.499s-20.5 -210 -61.5 -266s-113.167 -84 -216.5 -84zM407.998 776.996
c-16 0 -45.001 8.33301 -87.001 25s-67.333 25 -76 25c-16.667 0 -38 -11 -64 -33l-13 -11l-24 78l15.5 17.5c6.33301 7 18.333 16.167 36 27.5s35.167 17 52.5 17s46.5 -8.33301 87.5 -25s65.167 -25 72.5 -25c14.667 0 35.334 11 62.001 33l14 11l24 -79
c-10 -14 -25.167 -27.667 -45.5 -41s-38.5 -20 -54.5 -20z" />
    <glyph glyph-name="Odieresis" unicode="&#xd6;" horiz-adv-x="656" 
d="M328 86c64 0 107.167 19.3311 129.5 57.998s33.5 103.5 33.5 194.5s-11.5 157.167 -34.5 198.5s-65.833 62 -128.5 62s-105.667 -20.667 -129 -62s-35 -107.166 -35 -197.499s11.333 -155.166 34 -194.499s66 -59 130 -59zM328 -11.002
c-103.333 0 -175.668 28.165 -217.001 84.498s-62 144.833 -62 265.5s20.833 210.334 62.5 269.001s113.834 88 216.501 88s174.667 -29.167 216 -87.5s62 -148.166 62 -269.499s-20.5 -210 -61.5 -266s-113.167 -84 -216.5 -84zM171.998 782.996v114h104v-114h-104z
M380.998 782.996v114h104v-114h-104z" />
    <glyph glyph-name="multiply" unicode="&#xd7;" 
d="M132 467l148 -150l149 151l68 -69l-151 -149l151 -148l-69 -69l-148 151l-148 -151l-70 69l151 148l-150 148z" />
    <glyph glyph-name="Oslash" unicode="&#xd8;" horiz-adv-x="656" 
d="M328 -11c-40 0 -75.668 3.99805 -107.001 11.998l-57 -123l-80 39l58 124c-62 50 -93 149.333 -93 298c0 120.667 20.833 210.334 62.5 269.001s113.834 88 216.501 88c40.667 0 78 -5.33301 112 -16l58 125l82 -35l-62 -133c58.667 -53.333 88 -152.666 88 -297.999
c0 -121.333 -20.5 -210 -61.5 -266s-113.167 -84 -216.5 -84zM198.999 536.998c-23.333 -41.333 -35 -106.667 -35 -196s10 -152.333 30 -189l203 436c-20 7.33301 -43 11 -69 11c-62.667 0 -105.667 -20.667 -129 -62zM327.999 85.9971c64 0 107.167 19.333 129.5 58
s33.5 101.5 33.5 188.5s-9 150.167 -27 189.5l-199 -428c19.333 -5.33301 40.333 -8 63 -8z" />
    <glyph glyph-name="Ugrave" unicode="&#xd9;" horiz-adv-x="650" 
d="M185 219c0 -88.667 46.667 -133 140 -133s140 44.333 140 133v466h112v-464c0 -80.667 -21.167 -139.5 -63.5 -176.5s-105.333 -55.5 -189 -55.5s-146.5 18.5 -188.5 55.5s-63 95.833 -63 176.5v464h112v-466zM219 939l236 -103l-28 -76l-243 82z" />
    <glyph glyph-name="Uacute" unicode="&#xda;" horiz-adv-x="650" 
d="M185 219c0 -88.667 46.667 -133 140 -133s140 44.333 140 133v466h112v-464c0 -80.667 -21.167 -139.5 -63.5 -176.5s-105.333 -55.5 -189 -55.5s-146.5 18.5 -188.5 55.5s-63 95.833 -63 176.5v464h112v-466zM185 836l236 103l35 -97l-243 -82z" />
    <glyph glyph-name="Ucircumflex" unicode="&#xdb;" horiz-adv-x="650" 
d="M185 219c0 -88.667 46.667 -133 140 -133s140 44.333 140 133v466h112v-464c0 -80.667 -21.167 -139.5 -63.5 -176.5s-105.333 -55.5 -189 -55.5s-146.5 18.5 -188.5 55.5s-63 95.833 -63 176.5v464h112v-466zM144 776l134 143h94l134 -143h-116l-64 67l-65 -67h-117z
" />
    <glyph glyph-name="Udieresis" unicode="&#xdc;" horiz-adv-x="650" 
d="M185 219c0 -88.667 46.667 -133 140 -133s140 44.333 140 133v466h112v-464c0 -80.667 -21.167 -139.5 -63.5 -176.5s-105.333 -55.5 -189 -55.5s-146.5 18.5 -188.5 55.5s-63 95.833 -63 176.5v464h112v-466zM169 783v114h104v-114h-104zM378 783v114h104v-114h-104z
" />
    <glyph glyph-name="Yacute" unicode="&#xdd;" horiz-adv-x="549" 
d="M331 0h-112v282l-215 403h125l145 -294l146 294h124l-213 -403v-282zM148 836l236 103l35 -97l-243 -82z" />
    <glyph glyph-name="Thorn" unicode="&#xde;" horiz-adv-x="597" 
d="M329 216c40.667 0 71.167 12.332 91.5 36.999s30.5 58.834 30.5 102.501s-10 75.667 -30 96s-50.667 30.5 -92 30.5h-139v-266h139zM330 107.999l-139.999 -0.000976562v-108h-111v693h111v-105h140c156 0 234 -77 234 -231c0 -79.333 -19.833 -140.666 -59.5 -183.999
s-97.834 -65 -174.501 -65z" />
    <glyph glyph-name="germandbls" unicode="&#xdf;" horiz-adv-x="595" 
d="M175 0h-108.995v532c0 68 16.667 116.167 50 144.5s87.666 42.5 162.999 42.5s130.333 -11.833 165 -35.5s52 -62.5 52 -116.5c0 -35.333 -6.83301 -61.833 -20.5 -79.5s-34.5 -32.834 -62.5 -45.501s-45.667 -22 -53 -28s-11 -13.667 -11 -23s5.5 -18.166 16.5 -26.499
s38.167 -22.833 81.5 -43.5s74.166 -41.334 92.499 -62.001s27.5 -50.334 27.5 -89.001c0 -67.333 -15.333 -114.333 -46 -141s-82.667 -40 -156 -40c-38 0 -78.333 4.66699 -121 14l-23 5l4 88c61.333 -7.33301 107.666 -11 138.999 -11c60.667 0 91 23 91 69
c0 20 -5.83301 35.333 -17.5 46s-38.834 26 -81.501 46c-44.667 19.333 -75.667 38.833 -93 58.5s-26 44.667 -26 75s6 53.833 18 70.5s31.833 30.834 59.5 42.501s46.167 22.167 55.5 31.5s14 23.333 14 42s-7.33301 32.834 -22 42.501s-41.834 14.5 -81.501 14.5
s-67.167 -7 -82.5 -21s-23 -39 -23 -75v-527z" />
    <glyph glyph-name="agrave" unicode="&#xe0;" horiz-adv-x="507" 
d="M436 346v-228.004c0.666992 -14.667 4.5 -25.5 11.5 -32.5s17.833 -11.5 32.5 -13.5l-3 -83c-57.333 0 -101.666 12.333 -132.999 37c-53.333 -24.667 -107 -37 -161 -37c-99.333 0 -149 53 -149 159c0 50.667 13.5 87.334 40.5 110.001s68.5 36.334 124.5 41.001l129 11
v36c0 26.667 -5.83301 45.334 -17.5 56.001s-28.834 16 -51.501 16c-42.667 0 -96 -2.66699 -160 -8l-32 -2l-4 77c72.667 17.333 139.5 26 200.5 26s105 -13.167 132 -39.5s40.5 -68.166 40.5 -125.499zM212 221.996c-46 -4 -68.999 -29 -68.999 -75s20.333 -69 61 -69
c33.333 0 68.666 5.33301 105.999 16l18 6v133zM145.001 747.996l236 -101l-26 -71l-244 78z" />
    <glyph glyph-name="aacute" unicode="&#xe1;" horiz-adv-x="507" 
d="M436 346v-228.004c0.666992 -14.667 4.5 -25.5 11.5 -32.5s17.833 -11.5 32.5 -13.5l-3 -83c-57.333 0 -101.666 12.333 -132.999 37c-53.333 -24.667 -107 -37 -161 -37c-99.333 0 -149 53 -149 159c0 50.667 13.5 87.334 40.5 110.001s68.5 36.334 124.5 41.001l129 11
v36c0 26.667 -5.83301 45.334 -17.5 56.001s-28.834 16 -51.501 16c-42.667 0 -96 -2.66699 -160 -8l-32 -2l-4 77c72.667 17.333 139.5 26 200.5 26s105 -13.167 132 -39.5s40.5 -68.166 40.5 -125.499zM212 221.996c-46 -4 -68.999 -29 -68.999 -75s20.333 -69 61 -69
c33.333 0 68.666 5.33301 105.999 16l18 6v133zM105.001 646.996l236 101l34 -94l-244 -78z" />
    <glyph glyph-name="acircumflex" unicode="&#xe2;" horiz-adv-x="507" 
d="M436 346v-228.004c0.666992 -14.667 4.5 -25.5 11.5 -32.5s17.833 -11.5 32.5 -13.5l-3 -83c-57.333 0 -101.666 12.333 -132.999 37c-53.333 -24.667 -107 -37 -161 -37c-99.333 0 -149 53 -149 159c0 50.667 13.5 87.334 40.5 110.001s68.5 36.334 124.5 41.001l129 11
v36c0 26.667 -5.83301 45.334 -17.5 56.001s-28.834 16 -51.501 16c-42.667 0 -96 -2.66699 -160 -8l-32 -2l-4 77c72.667 17.333 139.5 26 200.5 26s105 -13.167 132 -39.5s40.5 -68.166 40.5 -125.499zM212 221.996c-46 -4 -68.999 -29 -68.999 -75s20.333 -69 61 -69
c33.333 0 68.666 5.33301 105.999 16l18 6v133zM88.001 584.996l125 146h69l127 -146h-102l-58 76l-58 -76h-103z" />
    <glyph glyph-name="atilde" unicode="&#xe3;" horiz-adv-x="507" 
d="M436 346v-228.004c0.666992 -14.667 4.5 -25.5 11.5 -32.5s17.833 -11.5 32.5 -13.5l-3 -83c-57.333 0 -101.666 12.333 -132.999 37c-53.333 -24.667 -107 -37 -161 -37c-99.333 0 -149 53 -149 159c0 50.667 13.5 87.334 40.5 110.001s68.5 36.334 124.5 41.001l129 11
v36c0 26.667 -5.83301 45.334 -17.5 56.001s-28.834 16 -51.501 16c-42.667 0 -96 -2.66699 -160 -8l-32 -2l-4 77c72.667 17.333 139.5 26 200.5 26s105 -13.167 132 -39.5s40.5 -68.166 40.5 -125.499zM212 221.996c-46 -4 -68.999 -29 -68.999 -75s20.333 -69 61 -69
c33.333 0 68.666 5.33301 105.999 16l18 6v133zM342.501 612.996c-17 -10.667 -32.499 -16 -46.499 -16s-37.167 6.66699 -69.5 20s-53.166 20 -62.499 20c-16 0 -37 -8.33301 -63 -25l-13 -9l-24 63l16 16c6 6 17.667 14.167 35 24.5s33.166 15.5 47.499 15.5
s37.666 -6.66699 69.999 -20s52.5 -20 60.5 -20c14.667 0 35.667 9 63 27l13 9l24 -64l-15 -16c-6.66699 -6 -18.5 -14.333 -35.5 -25z" />
    <glyph glyph-name="adieresis" unicode="&#xe4;" horiz-adv-x="507" 
d="M436 346v-228.004c0.666992 -14.667 4.5 -25.5 11.5 -32.5s17.833 -11.5 32.5 -13.5l-3 -83c-57.333 0 -101.666 12.333 -132.999 37c-53.333 -24.667 -107 -37 -161 -37c-99.333 0 -149 53 -149 159c0 50.667 13.5 87.334 40.5 110.001s68.5 36.334 124.5 41.001l129 11
v36c0 26.667 -5.83301 45.334 -17.5 56.001s-28.834 16 -51.501 16c-42.667 0 -96 -2.66699 -160 -8l-32 -2l-4 77c72.667 17.333 139.5 26 200.5 26s105 -13.167 132 -39.5s40.5 -68.166 40.5 -125.499zM212 221.996c-46 -4 -68.999 -29 -68.999 -75s20.333 -69 61 -69
c33.333 0 68.666 5.33301 105.999 16l18 6v133zM83.001 606.996v114h104v-114h-104zM292.001 606.996v114h104v-114h-104z" />
    <glyph glyph-name="aring" unicode="&#xe5;" horiz-adv-x="507" 
d="M436 346v-228.004c0.666992 -14.667 4.5 -25.5 11.5 -32.5s17.833 -11.5 32.5 -13.5l-3 -83c-57.333 0 -101.666 12.333 -132.999 37c-53.333 -24.667 -107 -37 -161 -37c-99.333 0 -149 53 -149 159c0 50.667 13.5 87.334 40.5 110.001s68.5 36.334 124.5 41.001l129 11
v36c0 26.667 -5.83301 45.334 -17.5 56.001s-28.834 16 -51.501 16c-42.667 0 -96 -2.66699 -160 -8l-32 -2l-4 77c72.667 17.333 139.5 26 200.5 26s105 -13.167 132 -39.5s40.5 -68.166 40.5 -125.499zM212 221.996c-46 -4 -68.999 -29 -68.999 -75s20.333 -69 61 -69
c33.333 0 68.666 5.33301 105.999 16l18 6v133zM181.001 561.496c-21.333 21 -32 47.333 -32 79s10.667 58.167 32 79.5s47.666 32 78.999 32s57.833 -10.833 79.5 -32.5s32.5 -48.167 32.5 -79.5s-10.833 -57.5 -32.5 -78.5s-48.167 -31.5 -79.5 -31.5
s-57.666 10.5 -78.999 31.5zM225.001 676.496c-9.33301 -9.66699 -14 -21.667 -14 -36s4.66699 -26.333 14 -36s21.166 -14.5 35.499 -14.5s26.166 4.83301 35.499 14.5s14 21.667 14 36s-4.66699 26.333 -14 36s-21.166 14.5 -35.499 14.5s-26.166 -4.83301 -35.499 -14.5z
" />
    <glyph glyph-name="ae" unicode="&#xe6;" horiz-adv-x="793" 
d="M706 94l29.001 3l2 -85c-76.667 -15.333 -146.334 -23 -209.001 -23s-110.667 16.667 -144 50l-27 -12c-57.333 -25.333 -117.333 -38 -180 -38c-46.667 0 -82.167 14 -106.5 42s-36.5 67.833 -36.5 119.5s14.167 88.5 42.5 110.5s73.166 35.333 134.499 40l117 9v32
c0 21.333 -5.83301 37.5 -17.5 48.5s-28.167 16.5 -49.5 16.5c-50 0 -103 -2.66699 -159 -8l-32 -3l-4 96c84.667 12 155 18 211 18s97 -17.333 123 -52c32.667 34.667 82.334 52 149.001 52c136 0 204 -76 204 -228l-7 -79h-310c0.666992 -40 9.66699 -69.167 27 -87.5
s49.833 -27.5 97.5 -27.5s96.167 2 145.5 6zM197.001 82c30 0 60 3.83301 90 11.5s46 12.167 48 13.5c-5.33301 31.333 -8 71 -8 119l-115 -8c-46 -3.33301 -69 -26.833 -69 -70.5s18 -65.5 54 -65.5zM436.001 288l210 0.000976562c0 45.333 -8 77.666 -24 96.999
s-42.5 29 -79.5 29s-64 -10 -81 -30s-25.5 -52 -25.5 -96z" />
    <glyph glyph-name="ccedilla" unicode="&#xe7;" horiz-adv-x="442" 
d="M343 -60c18.667 -11.333 27.999 -34 27.999 -68s-9.16699 -59.667 -27.5 -77s-43.833 -26 -76.5 -26c-25.333 0 -51 2.33301 -77 7l-13 3l4 65c22.667 -1.33301 41 -2 55 -2c27.333 0 41 10.333 41 31c0 10 -3.16699 17 -9.5 21s-16.833 6 -31.5 6h-31v92
c-58.667 7.33301 -100.167 31.5 -124.5 72.5s-36.5 105.833 -36.5 194.5s16.333 152.834 49 192.501s86 59.5 160 59.5c35.333 0 77 -4.66699 125 -14l25 -5l-4 -86c-52.667 5.33301 -91.667 8 -117 8c-50.667 0 -84.667 -11.333 -102 -34s-26 -65.334 -26 -128.001
s8.33301 -106 25 -130s51.334 -36 104.001 -36l117 8l3 -87c-66.667 -12 -117 -18 -151 -18v-31c42 -0.666992 72.333 -6.66699 91 -18z" />
    <glyph glyph-name="egrave" unicode="&#xe8;" horiz-adv-x="508" 
d="M422 90l28.001 2.99902l2 -81c-76 -15.333 -143.333 -23 -202 -23c-74 0 -127.167 20.333 -159.5 61s-48.5 105.667 -48.5 195c0 177.333 72.333 266 217 266c140 0 210 -76.333 210 -229l-7 -78h-310c0.666992 -41.333 9.66699 -71.666 27 -90.999
s49.666 -29 96.999 -29s96 2 146 6zM362.001 287.999c0 49.333 -7.83301 83.833 -23.5 103.5s-42.167 29.5 -79.5 29.5s-64.5 -10.333 -81.5 -31s-25.833 -54.667 -26.5 -102h211zM149.001 747.999l236 -101l-26 -71l-244 78z" />
    <glyph glyph-name="eacute" unicode="&#xe9;" horiz-adv-x="508" 
d="M422 90l28.001 2.99902l2 -81c-76 -15.333 -143.333 -23 -202 -23c-74 0 -127.167 20.333 -159.5 61s-48.5 105.667 -48.5 195c0 177.333 72.333 266 217 266c140 0 210 -76.333 210 -229l-7 -78h-310c0.666992 -41.333 9.66699 -71.666 27 -90.999
s49.666 -29 96.999 -29s96 2 146 6zM362.001 287.999c0 49.333 -7.83301 83.833 -23.5 103.5s-42.167 29.5 -79.5 29.5s-64.5 -10.333 -81.5 -31s-25.833 -54.667 -26.5 -102h211zM122.001 646.999l236 101l34 -94l-244 -78z" />
    <glyph glyph-name="ecircumflex" unicode="&#xea;" horiz-adv-x="508" 
d="M422 90l28.001 2.99902l2 -81c-76 -15.333 -143.333 -23 -202 -23c-74 0 -127.167 20.333 -159.5 61s-48.5 105.667 -48.5 195c0 177.333 72.333 266 217 266c140 0 210 -76.333 210 -229l-7 -78h-310c0.666992 -41.333 9.66699 -71.666 27 -90.999
s49.666 -29 96.999 -29s96 2 146 6zM362.001 287.999c0 49.333 -7.83301 83.833 -23.5 103.5s-42.167 29.5 -79.5 29.5s-64.5 -10.333 -81.5 -31s-25.833 -54.667 -26.5 -102h211zM99.001 584.999l125 146h69l127 -146h-102l-58 76l-58 -76h-103z" />
    <glyph glyph-name="edieresis" unicode="&#xeb;" horiz-adv-x="508" 
d="M422 90l28.001 2.99902l2 -81c-76 -15.333 -143.333 -23 -202 -23c-74 0 -127.167 20.333 -159.5 61s-48.5 105.667 -48.5 195c0 177.333 72.333 266 217 266c140 0 210 -76.333 210 -229l-7 -78h-310c0.666992 -41.333 9.66699 -71.666 27 -90.999
s49.666 -29 96.999 -29s96 2 146 6zM362.001 287.999c0 49.333 -7.83301 83.833 -23.5 103.5s-42.167 29.5 -79.5 29.5s-64.5 -10.333 -81.5 -31s-25.833 -54.667 -26.5 -102h211zM100.001 606.999v114h104v-114h-104zM309.001 606.999v114h104v-114h-104z" />
    <glyph glyph-name="igrave" unicode="&#xec;" horiz-adv-x="241" 
d="M66 0v500h109v-500h-109zM-25 748l236 -101l-26 -71l-244 78z" />
    <glyph glyph-name="iacute" unicode="&#xed;" horiz-adv-x="241" 
d="M34 647l236 101l34 -94l-244 -78zM66 500h109v-500h-109v500z" />
    <glyph glyph-name="icircumflex" unicode="&#xee;" horiz-adv-x="241" 
d="M66 500h109v-500h-109v500zM-44 585l125 146h69l127 -146h-102l-58 76l-58 -76h-103z" />
    <glyph glyph-name="idieresis" unicode="&#xef;" horiz-adv-x="241" 
d="M66 500h109v-500h-109v500zM-40 607v114h104v-114h-104zM169 607v114h104v-114h-104z" />
    <glyph glyph-name="eth" unicode="&#xf0;" horiz-adv-x="559" 
d="M377 633c91.333 -60.667 137 -154.5 137 -281.5s-19 -218.833 -57 -275.5s-100.333 -85 -187 -85c-74.667 0 -131.667 18.833 -171 56.5s-59 92 -59 163s18.167 126.167 54.5 165.5s89.5 59 159.5 59c42.667 0 84.667 -7.66699 126 -23l20 -7
c-3.33301 36.667 -13.5 68.5 -30.5 95.5s-44.167 51.167 -81.5 72.5l-124 -83l-45 63l85 57c-29.333 10 -68 20.333 -116 31l17 78c74.667 -10 139 -25.333 193 -46l98 66l46 -63zM261 338c-34.667 0 -61.1689 -11.668 -79.502 -35.001s-27.5 -52.666 -27.5 -87.999
c0 -84 38.667 -126 116 -126c44.667 0 77.334 16.833 98.001 50.5s31.334 90.5 32.001 170.5c-44.667 18.667 -91 28 -139 28z" />
    <glyph glyph-name="ntilde" unicode="&#xf1;" horiz-adv-x="546" 
d="M66 0v500.001h108v-31l20 11c13.333 6.66699 31.5 13.5 54.5 20.5s44.167 10.5 63.5 10.5c66.667 0 112.167 -18.833 136.5 -56.5s36.5 -99.834 36.5 -186.501v-268h-108v265c0 54 -5.83301 92.333 -17.5 115s-36.167 34 -73.5 34s-74.333 -8.66699 -111 -26v-388h-109z
M393.5 613.001c-17 -10.667 -32.499 -16 -46.499 -16s-37.167 6.66699 -69.5 20s-52.833 20 -61.5 20c-16.667 0 -38 -8.33301 -64 -25l-13 -9l-24 63l15 16c6.66699 6 18.667 14.167 36 24.5s33.166 15.5 47.499 15.5s37.666 -6.66699 69.999 -20s52.5 -20 60.5 -20
c14.667 0 35.334 9 62.001 27l14 9l24 -64l-16 -16c-6 -6 -17.5 -14.333 -34.5 -25z" />
    <glyph glyph-name="ograve" unicode="&#xf2;" horiz-adv-x="530" 
d="M265 511c80 0 137.167 -21.667 171.5 -65s51.5 -108.333 51.5 -195s-16.667 -152 -50 -196s-91 -66 -173 -66s-139.667 22 -173 66s-50 109.333 -50 196s17.167 151.667 51.5 195s91.5 65 171.5 65zM265 81c44.667 0 74.667 13.333 90 40s23 70.334 23 131.001
s-8.16699 103.667 -24.5 129s-45.833 38 -88.5 38s-72.167 -12.667 -88.5 -38s-24.5 -68.333 -24.5 -129s7.66699 -104.334 23 -131.001s45.333 -40 90 -40zM165 748l236 -101l-26 -71l-244 78z" />
    <glyph glyph-name="oacute" unicode="&#xf3;" horiz-adv-x="530" 
d="M265 511c80 0 137.167 -21.667 171.5 -65s51.5 -108.333 51.5 -195s-16.667 -152 -50 -196s-91 -66 -173 -66s-139.667 22 -173 66s-50 109.333 -50 196s17.167 151.667 51.5 195s91.5 65 171.5 65zM265 81c44.667 0 74.667 13.333 90 40s23 70.334 23 131.001
s-8.16699 103.667 -24.5 129s-45.833 38 -88.5 38s-72.167 -12.667 -88.5 -38s-24.5 -68.333 -24.5 -129s7.66699 -104.334 23 -131.001s45.333 -40 90 -40zM132 647l236 101l34 -94l-244 -78z" />
    <glyph glyph-name="ocircumflex" unicode="&#xf4;" horiz-adv-x="530" 
d="M265 511c80 0 137.167 -21.667 171.5 -65s51.5 -108.333 51.5 -195s-16.667 -152 -50 -196s-91 -66 -173 -66s-139.667 22 -173 66s-50 109.333 -50 196s17.167 151.667 51.5 195s91.5 65 171.5 65zM265 81c44.667 0 74.667 13.333 90 40s23 70.334 23 131.001
s-8.16699 103.667 -24.5 129s-45.833 38 -88.5 38s-72.167 -12.667 -88.5 -38s-24.5 -68.333 -24.5 -129s7.66699 -104.334 23 -131.001s45.333 -40 90 -40zM100 585l125 146h69l127 -146h-102l-58 76l-58 -76h-103z" />
    <glyph glyph-name="otilde" unicode="&#xf5;" horiz-adv-x="530" 
d="M265 511c80 0 137.167 -21.667 171.5 -65s51.5 -108.333 51.5 -195s-16.667 -152 -50 -196s-91 -66 -173 -66s-139.667 22 -173 66s-50 109.333 -50 196s17.167 151.667 51.5 195s91.5 65 171.5 65zM265 81c44.667 0 74.667 13.333 90 40s23 70.334 23 131.001
s-8.16699 103.667 -24.5 129s-45.833 38 -88.5 38s-72.167 -12.667 -88.5 -38s-24.5 -68.333 -24.5 -129s7.66699 -104.334 23 -131.001s45.333 -40 90 -40zM375.5 613c-17 -10.667 -32.499 -16 -46.499 -16s-37.167 6.66699 -69.5 20s-52.833 20 -61.5 20
c-16.667 0 -38 -8.33301 -64 -25l-13 -9l-24 63l15 16c6.66699 6 18.667 14.167 36 24.5s33.166 15.5 47.499 15.5s37.666 -6.66699 69.999 -20s52.5 -20 60.5 -20c14.667 0 35.334 9 62.001 27l14 9l24 -64l-16 -16c-6 -6 -17.5 -14.333 -34.5 -25z" />
    <glyph glyph-name="odieresis" unicode="&#xf6;" horiz-adv-x="530" 
d="M265 511c80 0 137.167 -21.667 171.5 -65s51.5 -108.333 51.5 -195s-16.667 -152 -50 -196s-91 -66 -173 -66s-139.667 22 -173 66s-50 109.333 -50 196s17.167 151.667 51.5 195s91.5 65 171.5 65zM265 81c44.667 0 74.667 13.333 90 40s23 70.334 23 131.001
s-8.16699 103.667 -24.5 129s-45.833 38 -88.5 38s-72.167 -12.667 -88.5 -38s-24.5 -68.333 -24.5 -129s7.66699 -104.334 23 -131.001s45.333 -40 90 -40zM107 607v114h104v-114h-104zM316 607v114h104v-114h-104z" />
    <glyph glyph-name="divide" unicode="&#xf7;" 
d="M105 241v110h68v77h213v-77h69v-110h-350zM225 23v118h108v-118h-108z" />
    <glyph glyph-name="oslash" unicode="&#xf8;" horiz-adv-x="530" 
d="M265 511c17.333 0 38.667 -1.99805 64 -5.99805l41 101l68 -25l-42 -101c61.333 -36.667 92 -112.334 92 -227.001c0 -88 -16.667 -154 -50 -198s-91 -66 -173 -66c-25.333 0 -48 2 -68 6l-43 -105l-67 25l44 105c-59.333 38 -89 115.667 -89 233
c0 85.333 17.167 149.666 51.5 192.999s91.5 65 171.5 65zM265.001 81.002c44.667 0 74.667 13.333 90 40s23 70.667 23 132s-8.66699 104.333 -26 129l-121 -298c10 -2 21.333 -3 34 -3zM265.001 419.002c-42.667 0 -72.167 -12.667 -88.5 -38s-24.5 -69.5 -24.5 -132.5
s8 -106.167 24 -129.5l119 297c-8.66699 2 -18.667 3 -30 3z" />
    <glyph glyph-name="ugrave" unicode="&#xf9;" horiz-adv-x="543" 
d="M369 500h108v-500h-108v31c-48.667 -28 -93.667 -42 -135 -42c-68.667 0 -114.667 18.5 -138 55.5s-35 101.833 -35 194.5v261h109v-262c0 -60 5 -100.333 15 -121s33.333 -31 70 -31c36 0 69 6.66699 99 20l15 6v388zM139 748l236 -101l-26 -71l-244 78z" />
    <glyph glyph-name="uacute" unicode="&#xfa;" horiz-adv-x="543" 
d="M477 500l-0.000976562 -500h-108v31l-20 -11c-13.333 -6.66699 -31.166 -13.5 -53.499 -20.5s-42.833 -10.5 -61.5 -10.5c-68.667 0 -114.667 18.5 -138 55.5s-35 101.833 -35 194.5v261h109v-262c0 -60 5 -100.333 15 -121s34.167 -31 72.5 -31s75.5 8.66699 111.5 26
v388h108zM140.999 647l236 101l34 -94l-244 -78z" />
    <glyph glyph-name="ucircumflex" unicode="&#xfb;" horiz-adv-x="543" 
d="M477 500l-0.000976562 -500h-108v31l-20 -11c-13.333 -6.66699 -31.166 -13.5 -53.499 -20.5s-42.833 -10.5 -61.5 -10.5c-68.667 0 -114.667 18.5 -138 55.5s-35 101.833 -35 194.5v261h109v-262c0 -60 5 -100.333 15 -121s34.167 -31 72.5 -31s75.5 8.66699 111.5 26
v388h108zM91.999 585l125 146h69l127 -146h-102l-58 76l-58 -76h-103z" />
    <glyph glyph-name="udieresis" unicode="&#xfc;" horiz-adv-x="543" 
d="M477 500l-0.000976562 -500h-108v31l-20 -11c-13.333 -6.66699 -31.166 -13.5 -53.499 -20.5s-42.833 -10.5 -61.5 -10.5c-68.667 0 -114.667 18.5 -138 55.5s-35 101.833 -35 194.5v261h109v-262c0 -60 5 -100.333 15 -121s34.167 -31 72.5 -31s75.5 8.66699 111.5 26
v388h108zM116.999 607v114h104v-114h-104zM325.999 607v114h104v-114h-104z" />
    <glyph glyph-name="yacute" unicode="&#xfd;" horiz-adv-x="492" 
d="M20 500h107l106 -407h27l106 407h108l-190 -715h-107l60 215h-86zM136 647l236 101l34 -94l-244 -78z" />
    <glyph glyph-name="thorn" unicode="&#xfe;" horiz-adv-x="536" 
d="M258 83c49.333 0 82.5 12.999 99.5 38.999s25.5 68.833 25.5 128.5s-7.66699 101.834 -23 126.501s-40 37 -74 37c-31.333 0 -63 -5 -95 -15l-16 -5v-305c35.333 -4 63 -6 83 -6zM299 510.999c69.333 0 119 -19.167 149 -57.5s45 -106 45 -203
s-17.167 -164.833 -51.5 -203.5s-92.833 -58 -175.5 -58l-91 7v-211h-109v923h109v-227c46 20 87.333 30 124 30z" />
    <glyph glyph-name="ydieresis" unicode="&#xff;" horiz-adv-x="492" 
d="M20 500h107l106 -407h27l106 407h108l-190 -715h-107l60 215h-86zM90 607v114h104v-114h-104zM299 607v114h104v-114h-104z" />
    <glyph glyph-name="Amacron" unicode="&#x100;" horiz-adv-x="599" 
d="M20 0l169 685h221l170 -685h-112l-37 147h-263l-37 -147h-111zM275 592l-85 -347h219l-84 347h-50zM131 795v81h332v-81h-332z" />
    <glyph glyph-name="amacron" unicode="&#x101;" horiz-adv-x="507" 
d="M436 346v-228.004c0.666992 -14.667 4.5 -25.5 11.5 -32.5s17.833 -11.5 32.5 -13.5l-3 -83c-57.333 0 -101.666 12.333 -132.999 37c-53.333 -24.667 -107 -37 -161 -37c-99.333 0 -149 53 -149 159c0 50.667 13.5 87.334 40.5 110.001s68.5 36.334 124.5 41.001l129 11
v36c0 26.667 -5.83301 45.334 -17.5 56.001s-28.834 16 -51.501 16c-42.667 0 -96 -2.66699 -160 -8l-32 -2l-4 77c72.667 17.333 139.5 26 200.5 26s105 -13.167 132 -39.5s40.5 -68.166 40.5 -125.499zM212 221.996c-46 -4 -68.999 -29 -68.999 -75s20.333 -69 61 -69
c33.333 0 68.666 5.33301 105.999 16l18 6v133zM109.001 608.996v82h282v-82h-282z" />
    <glyph glyph-name="Abreve" unicode="&#x102;" horiz-adv-x="599" 
d="M20 0l169 685h221l170 -685h-112l-37 147h-263l-37 -147h-111zM275 592l-85 -347h219l-84 347h-50zM244.5 867c13.667 -12 31.167 -18 52.5 -18s38.833 6 52.5 18s21.167 27.667 22.5 47h99c-4 -43.333 -21 -78 -51 -104s-71.167 -39 -123.5 -39s-93.5 13 -123.5 39
s-46.667 60.667 -50 104h99c1.33301 -19.333 8.83301 -35 22.5 -47z" />
    <glyph glyph-name="abreve" unicode="&#x103;" horiz-adv-x="508" 
d="M436 343l-0.000976562 -212c0.666992 -16.667 4.16699 -28.5 10.5 -35.5s17.166 -11.5 32.499 -13.5l-3 -93c-36 0 -63 2.66699 -81 8s-35 14.666 -51 27.999l-24 -9c-16 -6 -37.833 -12 -65.5 -18s-53.5 -9 -77.5 -9c-46 0 -81.333 14 -106 42s-37 67.333 -37 118
s13.333 87.334 40 110.001s68.334 36 125.001 40l129 11v32c0 20.667 -6 36.667 -18 48s-28 17 -48 17c-49.333 0 -113.666 -3.33301 -192.999 -10l-3 93l34 5c68 10 124 15 168 15c56 0 98 -13.167 126 -39.5s42 -68.833 42 -127.5zM196.999 82c38 0 81.667 7.33301 131 22
v122l-116 -8c-46 -2.66699 -69 -26 -69 -70s18 -66 54 -66zM252.999 684c41.333 0 63.6689 18.999 67.002 56.999h112c-3.33301 -46 -20.333 -83 -51 -111s-73.334 -42 -128.001 -42s-97.334 13.833 -128.001 41.5s-48 64.834 -52 111.501h112c4 -38 26.667 -57 68 -57z" />
    <glyph glyph-name="Aogonek" unicode="&#x104;" horiz-adv-x="599" 
d="M504 -91.5c0 -10.333 3.33203 -19.002 9.99902 -26.002s15.334 -10.5 26.001 -10.5l45 5l10 -79c-35.333 -6.66699 -66.833 -10 -94.5 -10s-51 8.33301 -70 25s-28.5 39.334 -28.5 68.001c0 40 22.667 79.667 68 119h-2l-37 147h-263l-37 -147h-111l169 685h221l170 -685
h-14c-14.667 -10 -28.667 -25.167 -42 -45.5s-20 -35.666 -20 -45.999zM274.999 591.998l-85 -347h219l-84 347h-50z" />
    <glyph glyph-name="aogonek" unicode="&#x105;" horiz-adv-x="506" 
d="M436 346v-228.002c0.666992 -14.667 4.5 -25.5 11.5 -32.5s17.833 -11.5 32.5 -13.5l-3 -83c-16.667 0 -28.667 0.333008 -36 1c-34.667 -34.667 -52 -61.334 -52 -80.001c0 -11.333 3.33301 -20.5 10 -27.5s15.334 -10.5 26.001 -10.5l45 5l10 -79
c-35.333 -6.66699 -66.833 -10 -94.5 -10s-51 8.33301 -70 25s-28.5 37.5 -28.5 62.5s6.83301 48.167 20.5 69.5s27.167 37.666 40.5 48.999l20 16c-8.66699 4.66699 -16.667 10 -24 16c-53.333 -24.667 -107 -37 -161 -37c-99.333 0 -149 53 -149 159
c0 50.667 13.5 87.334 40.5 110.001s68.5 36.334 124.5 41.001l129 11v36c0 26.667 -5.83301 45.334 -17.5 56.001s-28.834 16 -51.501 16c-42.667 0 -96 -2.66699 -160 -8l-32 -2l-4 77c72.667 17.333 139.5 26 200.5 26s105 -13.167 132 -39.5s40.5 -68.166 40.5 -125.499
zM212 221.998c-46 -4 -68.999 -29 -68.999 -75s20.333 -69 61 -69c33.333 0 68.666 5.33301 105.999 16l18 6v133z" />
    <glyph glyph-name="Cacute" unicode="&#x106;" horiz-adv-x="544" 
d="M309 -11c-100 0 -167.832 27.666 -203.499 82.999s-53.5 146.333 -53.5 273s18 216.834 54 270.501s103.667 80.5 203 80.5c59.333 0 124.666 -8.33301 195.999 -25l-4 -90c-60 10.667 -120 16 -180 16s-100.667 -17.833 -122 -53.5s-32 -102.667 -32 -201
s10.333 -165.333 31 -201s61 -53.5 121 -53.5s120.667 5 182 15l3 -92c-68.667 -14.667 -133.667 -22 -195 -22zM162.001 835.999l236 103l35 -97l-243 -82z" />
    <glyph glyph-name="cacute" unicode="&#x107;" horiz-adv-x="442" 
d="M253 511c35.333 0 76.999 -4.66602 124.999 -13.999l25 -5l-4 -86c-52.667 5.33301 -91.667 8 -117 8c-50.667 0 -84.667 -11.333 -102 -34s-26 -65.334 -26 -128.001s8.33301 -106 25 -130s51.334 -36 104.001 -36l117 8l3 -87c-67.333 -12 -118 -18 -152 -18
c-76 0 -129.5 20.5 -160.5 61.5s-46.5 108.167 -46.5 201.5s16.333 159.833 49 199.5s86 59.5 160 59.5zM109.999 647.001l236 101l34 -94l-244 -78z" />
    <glyph glyph-name="Ccircumflex" unicode="&#x108;" horiz-adv-x="544" 
d="M309 -11c-100 0 -167.832 27.666 -203.499 82.999s-53.5 146.333 -53.5 273s18 216.834 54 270.501s103.667 80.5 203 80.5c59.333 0 124.666 -8.33301 195.999 -25l-4 -90c-60 10.667 -120 16 -180 16s-100.667 -17.833 -122 -53.5s-32 -102.667 -32 -201
s10.333 -165.333 31 -201s61 -53.5 121 -53.5s120.667 5 182 15l3 -92c-68.667 -14.667 -133.667 -22 -195 -22zM123.001 775.999l134 143h94l134 -143h-116l-64 67l-65 -67h-117z" />
    <glyph glyph-name="ccircumflex" unicode="&#x109;" horiz-adv-x="442" 
d="M253 511c35.333 0 76.999 -4.66602 124.999 -13.999l25 -5l-4 -86c-52.667 5.33301 -91.667 8 -117 8c-50.667 0 -84.667 -11.333 -102 -34s-26 -65.334 -26 -128.001s8.33301 -106 25 -130s51.334 -36 104.001 -36l117 8l3 -87c-67.333 -12 -118 -18 -152 -18
c-76 0 -129.5 20.5 -160.5 61.5s-46.5 108.167 -46.5 201.5s16.333 159.833 49 199.5s86 59.5 160 59.5zM65.999 585.001l125 146h69l127 -146h-102l-58 76l-58 -76h-103z" />
    <glyph glyph-name="Cdotaccent" unicode="&#x10a;" horiz-adv-x="544" 
d="M309 -11c-100 0 -167.832 27.666 -203.499 82.999s-53.5 146.333 -53.5 273s18 216.834 54 270.501s103.667 80.5 203 80.5c59.333 0 124.666 -8.33301 195.999 -25l-4 -90c-60 10.667 -120 16 -180 16s-100.667 -17.833 -122 -53.5s-32 -102.667 -32 -201
s10.333 -165.333 31 -201s61 -53.5 121 -53.5s120.667 5 182 15l3 -92c-68.667 -14.667 -133.667 -22 -195 -22zM235.001 776.999v114h108v-114h-108z" />
    <glyph glyph-name="cdotaccent" unicode="&#x10b;" horiz-adv-x="442" 
d="M253 511c35.333 0 76.999 -4.66602 124.999 -13.999l25 -5l-4 -86c-52.667 5.33301 -91.667 8 -117 8c-50.667 0 -84.667 -11.333 -102 -34s-26 -65.334 -26 -128.001s8.33301 -106 25 -130s51.334 -36 104.001 -36l117 8l3 -87c-67.333 -12 -118 -18 -152 -18
c-76 0 -129.5 20.5 -160.5 61.5s-46.5 108.167 -46.5 201.5s16.333 159.833 49 199.5s86 59.5 160 59.5zM199.999 579.001v114h108v-114h-108z" />
    <glyph glyph-name="Ccaron" unicode="&#x10c;" horiz-adv-x="544" 
d="M309 -11c-100 0 -167.832 27.666 -203.499 82.999s-53.5 146.333 -53.5 273s18 216.834 54 270.501s103.667 80.5 203 80.5c59.333 0 124.666 -8.33301 195.999 -25l-4 -90c-60 10.667 -120 16 -180 16s-100.667 -17.833 -122 -53.5s-32 -102.667 -32 -201
s10.333 -165.333 31 -201s61 -53.5 121 -53.5s120.667 5 182 15l3 -92c-68.667 -14.667 -133.667 -22 -195 -22zM259.001 775.999l-134 143h117l65 -66l63 66h117l-134 -143h-94z" />
    <glyph glyph-name="ccaron" unicode="&#x10d;" horiz-adv-x="442" 
d="M253 511c35.333 0 76.999 -4.66602 124.999 -13.999l25 -5l-4 -86c-52.667 5.33301 -91.667 8 -117 8c-50.667 0 -84.667 -11.333 -102 -34s-26 -65.334 -26 -128.001s8.33301 -106 25 -130s51.334 -36 104.001 -36l117 8l3 -87c-67.333 -12 -118 -18 -152 -18
c-76 0 -129.5 20.5 -160.5 61.5s-46.5 108.167 -46.5 201.5s16.333 159.833 49 199.5s86 59.5 160 59.5zM204.999 585.001l-125 146h102l59 -75l58 75h102l-127 -146h-69z" />
    <glyph glyph-name="Dcaron" unicode="&#x10e;" horiz-adv-x="641" 
d="M316 0h-237v685h237c105.333 0 177.333 -26.667 216 -80s58 -137 58 -251c0 -58 -3.83301 -107.167 -11.5 -147.5s-21.167 -76.833 -40.5 -109.5c-38 -64.667 -112 -97 -222 -97zM475 354c0 82.667 -10.333 142.333 -31 179s-63.334 55 -128.001 55h-126v-490h126
c66 0 110 24.333 132 73c10.667 24.667 17.834 51 21.501 79s5.5 62.667 5.5 104zM253 775.999l-134 143h117l65 -66l63 66h117l-134 -143h-94z" />
    <glyph glyph-name="dcaron" unicode="&#x10f;" horiz-adv-x="625" 
d="M576 680h106l-53 -222h-96zM474 708v-708h-108v26c-48.667 -24.667 -93.334 -37 -134.001 -37c-65.333 0 -113.166 19.667 -143.499 59s-45.5 105.333 -45.5 198s16.833 160 50.5 202s86.167 63 157.5 63c24 0 62 -4.33301 114 -13v210h109zM348 104l17 7v296
c-40 6.66699 -77 10 -111 10c-67.333 0 -101 -56 -101 -168c0 -61.333 7.83301 -103.833 23.5 -127.5s40.5 -35.5 74.5 -35.5s66.333 6 97 18z" />
    <glyph glyph-name="Dcroat" unicode="&#x110;" horiz-adv-x="644" 
d="M23 292v106h60v295h235c108 0 181.667 -29 221 -87c20 -30 34 -64.5 42 -103.5s12 -87.333 12 -145s-3.83301 -107 -11.5 -148s-21.167 -78.167 -40.5 -111.5c-38.667 -65.333 -113 -98 -223 -98h-235v292h-60zM478 359c0 79.333 -10.5 137.167 -31.5 173.5
s-63.833 54.5 -128.5 54.5h-125v-189h142v-106h-142v-186h125c66.667 0 110.667 24.333 132 73c11.333 24.667 18.833 50.667 22.5 78s5.5 61.333 5.5 102z" />
    <glyph glyph-name="dcroat" unicode="&#x111;" horiz-adv-x="540" 
d="M155 622v94h311v-8h8v-708h-108v26c-48.667 -24.667 -93.334 -37 -134.001 -37c-65.333 0 -113.166 19.667 -143.499 59s-45.5 105.333 -45.5 198s16.833 160 50.5 202s86.167 63 157.5 63c24 0 62 -4.33301 114 -13v124h-210zM348 104l17 7v296
c-40 6.66699 -77 10 -111 10c-67.333 0 -101 -56 -101 -168c0 -61.333 7.83301 -103.833 23.5 -127.5s40.5 -35.5 74.5 -35.5s66.333 6 97 18z" />
    <glyph glyph-name="Emacron" unicode="&#x112;" horiz-adv-x="553" 
d="M79 0v685h432v-97h-321v-194h261v-96h-261v-200h321v-98h-432zM125 795v81h332v-81h-332z" />
    <glyph glyph-name="emacron" unicode="&#x113;" horiz-adv-x="508" 
d="M422 90l28.001 2.99902l2 -81c-76 -15.333 -143.333 -23 -202 -23c-74 0 -127.167 20.333 -159.5 61s-48.5 105.667 -48.5 195c0 177.333 72.333 266 217 266c140 0 210 -76.333 210 -229l-7 -78h-310c0.666992 -41.333 9.66699 -71.666 27 -90.999
s49.666 -29 96.999 -29s96 2 146 6zM362.001 287.999c0 49.333 -7.83301 83.833 -23.5 103.5s-42.167 29.5 -79.5 29.5s-64.5 -10.333 -81.5 -31s-25.833 -54.667 -26.5 -102h211zM117.001 608.999v82h282v-82h-282z" />
    <glyph glyph-name="Ebreve" unicode="&#x114;" horiz-adv-x="553" 
d="M79 0v685h432v-97h-321v-194h261v-96h-261v-200h321v-98h-432zM249.5 867c13.667 -12 31.167 -18 52.5 -18s38.833 6 52.5 18s21.167 27.667 22.5 47h99c-4 -43.333 -21 -78 -51 -104s-71.167 -39 -123.5 -39s-93.5 13 -123.5 39s-46.667 60.667 -50 104h99
c1.33301 -19.333 8.83301 -35 22.5 -47z" />
    <glyph glyph-name="ebreve" unicode="&#x115;" horiz-adv-x="508" 
d="M422 90l28.001 2.99902l2 -81c-76 -15.333 -143.333 -23 -202 -23c-74 0 -127.167 20.333 -159.5 61s-48.5 105.667 -48.5 195c0 177.333 72.333 266 217 266c140 0 210 -76.333 210 -229l-7 -78h-310c0.666992 -41.333 9.66699 -71.666 27 -90.999
s49.666 -29 96.999 -29s96 2 146 6zM362.001 287.999c0 49.333 -7.83301 83.833 -23.5 103.5s-42.167 29.5 -79.5 29.5s-64.5 -10.333 -81.5 -31s-25.833 -54.667 -26.5 -102h211zM206.501 673.999c13 -13.333 30.332 -20 51.999 -20s38.834 6.83301 51.501 20.5
s19.667 31.5 21 53.5h84c-4 -42 -19.833 -77.333 -47.5 -106s-64.167 -43 -109.5 -43s-82 14.333 -110 43s-44 64 -48 106h84c2 -22.667 9.5 -40.667 22.5 -54z" />
    <glyph glyph-name="Edotaccent" unicode="&#x116;" horiz-adv-x="553" 
d="M79 0v685h432v-97h-321v-194h261v-96h-261v-200h321v-98h-432zM244 782v114h108v-114h-108z" />
    <glyph glyph-name="edotaccent" unicode="&#x117;" horiz-adv-x="508" 
d="M422 90l28.001 2.99902l2 -81c-76 -15.333 -143.333 -23 -202 -23c-74 0 -127.167 20.333 -159.5 61s-48.5 105.667 -48.5 195c0 177.333 72.333 266 217 266c140 0 210 -76.333 210 -229l-7 -78h-310c0.666992 -41.333 9.66699 -71.666 27 -90.999
s49.666 -29 96.999 -29s96 2 146 6zM362.001 287.999c0 49.333 -7.83301 83.833 -23.5 103.5s-42.167 29.5 -79.5 29.5s-64.5 -10.333 -81.5 -31s-25.833 -54.667 -26.5 -102h211zM201.001 578.999v114h108v-114h-108z" />
    <glyph glyph-name="Eogonek" unicode="&#x118;" horiz-adv-x="553" 
d="M79 0l-0.000976562 684.998h432v-97h-321v-194h261v-96h-261v-200h321v-98h-29c-14.667 -10 -28.667 -25.167 -42 -45.5s-20 -35.666 -20 -45.999s3.33301 -19 10 -26s15.334 -10.5 26.001 -10.5l45 5l10 -79c-35.333 -6.66699 -66.833 -10 -94.5 -10s-51 8.33301 -70 25
s-28.5 39.334 -28.5 68.001c0 40 22.667 79.667 68 119h-307z" />
    <glyph glyph-name="eogonek" unicode="&#x119;" horiz-adv-x="509" 
d="M346 -90c0 -11.333 3.33203 -20.502 9.99902 -27.502s15.334 -10.5 26.001 -10.5l45 5l10 -79c-35.333 -6.66699 -66.833 -10 -94.5 -10s-51 8.33301 -70 25s-28.5 41.167 -28.5 73.5s19.667 67.5 59 105.5c-19.333 -2 -37 -3 -53 -3c-74 0 -127.167 20.333 -159.5 61
s-48.5 105.667 -48.5 195c0 177.333 72.333 266 217 266c140 0 210 -76.333 210 -229l-7 -78h-310c0.666992 -41.333 9.66699 -71.666 27 -90.999s46.333 -29 87 -29c54 0 106 2 156 6l28 3l2 -81c-16 -3.33301 -34.333 -6.66602 -55 -9.99902l13 -1
c-42.667 -38 -64 -68.333 -64 -91zM361.999 287.998c0 49.333 -7.83301 83.833 -23.5 103.5s-42.167 29.5 -79.5 29.5s-64.5 -10.333 -81.5 -31s-25.833 -54.667 -26.5 -102h211z" />
    <glyph glyph-name="Ecaron" unicode="&#x11a;" horiz-adv-x="553" 
d="M79 0v685h432v-97h-321v-194h261v-96h-261v-200h321v-98h-432zM237 776l-134 143h117l65 -66l63 66h117l-134 -143h-94z" />
    <glyph glyph-name="ecaron" unicode="&#x11b;" horiz-adv-x="508" 
d="M422 90l28.001 2.99902l2 -81c-76 -15.333 -143.333 -23 -202 -23c-74 0 -127.167 20.333 -159.5 61s-48.5 105.667 -48.5 195c0 177.333 72.333 266 217 266c140 0 210 -76.333 210 -229l-7 -78h-310c0.666992 -41.333 9.66699 -71.666 27 -90.999
s49.666 -29 96.999 -29s96 2 146 6zM362.001 287.999c0 49.333 -7.83301 83.833 -23.5 103.5s-42.167 29.5 -79.5 29.5s-64.5 -10.333 -81.5 -31s-25.833 -54.667 -26.5 -102h211zM218.001 584.999l-125 146h102l59 -75l58 75h102l-127 -146h-69z" />
    <glyph glyph-name="Gcircumflex" unicode="&#x11c;" horiz-adv-x="613" 
d="M358 263l0.000976562 98.001h195v-348c-18 -4.66699 -54.5 -9.66699 -109.5 -15s-94.833 -8 -119.5 -8c-104 0 -175.667 28.667 -215 86s-59 147.166 -59 269.499s20.167 211.5 60.5 267.5s110.166 84 209.499 84c65.333 0 131.333 -6.66699 198 -20l35 -7l-4 -88
c-80.667 10.667 -153 16 -217 16s-107.833 -18 -131.5 -54s-35.5 -102.667 -35.5 -200s11.167 -164.5 33.5 -201.5s67.5 -55.5 135.5 -55.5c48.667 0 85 3 109 9v167h-85zM145.001 775.001l134 143h94l134 -143h-116l-64 67l-65 -67h-117z" />
    <glyph glyph-name="gcircumflex" unicode="&#x11d;" horiz-adv-x="525" 
d="M503 -68c0 -109.333 -78.998 -164.002 -236.998 -164.002c-76 0 -132.333 10.333 -169 31s-55 58.334 -55 113.001c0 24.667 6 45.834 18 63.501s31.333 36.834 58 57.501c-22 14.667 -33 39 -33 73c0 13.333 9 35 27 65l9 15c-48 28.667 -72 78.667 -72 150
c0 60 18 104 54 132s84.667 42 146 42c29.333 0 58.333 -3.33301 87 -10l15 -3l155 4v-88l-83 5c18 -23.333 27 -50.666 27 -81.999c0 -65.333 -16.5 -110.5 -49.5 -135.5s-84.5 -37.5 -154.5 -37.5c-17.333 0 -32 1.33301 -44 4c-9.33301 -22.667 -14 -40.167 -14 -52.5
s6.16699 -20.833 18.5 -25.5s42.166 -7.33398 89.499 -8.00098c79.333 -0.666992 133.666 -11.334 162.999 -32.001s44 -59.667 44 -117zM149.002 -78.002c0 -23.333 9.33301 -40 28 -50s50.667 -15 96 -15c80.667 0 121 23 121 69c0 26 -7.16699 42.5 -21.5 49.5
s-42.833 10.833 -85.5 11.5l-98 6c-14.667 -12 -25 -23.167 -31 -33.5s-9 -22.833 -9 -37.5zM179.002 268.498c14.667 -14.333 38.334 -21.5 71.001 -21.5s56.167 7.16699 70.5 21.5s21.5 36.833 21.5 67.5s-7.33301 53.167 -22 67.5s-38.334 21.5 -71.001 21.5
c-61.333 0 -92 -29.667 -92 -89c0 -30.667 7.33301 -53.167 22 -67.5zM107.002 584.998l125 146h69l127 -146h-102l-58 76l-58 -76h-103z" />
    <glyph glyph-name="Gbreve" unicode="&#x11e;" horiz-adv-x="613" 
d="M358 262l0.000976562 98.001h195v-348c-18 -4.66699 -54.5 -9.66699 -109.5 -15s-94.833 -8 -119.5 -8c-104 0 -175.667 28.667 -215 86s-59 147.166 -59 269.499s20.167 211.5 60.5 267.5s110.166 84 209.499 84c58.667 0 124.667 -6.66699 198 -20l35 -7l-4 -88
c-80.667 10.667 -153 16 -217 16s-107.833 -18 -131.5 -54s-35.5 -102.667 -35.5 -200s11.167 -164.5 33.5 -201.5s67.5 -55.5 135.5 -55.5c48.667 0 85 3 109 9v167h-85zM272.501 867.001c13.667 -12 31.167 -18 52.5 -18s38.833 6 52.5 18s21.167 27.667 22.5 47h99
c-4 -43.333 -21 -78 -51 -104s-71.167 -39 -123.5 -39s-93.5 13 -123.5 39s-46.667 60.667 -50 104h99c1.33301 -19.333 8.83301 -35 22.5 -47z" />
    <glyph glyph-name="gbreve" unicode="&#x11f;" horiz-adv-x="525" 
d="M503 -68c0 -109.333 -78.998 -164.002 -236.998 -164.002c-76 0 -132.333 10.333 -169 31s-55 58.334 -55 113.001c0 24.667 6 45.834 18 63.501s31.333 36.834 58 57.501c-22 14.667 -33 39 -33 73c0 13.333 9 35 27 65l9 15c-48 28.667 -72 78.667 -72 150
c0 60 18 104 54 132s84.667 42 146 42c29.333 0 58.333 -3.33301 87 -10l15 -3l155 4v-88l-83 5c18 -23.333 27 -50.666 27 -81.999c0 -65.333 -16.5 -110.5 -49.5 -135.5s-84.5 -37.5 -154.5 -37.5c-17.333 0 -32 1.33301 -44 4c-9.33301 -22.667 -14 -40.167 -14 -52.5
s6.16699 -20.833 18.5 -25.5s42.166 -7.33398 89.499 -8.00098c79.333 -0.666992 133.666 -11.334 162.999 -32.001s44 -59.667 44 -117zM149.002 -78.002c0 -23.333 9.33301 -40 28 -50s50.667 -15 96 -15c80.667 0 121 23 121 69c0 26 -7.16699 42.5 -21.5 49.5
s-42.833 10.833 -85.5 11.5l-98 6c-14.667 -12 -25 -23.167 -31 -33.5s-9 -22.833 -9 -37.5zM179.002 268.498c14.667 -14.333 38.334 -21.5 71.001 -21.5s56.167 7.16699 70.5 21.5s21.5 36.833 21.5 67.5s-7.33301 53.167 -22 67.5s-38.334 21.5 -71.001 21.5
c-61.333 0 -92 -29.667 -92 -89c0 -30.667 7.33301 -53.167 22 -67.5zM215.502 673.998c13 -13.333 30.332 -20 51.999 -20s38.834 6.83301 51.501 20.5s19.667 31.5 21 53.5h84c-4 -42 -19.833 -77.333 -47.5 -106s-64.167 -43 -109.5 -43s-82 14.333 -110 43
s-44 64 -48 106h84c2 -22.667 9.5 -40.667 22.5 -54z" />
    <glyph glyph-name="Gdotaccent" unicode="&#x120;" horiz-adv-x="613" 
d="M358 262l0.000976562 98.001h195v-348c-18 -4.66699 -54.5 -9.66699 -109.5 -15s-94.833 -8 -119.5 -8c-104 0 -175.667 28.667 -215 86s-59 147.166 -59 269.499s20.167 211.5 60.5 267.5s110.166 84 209.499 84c58.667 0 124.667 -6.66699 198 -20l35 -7l-4 -88
c-80.667 10.667 -153 16 -217 16s-107.833 -18 -131.5 -54s-35.5 -102.667 -35.5 -200s11.167 -164.5 33.5 -201.5s67.5 -55.5 135.5 -55.5c48.667 0 85 3 109 9v167h-85zM258.001 782.001v114h108v-114h-108z" />
    <glyph glyph-name="gdotaccent" unicode="&#x121;" horiz-adv-x="525" 
d="M503 -68c0 -109.333 -78.998 -164.002 -236.998 -164.002c-76 0 -132.333 10.333 -169 31s-55 58.334 -55 113.001c0 24.667 6 45.834 18 63.501s31.333 36.834 58 57.501c-22 14.667 -33 39 -33 73c0 13.333 9 35 27 65l9 15c-48 28.667 -72 78.667 -72 150
c0 60 18 104 54 132s84.667 42 146 42c29.333 0 58.333 -3.33301 87 -10l15 -3l155 4v-88l-83 5c18 -23.333 27 -50.666 27 -81.999c0 -65.333 -16.5 -110.5 -49.5 -135.5s-84.5 -37.5 -154.5 -37.5c-17.333 0 -32 1.33301 -44 4c-9.33301 -22.667 -14 -40.167 -14 -52.5
s6.16699 -20.833 18.5 -25.5s42.166 -7.33398 89.499 -8.00098c79.333 -0.666992 133.666 -11.334 162.999 -32.001s44 -59.667 44 -117zM149.002 -78.002c0 -23.333 9.33301 -40 28 -50s50.667 -15 96 -15c80.667 0 121 23 121 69c0 26 -7.16699 42.5 -21.5 49.5
s-42.833 10.833 -85.5 11.5l-98 6c-14.667 -12 -25 -23.167 -31 -33.5s-9 -22.833 -9 -37.5zM179.002 268.498c14.667 -14.333 38.334 -21.5 71.001 -21.5s56.167 7.16699 70.5 21.5s21.5 36.833 21.5 67.5s-7.33301 53.167 -22 67.5s-38.334 21.5 -71.001 21.5
c-61.333 0 -92 -29.667 -92 -89c0 -30.667 7.33301 -53.167 22 -67.5zM212.002 578.998v114h108v-114h-108z" />
    <glyph glyph-name="Gcommaaccent" unicode="&#x122;" horiz-adv-x="613" 
d="M358 262l0.000976562 98.001h195v-348c-18 -4.66699 -54.5 -9.66699 -109.5 -15s-94.833 -8 -119.5 -8c-104 0 -175.667 28.667 -215 86s-59 147.166 -59 269.499s20.167 211.5 60.5 267.5s110.166 84 209.499 84c58.667 0 124.667 -6.66699 198 -20l35 -7l-4 -88
c-80.667 10.667 -153 16 -217 16s-107.833 -18 -131.5 -54s-35.5 -102.667 -35.5 -200s11.167 -164.5 33.5 -201.5s67.5 -55.5 135.5 -55.5c48.667 0 85 3 109 9v167h-85zM281.001 -76.999h106l-53 -223h-97z" />
    <glyph glyph-name="gcommaaccent" unicode="&#x123;" horiz-adv-x="525" 
d="M329 808l-44 -222h-105l52 222h97zM503 -68c0 -109.333 -78.998 -164.002 -236.998 -164.002c-76 0 -132.333 10.333 -169 31s-55 58.334 -55 113.001c0 24.667 6 45.834 18 63.501s31.333 36.834 58 57.501c-22 14.667 -33 39 -33 73c0 13.333 9 35 27 65l9 15
c-48 28.667 -72 78.667 -72 150c0 60 18 104 54 132s84.667 42 146 42c29.333 0 58.333 -3.33301 87 -10l15 -3l155 4v-88l-83 5c18 -23.333 27 -50.666 27 -81.999c0 -65.333 -16.5 -110.5 -49.5 -135.5s-84.5 -37.5 -154.5 -37.5c-17.333 0 -32 1.33301 -44 4
c-9.33301 -22.667 -14 -40.167 -14 -52.5s6.16699 -20.833 18.5 -25.5s42.166 -7.33398 89.499 -8.00098c79.333 -0.666992 133.666 -11.334 162.999 -32.001s44 -59.667 44 -117zM149.002 -78.002c0 -23.333 9.33301 -40 28 -50s50.667 -15 96 -15c80.667 0 121 23 121 69
c0 26 -7.16699 42.5 -21.5 49.5s-42.833 10.833 -85.5 11.5l-98 6c-14.667 -12 -25 -23.167 -31 -33.5s-9 -22.833 -9 -37.5zM179.002 268.498c14.667 -14.333 38.334 -21.5 71.001 -21.5s56.167 7.16699 70.5 21.5s21.5 36.833 21.5 67.5s-7.33301 53.167 -22 67.5
s-38.334 21.5 -71.001 21.5c-61.333 0 -92 -29.667 -92 -89c0 -30.667 7.33301 -53.167 22 -67.5z" />
    <glyph glyph-name="Hcircumflex" unicode="&#x124;" horiz-adv-x="676" 
d="M486 0v296h-296v-296h-111v685h111v-292h296v292h112v-685h-112zM157 776l134 143h94l134 -143h-116l-64 67l-65 -67h-117z" />
    <glyph glyph-name="hcircumflex" unicode="&#x125;" horiz-adv-x="546" 
d="M175 0l-109 0.000976562v708h109v-234c49.333 24.667 95 37 137 37c66.667 0 112.167 -18.833 136.5 -56.5s36.5 -99.834 36.5 -186.501v-268h-109v265c0 54 -5.66699 92.333 -17 115s-35.333 34 -72 34c-32 0 -64 -5.33301 -96 -16l-16 -6v-392zM112 760.001l125 146h69
l127 -146h-102l-58 76l-58 -76h-103z" />
    <glyph glyph-name="Hbar" unicode="&#x126;" horiz-adv-x="685" 
d="M17 495v95h66v95h111v-95h296v95h112v-95h73v-95h-73v-495h-112v296h-296v-296h-111v495h-66zM194 393h296v102h-296v-102z" />
    <glyph glyph-name="hbar" unicode="&#x127;" horiz-adv-x="546" 
d="M11 553v94.001h55v61h109v-61h147v-94h-147v-79c49.333 24.667 95 37 137 37c66.667 0 112.167 -18.833 136.5 -56.5s36.5 -99.834 36.5 -186.501v-268h-109v265c0 54 -5.66699 92.333 -17 115s-35.333 34 -72 34c-32 0 -64 -5.33301 -96 -16l-16 -6v-392h-109v553h-55z
" />
    <glyph glyph-name="Itilde" unicode="&#x128;" horiz-adv-x="269" 
d="M79 0v685h111v-685h-111zM214 777c-16 0 -45.001 8.33301 -87.001 25s-67.333 25 -76 25c-16.667 0 -38 -11 -64 -33l-13 -11l-24 78l15.5 17.5c6.33301 7 18.333 16.167 36 27.5s35.167 17 52.5 17s46.5 -8.33301 87.5 -25s65.167 -25 72.5 -25
c14.667 0 35.334 11 62.001 33l14 11l24 -79c-10 -14 -25.167 -27.667 -45.5 -41s-38.5 -20 -54.5 -20z" />
    <glyph glyph-name="itilde" unicode="&#x129;" horiz-adv-x="241" 
d="M66 500h109v-500h-109v500zM236.5 613c-17 -10.667 -32.499 -16 -46.499 -16s-37.167 6.66699 -69.5 20s-53.166 20 -62.499 20c-16 0 -37 -8.33301 -63 -25l-13 -9l-24 63l16 16c6 6 17.667 14.167 35 24.5s33.166 15.5 47.499 15.5s37.666 -6.66699 69.999 -20
s52.5 -20 60.5 -20c14.667 0 35.667 9 63 27l13 9l24 -64l-15 -16c-6.66699 -6 -18.5 -14.333 -35.5 -25z" />
    <glyph glyph-name="Imacron" unicode="&#x12a;" horiz-adv-x="269" 
d="M79 0v685h111v-685h-111zM-29 795v81h332v-81h-332z" />
    <glyph glyph-name="imacron" unicode="&#x12b;" horiz-adv-x="241" 
d="M66 500h109v-500h-109v500zM-20 609v82h282v-82h-282z" />
    <glyph glyph-name="Ibreve" unicode="&#x12c;" horiz-adv-x="269" 
d="M79 0v685h111v-685h-111zM95.5 867c13.667 -12 31.167 -18 52.5 -18s38.833 6 52.5 18s21.167 27.667 22.5 47h99c-4 -43.333 -21 -78 -51 -104s-71.167 -39 -123.5 -39s-93.5 13 -123.5 39s-46.667 60.667 -50 104h99c1.33301 -19.333 8.83301 -35 22.5 -47z" />
    <glyph glyph-name="ibreve" unicode="&#x12d;" horiz-adv-x="241" 
d="M66 500h109v-500h-109v500zM69.5 674c13 -13.333 30.332 -20 51.999 -20s38.834 6.83301 51.501 20.5s19.667 31.5 21 53.5h84c-4 -42 -19.833 -77.333 -47.5 -106s-64.167 -43 -109.5 -43s-82 14.333 -110 43s-44 64 -48 106h84c2 -22.667 9.5 -40.667 22.5 -54z" />
    <glyph glyph-name="Iogonek" unicode="&#x12e;" horiz-adv-x="269" 
d="M79 0v684.998h111v-685c-15.333 -11.333 -30.833 -26.666 -46.5 -45.999s-23.5 -34.333 -23.5 -45s3.33301 -19.5 10 -26.5s15 -10.5 25 -10.5l46 5l10 -79c-35.333 -6.66699 -67 -10 -95 -10s-51.5 8.33301 -70.5 25s-28.5 39.334 -28.5 68.001
c0 42 23.667 81.667 71 119h-9z" />
    <glyph glyph-name="iogonek" unicode="&#x12f;" horiz-adv-x="241" 
d="M66 0l-0.000976562 499.998h109v-500c-18.667 -14 -35.167 -29.833 -49.5 -47.5s-21.5 -32 -21.5 -43s3.33301 -20 10 -27s15.334 -10.5 26.001 -10.5l46 5l9 -79c-35.333 -6.66699 -66.833 -10 -94.5 -10s-51 8.33301 -70 25s-28.5 39.334 -28.5 68.001
c0 40.667 24.333 80.334 73 119.001h-9zM65.999 584.998v115h109v-115h-109z" />
    <glyph glyph-name="Idotaccent" unicode="&#x130;" horiz-adv-x="269" 
d="M79 0v685h111v-685h-111zM80 782v114h108v-114h-108z" />
    <glyph glyph-name="dotlessi" unicode="&#x131;" horiz-adv-x="241" 
d="M66 0v500h109v-500h-109z" />
    <glyph glyph-name="Jcircumflex" unicode="&#x134;" horiz-adv-x="296" 
d="M19 -71v97.998c35.333 0 59.5 5.33301 72.5 16s19.5 34.334 19.5 71.001v571h110l1 -579c0 -71.333 -15 -118.666 -45 -141.999s-82.667 -35 -158 -35zM-15 774.998l134 143h94l134 -143h-116l-64 67l-65 -67h-117z" />
    <glyph glyph-name="jcircumflex" unicode="&#x135;" horiz-adv-x="242" 
d="M67 19l-0.000976562 480.998h108v-482c0 -65.333 -11.5 -113.666 -34.5 -144.999s-69.167 -64.666 -138.5 -99.999l-43 81c46.667 29.333 76.334 53.333 89.001 72s19 49.667 19 93zM-39.001 584.998l125 146h69l127 -146h-102l-58 76l-58 -76h-103z" />
    <glyph glyph-name="Kcommaaccent" unicode="&#x136;" horiz-adv-x="581" 
d="M190 0h-111v693h111v-307l100 7l140 300h129l-169 -346l176 -347h-129l-145 286l-102 -7v-279zM253 -77h106l-53 -223h-96z" />
    <glyph glyph-name="kcommaaccent" unicode="&#x137;" horiz-adv-x="499" 
d="M38 -300l43 223h106l-53 -223h-96zM175 0h-109v708h109v-409l62 6l118 195h122l-144 -234l152 -266h-123l-122 211l-65 -7v-204z" />
    <glyph glyph-name="Lacute" unicode="&#x139;" horiz-adv-x="476" 
d="M463 0h-384v693h111v-586h273v-107zM120 836l236 103l35 -97l-243 -82z" />
    <glyph glyph-name="lacute" unicode="&#x13a;" horiz-adv-x="253" 
d="M72 0v708h109v-708h-109zM46 854l236 101l34 -94l-244 -78z" />
    <glyph glyph-name="Lcommaaccent" unicode="&#x13b;" horiz-adv-x="475" 
d="M220 -77h106l-53 -223h-97zM463 0h-384v685h111v-586h273v-99z" />
    <glyph glyph-name="lcommaaccent" unicode="&#x13c;" horiz-adv-x="253" 
d="M72 0v708h109v-708h-109zM69 -77h106l-53 -223h-97z" />
    <glyph glyph-name="Lcaron" unicode="&#x13d;" horiz-adv-x="496" 
d="M451 693v-249h-105v249h105zM463 0h-384v685h111v-586h273v-99z" />
    <glyph glyph-name="lcaron" unicode="&#x13e;" horiz-adv-x="331" 
d="M282 680h106l-53 -222h-96zM72 0v708h109v-708h-109z" />
    <glyph glyph-name="Lslash" unicode="&#x141;" horiz-adv-x="482" 
d="M470 0h-384v240l-48 -33l-53 74l101 70v334h111v-256l118 83l53 -73l-171 -121v-219h273v-99z" />
    <glyph glyph-name="lslash" unicode="&#x142;" horiz-adv-x="350" 
d="M117 0v244l-58 -40l-53 74l111 77v353h108v-277l68 48l53 -74l-121 -85v-320h-108z" />
    <glyph glyph-name="Nacute" unicode="&#x143;" horiz-adv-x="686" 
d="M79 0v685h194l208 -587h15v587h111v-685h-190l-213 588h-14v-588h-111zM210 836l236 103l35 -97l-243 -82z" />
    <glyph glyph-name="nacute" unicode="&#x144;" horiz-adv-x="546" 
d="M66 0v500.001h108v-31l20 11c13.333 6.66699 31.5 13.5 54.5 20.5s44.167 10.5 63.5 10.5c66.667 0 112.167 -18.833 136.5 -56.5s36.5 -99.834 36.5 -186.501v-268h-108v265c0 54 -5.83301 92.333 -17.5 115s-36.167 34 -73.5 34s-74.333 -8.66699 -111 -26v-388h-109z
M152 647.001l236 101l34 -94l-244 -78z" />
    <glyph glyph-name="Ncommaaccent" unicode="&#x145;" horiz-adv-x="686" 
d="M310 -77h105l-52 -223h-97zM79 0v685h194l208 -587h15v587h111v-685h-190l-213 588h-14v-588h-111z" />
    <glyph glyph-name="ncommaaccent" unicode="&#x146;" horiz-adv-x="546" 
d="M50 -300l43 223h106l-53 -223h-96zM175 0l-109 0.000976562v500h108v-31c48.667 28 94.667 42 138 42c66.667 0 112.167 -18.833 136.5 -56.5s36.5 -99.834 36.5 -186.501v-268h-108v265c0 54 -5.83301 92.333 -17.5 115s-35.5 34 -71.5 34
c-34 0 -66.667 -6.66699 -98 -20l-15 -6v-388z" />
    <glyph glyph-name="Ncaron" unicode="&#x147;" horiz-adv-x="686" 
d="M79 0v685h194l208 -587h15v587h111v-685h-190l-213 588h-14v-588h-111zM297 775l-134 143h117l65 -66l63 66h117l-134 -143h-94z" />
    <glyph glyph-name="ncaron" unicode="&#x148;" horiz-adv-x="546" 
d="M175 0l-109 0.000976562v500h108v-31c48.667 28 94.667 42 138 42c66.667 0 112.167 -18.833 136.5 -56.5s36.5 -99.834 36.5 -186.501v-268h-108v265c0 54 -5.83301 92.333 -17.5 115s-35.5 34 -71.5 34c-34 0 -66.667 -6.66699 -98 -20l-15 -6v-388zM236 585.001
l-125 146h102l59 -75l58 75h102l-127 -146h-69z" />
    <glyph glyph-name="Eng" unicode="&#x14a;" horiz-adv-x="686" 
d="M79 0v684.998h194l208 -587h15v587h111v-710c0 -71.333 -15 -118.666 -45 -141.999s-82.667 -35 -158 -35v98c35.333 0 59.5 5.33301 72.5 16s19.5 34.334 19.5 71.001v17h-79l-213 588h-14v-588h-111z" />
    <glyph glyph-name="eng" unicode="&#x14b;" horiz-adv-x="546" 
d="M174 0l-108 -0.00195312v499h108v-26c56 25.333 103 38 141 38c63.333 0 107.5 -20.5 132.5 -61.5s37.5 -103.833 37.5 -188.5v-259c0 -66.667 -10.833 -115.5 -32.5 -146.5s-67.5 -63.833 -137.5 -98.5l-48 90c47.333 26.667 77.5 48.834 90.5 66.501
s19.5 45.834 19.5 84.501v262c0 50.667 -5.66699 88.667 -17 114s-33.333 38 -66 38c-28 0 -61.333 -6.66699 -100 -20l-20 -6v-386z" />
    <glyph glyph-name="Omacron" unicode="&#x14c;" horiz-adv-x="656" 
d="M328 86c64 0 107.167 19.3311 129.5 57.998s33.5 103.5 33.5 194.5s-11.5 157.167 -34.5 198.5s-65.833 62 -128.5 62s-105.667 -20.667 -129 -62s-35 -107.166 -35 -197.499s11.333 -155.166 34 -194.499s66 -59 130 -59zM328 -11.002
c-103.333 0 -175.668 28.165 -217.001 84.498s-62 144.833 -62 265.5s20.833 210.334 62.5 269.001s113.834 88 216.501 88s174.667 -29.167 216 -87.5s62 -148.166 62 -269.499s-20.5 -210 -61.5 -266s-113.167 -84 -216.5 -84zM158.998 794.996v81h332v-81h-332z" />
    <glyph glyph-name="omacron" unicode="&#x14d;" horiz-adv-x="530" 
d="M265 511c80 0 137.167 -21.667 171.5 -65s51.5 -108.333 51.5 -195s-16.667 -152 -50 -196s-91 -66 -173 -66s-139.667 22 -173 66s-50 109.333 -50 196s17.167 151.667 51.5 195s91.5 65 171.5 65zM265 81c44.667 0 74.667 13.333 90 40s23 70.334 23 131.001
s-8.16699 103.667 -24.5 129s-45.833 38 -88.5 38s-72.167 -12.667 -88.5 -38s-24.5 -68.333 -24.5 -129s7.66699 -104.334 23 -131.001s45.333 -40 90 -40zM127 614v82h282v-82h-282z" />
    <glyph glyph-name="Obreve" unicode="&#x14e;" horiz-adv-x="656" 
d="M328 86c64 0 107.167 19.3311 129.5 57.998s33.5 103.5 33.5 194.5s-11.5 157.167 -34.5 198.5s-65.833 62 -128.5 62s-105.667 -20.667 -129 -62s-35 -107.166 -35 -197.499s11.333 -155.166 34 -194.499s66 -59 130 -59zM328 -11.002
c-103.333 0 -175.668 28.165 -217.001 84.498s-62 144.833 -62 265.5s20.833 210.334 62.5 269.001s113.834 88 216.501 88s174.667 -29.167 216 -87.5s62 -148.166 62 -269.499s-20.5 -210 -61.5 -266s-113.167 -84 -216.5 -84zM276.498 866.996
c13.667 -12 31.167 -18 52.5 -18s38.833 6 52.5 18s21.167 27.667 22.5 47h99c-4 -43.333 -21 -78 -51 -104s-71.167 -39 -123.5 -39s-93.5 13 -123.5 39s-46.667 60.667 -50 104h99c1.33301 -19.333 8.83301 -35 22.5 -47z" />
    <glyph glyph-name="obreve" unicode="&#x14f;" horiz-adv-x="530" 
d="M265 511c80 0 137.167 -21.667 171.5 -65s51.5 -108.333 51.5 -195s-16.667 -152 -50 -196s-91 -66 -173 -66s-139.667 22 -173 66s-50 109.333 -50 196s17.167 151.667 51.5 195s91.5 65 171.5 65zM265 81c44.667 0 74.667 13.333 90 40s23 70.334 23 131.001
s-8.16699 103.667 -24.5 129s-45.833 38 -88.5 38s-72.167 -12.667 -88.5 -38s-24.5 -68.333 -24.5 -129s7.66699 -104.334 23 -131.001s45.333 -40 90 -40zM216.5 674c13 -13.333 30.332 -20 51.999 -20s38.834 6.83301 51.501 20.5s19.667 31.5 21 53.5h84
c-4 -42 -19.833 -77.333 -47.5 -106s-64.167 -43 -109.5 -43s-82 14.333 -110 43s-44 64 -48 106h84c2 -22.667 9.5 -40.667 22.5 -54z" />
    <glyph glyph-name="Ohungarumlaut" unicode="&#x150;" horiz-adv-x="656" 
d="M328 86c64 0 107.167 19.3311 129.5 57.998s33.5 103.5 33.5 194.5s-11.5 157.167 -34.5 198.5s-65.833 62 -128.5 62s-105.667 -20.667 -129 -62s-35 -107.166 -35 -197.499s11.333 -155.166 34 -194.499s66 -59 130 -59zM328 -11.002
c-103.333 0 -175.668 28.165 -217.001 84.498s-62 144.833 -62 265.5s20.833 210.334 62.5 269.001s113.834 88 216.501 88s174.667 -29.167 216 -87.5s62 -148.166 62 -269.499s-20.5 -210 -61.5 -266s-113.167 -84 -216.5 -84zM357.998 778.996l99 169l90 -39l-108 -164z
M153.998 779.996l100 169l89 -39l-107 -164z" />
    <glyph glyph-name="ohungarumlaut" unicode="&#x151;" horiz-adv-x="530" 
d="M265 511c80 0 137.167 -21.667 171.5 -65s51.5 -108.333 51.5 -195s-16.667 -152 -50 -196s-91 -66 -173 -66s-139.667 22 -173 66s-50 109.333 -50 196s17.167 151.667 51.5 195s91.5 65 171.5 65zM265 81c44.667 0 74.667 13.333 90 40s23 70.334 23 131.001
s-8.16699 103.667 -24.5 129s-45.833 38 -88.5 38s-72.167 -12.667 -88.5 -38s-24.5 -68.333 -24.5 -129s7.66699 -104.334 23 -131.001s45.333 -40 90 -40zM270 626l129 168l85 -57l-135 -166zM71 626l129 167l85 -56l-135 -166z" />
    <glyph glyph-name="OE" unicode="&#x152;" horiz-adv-x="912" 
d="M868 0h-426c-48 -7.33301 -94.667 -11 -140 -11s-85.166 7.16699 -119.499 21.5s-61 37.166 -80 68.499s-32.333 67.833 -40 109.5s-11.5 93.834 -11.5 156.501c0 128.667 19.333 220.667 58 276s106.667 83 204 83c39.333 0 81.666 -3.66699 126.999 -11h428v-107h-318
v-181h258v-106h-258v-192h318v-107zM331 98c20 0 56.333 2.33301 109 7v482c-54.667 4.66699 -92 7 -112 7c-62.667 0 -105.334 -17.667 -128.001 -53s-34 -100.333 -34 -195s10.833 -159.667 32.5 -195s65.834 -53 132.501 -53z" />
    <glyph glyph-name="oe" unicode="&#x153;" horiz-adv-x="844" 
d="M758 94l28.002 2.99902l2 -85c-76 -15.333 -143.333 -23 -202 -23c-75.333 0 -127.666 26 -156.999 78c-30 -52 -85.167 -78 -165.5 -78s-137.333 22 -171 66s-50.5 109.333 -50.5 196s17.167 151.5 51.5 194.5s92.166 64.5 173.499 64.5s136.666 -30.333 165.999 -91
c31.333 60.667 83.666 91 156.999 91s127.5 -18.667 162.5 -56s52.5 -94.666 52.5 -171.999l-8 -79h-310c0.666992 -40 9.66699 -69.167 27 -87.5s49.833 -27.5 97.5 -27.5s96.5 2 146.5 6zM175.502 125.499c15.667 -25.667 45.6689 -38.5 90.002 -38.5
s74.166 12.833 89.499 38.5s23 67.167 23 124.5s-8.5 98.833 -25.5 124.5s-46.333 38.5 -88 38.5s-70.834 -12.333 -87.501 -37s-25 -66.167 -25 -124.5s7.83301 -100.333 23.5 -126zM487.004 287.999l210 -0.000976562c0 46 -7.83301 78.5 -23.5 97.5s-42 28.5 -79 28.5
s-64.167 -10.167 -81.5 -30.5s-26 -52.166 -26 -95.499z" />
    <glyph glyph-name="Racute" unicode="&#x154;" horiz-adv-x="618" 
d="M190 244v-244h-111v685h260c154.667 0 232 -72.667 232 -218c0 -97.333 -37.333 -163.333 -112 -198l113 -269h-122l-99 244h-161zM457 466c0 82 -39.333 123 -118 123h-149v-249h151c40 0 69.333 11.5 88 34.5s28 53.5 28 91.5zM178 836l236 103l35 -97l-243 -82z" />
    <glyph glyph-name="racute" unicode="&#x155;" horiz-adv-x="361" 
d="M66 0l-0.000976562 499.999h108v-60c56.667 36.667 113.334 60.334 170.001 71.001v-109c-57.333 -11.333 -106.333 -26 -147 -44l-22 -9v-349h-109zM55.999 646.999l236 101l34 -94l-244 -78z" />
    <glyph glyph-name="Rcommaaccent" unicode="&#x156;" horiz-adv-x="618" 
d="M226 -300l43 223h106l-52 -223h-97zM190 244v-244h-111v685h260c154.667 0 232 -72.667 232 -218c0 -97.333 -37.333 -163.333 -112 -198l113 -269h-122l-99 244h-161zM457 466c0 82 -39.333 123 -118 123h-149v-249h151c40 0 69.333 11.5 88 34.5s28 53.5 28 91.5z" />
    <glyph glyph-name="rcommaaccent" unicode="&#x157;" horiz-adv-x="361" 
d="M66 -77h106l-52 -223h-97zM66 0l-0.000976562 499.999h108v-60c56.667 36.667 113.334 60.334 170.001 71.001v-109c-57.333 -11.333 -106.333 -26 -147 -44l-22 -9v-349h-109z" />
    <glyph glyph-name="Rcaron" unicode="&#x158;" horiz-adv-x="618" 
d="M190 244v-244h-111v685h260c154.667 0 232 -72.667 232 -218c0 -97.333 -37.333 -163.333 -112 -198l113 -269h-122l-99 244h-161zM457 466c0 82 -39.333 123 -118 123h-149v-249h151c40 0 69.333 11.5 88 34.5s28 53.5 28 91.5zM253 776l-134 143h117l65 -66l63 66h117
l-134 -143h-94z" />
    <glyph glyph-name="rcaron" unicode="&#x159;" horiz-adv-x="361" 
d="M66 0l-0.000976562 499.999h108v-60c56.667 36.667 113.334 60.334 170.001 71.001v-109c-57.333 -11.333 -106.333 -26 -147 -44l-22 -9v-349h-109zM138.999 584.999l-125 146h102l59 -75l58 75h102l-127 -146h-69z" />
    <glyph glyph-name="Sacute" unicode="&#x15a;" horiz-adv-x="543" 
d="M280 599c-84.667 0 -126.998 -29.668 -126.998 -89.001c0 -30.667 10 -52.5 30 -65.5s64.167 -29 132.5 -48s116.5 -41.667 144.5 -68s42 -67.833 42 -124.5c0 -72 -20.5 -125.833 -61.5 -161.5s-96.833 -53.5 -167.5 -53.5c-56.667 0 -119.334 6.66699 -188.001 20
l-36 7l11 89c90 -12 158.667 -18 206 -18c82.667 0 124 36.667 124 110c0 28.667 -9.33301 49.834 -28 63.501s-60.667 28.667 -126 45s-114 38.833 -146 67.5s-48 74 -48 136s20.167 108.833 60.5 140.5s96.166 47.5 167.499 47.5c51.333 0 112 -6 182 -18l35 -6l-9 -90
c-93.333 10.667 -159.333 16 -198 16zM153.002 835.999l236 103l35 -97l-243 -82z" />
    <glyph glyph-name="sacute" unicode="&#x15b;" horiz-adv-x="469" 
d="M413 397c-78.667 10.667 -135.668 16.0049 -171.001 16.0049s-59.833 -4.16699 -73.5 -12.5s-20.5 -21.5 -20.5 -39.5s7.5 -30.667 22.5 -38s50.333 -15.833 106 -25.5s95.167 -24.834 118.5 -45.501s35 -57.334 35 -110.001s-16.833 -91.334 -50.5 -116.001
s-82.834 -37 -147.501 -37c-40.667 0 -92 5.66699 -154 17l-31 5l4 91c80 -10.667 137.667 -16 173 -16s60.5 4.33301 75.5 13s22.5 23 22.5 43s-7.16699 33.833 -21.5 41.5s-48.666 16 -102.999 25s-94.166 23.167 -119.499 42.5s-38 54.666 -38 105.999
s17.5 89.666 52.5 114.999s79.833 38 134.5 38c42.667 0 95 -5.33301 157 -16l31 -6zM100.999 647.005l236 101l34 -94l-244 -78z" />
    <glyph glyph-name="Scircumflex" unicode="&#x15c;" horiz-adv-x="543" 
d="M280 599c-84.667 0 -126.998 -29.668 -126.998 -89.001c0 -30.667 10 -52.5 30 -65.5s64.167 -29 132.5 -48s116.5 -41.667 144.5 -68s42 -67.833 42 -124.5c0 -72 -20.5 -125.833 -61.5 -161.5s-96.833 -53.5 -167.5 -53.5c-56.667 0 -119.334 6.66699 -188.001 20
l-36 7l11 89c90 -12 158.667 -18 206 -18c82.667 0 124 36.667 124 110c0 28.667 -9.33301 49.834 -28 63.501s-60.667 28.667 -126 45s-114 38.833 -146 67.5s-48 74 -48 136s20.167 108.833 60.5 140.5s96.166 47.5 167.499 47.5c51.333 0 112 -6 182 -18l35 -6l-9 -90
c-93.333 10.667 -159.333 16 -198 16zM94.002 774.999l134 143h94l134 -143h-116l-64 67l-65 -67h-117z" />
    <glyph glyph-name="scircumflex" unicode="&#x15d;" horiz-adv-x="469" 
d="M413 397c-78.667 10.667 -135.668 16.0049 -171.001 16.0049s-59.833 -4.16699 -73.5 -12.5s-20.5 -21.5 -20.5 -39.5s7.5 -30.667 22.5 -38s50.333 -15.833 106 -25.5s95.167 -24.834 118.5 -45.501s35 -57.334 35 -110.001s-16.833 -91.334 -50.5 -116.001
s-82.834 -37 -147.501 -37c-40.667 0 -92 5.66699 -154 17l-31 5l4 91c80 -10.667 137.667 -16 173 -16s60.5 4.33301 75.5 13s22.5 23 22.5 43s-7.16699 33.833 -21.5 41.5s-48.666 16 -102.999 25s-94.166 23.167 -119.499 42.5s-38 54.666 -38 105.999
s17.5 89.666 52.5 114.999s79.833 38 134.5 38c42.667 0 95 -5.33301 157 -16l31 -6zM74.999 585.005l125 146h69l127 -146h-102l-58 76l-58 -76h-103z" />
    <glyph glyph-name="Scedilla" unicode="&#x15e;" horiz-adv-x="543" 
d="M396 -60c18.667 -11.333 28.002 -34.001 28.002 -68.001s-9.16699 -59.667 -27.5 -77s-43.833 -26 -76.5 -26c-25.333 0 -51 2.33301 -77 7l-13 3l4 65c22.667 -1.33301 41 -2 55 -2c27.333 0 41 10.333 41 31c0 10 -3.16699 17 -9.5 21s-16.833 6 -31.5 6h-31v89
c-48.667 1.33301 -107.334 8.33301 -176.001 21l-33 6l11 89c90 -12 158.667 -18 206 -18c82.667 0 124 36.667 124 110c0 28.667 -9.33301 49.834 -28 63.501s-60.667 28.667 -126 45s-114 38.833 -146 67.5s-48 74 -48 136s20.167 108.833 60.5 140.5
s96.166 47.5 167.499 47.5c51.333 0 112 -6 182 -18l35 -6l-9 -90c-93.333 10.667 -159.333 16 -198 16c-84.667 0 -127 -29.667 -127 -89c0 -30.667 10 -52.5 30 -65.5s64.167 -29 132.5 -48s116.5 -41.667 144.5 -68s42 -70.333 42 -132s-17.5 -110.167 -52.5 -145.5
s-83.167 -55.333 -144.5 -60v-33c42 -0.666992 72.333 -6.66699 91 -18z" />
    <glyph glyph-name="scedilla" unicode="&#x15f;" horiz-adv-x="469" 
d="M342 -60c18.667 -11.333 27.998 -33.9971 27.998 -67.9971s-9.16699 -59.667 -27.5 -77s-43.833 -26 -76.5 -26c-25.333 0 -51 2.33301 -77 7l-13 3l4 65c22.667 -1.33301 41 -2 55 -2c27.333 0 41 10.333 41 31c0 10 -3.16699 17 -9.5 21s-16.833 6 -31.5 6h-31v90
c-46 2.66699 -90.333 8 -133 16l-24 5l4 91c80 -10.667 137.667 -16 173 -16s60.5 4.33301 75.5 13s22.5 23 22.5 43s-7.16699 33.833 -21.5 41.5s-48.666 16 -102.999 25s-94.166 23.167 -119.499 42.5s-38 54.666 -38 105.999s17.5 89.666 52.5 114.999
s79.833 38 134.5 38c42.667 0 95 -5.33301 157 -16l31 -6l-2 -91c-78.667 10.667 -135.667 16 -171 16s-59.833 -4.16699 -73.5 -12.5s-20.5 -21.5 -20.5 -39.5s7.5 -30.667 22.5 -38s50.333 -15.833 106 -25.5s95.167 -24.834 118.5 -45.501s35 -56.667 35 -108
c0 -98.667 -59.667 -150 -179 -154v-32c42 -0.666992 72.333 -6.66699 91 -18z" />
    <glyph glyph-name="Scaron" unicode="&#x160;" horiz-adv-x="543" 
d="M280 599c-84.667 0 -126.998 -29.668 -126.998 -89.001c0 -30.667 10 -52.5 30 -65.5s64.167 -29 132.5 -48s116.5 -41.667 144.5 -68s42 -67.833 42 -124.5c0 -72 -20.5 -125.833 -61.5 -161.5s-96.833 -53.5 -167.5 -53.5c-56.667 0 -119.334 6.66699 -188.001 20
l-36 7l11 89c90 -12 158.667 -18 206 -18c82.667 0 124 36.667 124 110c0 28.667 -9.33301 49.834 -28 63.501s-60.667 28.667 -126 45s-114 38.833 -146 67.5s-48 74 -48 136s20.167 108.833 60.5 140.5s96.166 47.5 167.499 47.5c51.333 0 112 -6 182 -18l35 -6l-9 -90
c-93.333 10.667 -159.333 16 -198 16zM242.002 775.999l-134 143h117l65 -66l63 66h117l-134 -143h-94z" />
    <glyph glyph-name="scaron" unicode="&#x161;" horiz-adv-x="469" 
d="M413 397c-78.667 10.667 -135.668 16.0049 -171.001 16.0049s-59.833 -4.16699 -73.5 -12.5s-20.5 -21.5 -20.5 -39.5s7.5 -30.667 22.5 -38s50.333 -15.833 106 -25.5s95.167 -24.834 118.5 -45.501s35 -57.334 35 -110.001s-16.833 -91.334 -50.5 -116.001
s-82.834 -37 -147.501 -37c-40.667 0 -92 5.66699 -154 17l-31 5l4 91c80 -10.667 137.667 -16 173 -16s60.5 4.33301 75.5 13s22.5 23 22.5 43s-7.16699 33.833 -21.5 41.5s-48.666 16 -102.999 25s-94.166 23.167 -119.499 42.5s-38 54.666 -38 105.999
s17.5 89.666 52.5 114.999s79.833 38 134.5 38c42.667 0 95 -5.33301 157 -16l31 -6zM208.999 585.005l-125 146h102l59 -75l58 75h102l-127 -146h-69z" />
    <glyph glyph-name="Tcedilla" unicode="&#x162;" horiz-adv-x="0" 
 />
    <glyph glyph-name="tcedilla" unicode="&#x163;" horiz-adv-x="358" 
d="M335 407h-138v-220c0 -40.667 3 -67.667 9 -81s21.333 -20 46 -20l82 3l5 -87c-44.667 -8.66699 -78.667 -13 -102 -13c-56.667 0 -95.5 13 -116.5 39s-31.5 75 -31.5 147v232h-64v93h64v145h108v-145h138v-93zM248 -60c18.667 -11.333 28 -34 28 -68
s-9.16699 -59.667 -27.5 -77s-43.833 -26 -76.5 -26c-25.333 0 -51 2.33301 -77 7l-13 3l4 65c22.667 -1.33301 41 -2 55 -2c27.333 0 41 10.333 41 31c0 10 -3.16699 17 -9.5 21s-16.833 6 -31.5 6h-31v101h47v-43c42 -0.666992 72.333 -6.66699 91 -18z" />
    <glyph glyph-name="Tcaron" unicode="&#x164;" horiz-adv-x="526" 
d="M13 586v99h500v-99h-193v-586h-112v586h-195zM217 776l-134 143h117l65 -66l63 66h117l-134 -143h-94z" />
    <glyph glyph-name="tcaron" unicode="&#x165;" horiz-adv-x="463" 
d="M336 401l-138 0.000976562v-208c0 -40.667 3 -67.667 9 -81s21.333 -20 46 -20l81 3l6 -93c-44.667 -8.66699 -78.667 -13 -102 -13c-56.667 0 -95.667 13.167 -117 39.5s-32 75.166 -32 146.499v226h-64v98h64v146h109v-146h138v-98zM478 693.001v-249h-105v249h105z
" />
    <glyph glyph-name="Tbar" unicode="&#x166;" horiz-adv-x="529" 
d="M14 586v99h500v-99h-193v-218h150v-94h-150v-274h-112v274h-145v94h145v218h-195z" />
    <glyph glyph-name="tbar" unicode="&#x167;" horiz-adv-x="360" 
d="M336 401h-138v-91h112v-82h-112v-35c0 -40.667 3 -67.667 9 -81s21.333 -20 46 -20l82 3l5 -93c-44.667 -8.66699 -78.667 -13 -102 -13c-56.667 0 -95.5 13 -116.5 39s-31.5 75 -31.5 147v53h-41v82h41v91h-64v98h64v146h108v-146h138v-98z" />
    <glyph glyph-name="Utilde" unicode="&#x168;" horiz-adv-x="650" 
d="M185 219c0 -88.667 46.667 -133 140 -133s140 44.333 140 133v466h112v-464c0 -80.667 -21.167 -139.5 -63.5 -176.5s-105.333 -55.5 -189 -55.5s-146.5 18.5 -188.5 55.5s-63 95.833 -63 176.5v464h112v-466zM403 777c-16 0 -45 8.33301 -87 25s-67.333 25 -76 25
c-16.667 0 -38 -11 -64 -33l-13 -11l-24 78l15.5 17.5c6.33301 7 18.333 16.167 36 27.5s35.167 17 52.5 17s46.5 -8.33301 87.5 -25s65.167 -25 72.5 -25c14.667 0 35.667 11 63 33l13 11l24 -79c-10 -14 -25.167 -27.667 -45.5 -41s-38.5 -20 -54.5 -20z" />
    <glyph glyph-name="utilde" unicode="&#x169;" horiz-adv-x="543" 
d="M477 500l-0.000976562 -500h-108v31l-20 -11c-13.333 -6.66699 -31.166 -13.5 -53.499 -20.5s-42.833 -10.5 -61.5 -10.5c-68.667 0 -114.667 18.5 -138 55.5s-35 101.833 -35 194.5v261h109v-262c0 -60 5 -100.333 15 -121s34.167 -31 72.5 -31s75.5 8.66699 111.5 26
v388h108zM380.499 613c-17 -10.667 -32.499 -16 -46.499 -16s-37.167 6.66699 -69.5 20s-53.166 20 -62.499 20c-16 0 -37 -8.33301 -63 -25l-13 -9l-24 63l16 16c6 6 17.667 14.167 35 24.5s33.166 15.5 47.499 15.5s37.666 -6.66699 69.999 -20s52.5 -20 60.5 -20
c14.667 0 35.667 9 63 27l13 9l24 -64l-15 -16c-6.66699 -6 -18.5 -14.333 -35.5 -25z" />
    <glyph glyph-name="Umacron" unicode="&#x16a;" horiz-adv-x="650" 
d="M185 219c0 -88.667 46.667 -133 140 -133s140 44.333 140 133v466h112v-464c0 -80.667 -21.167 -139.5 -63.5 -176.5s-105.333 -55.5 -189 -55.5s-146.5 18.5 -188.5 55.5s-63 95.833 -63 176.5v464h112v-466zM162 795v81h332v-81h-332z" />
    <glyph glyph-name="umacron" unicode="&#x16b;" horiz-adv-x="543" 
d="M477 500l-0.000976562 -500h-108v31l-20 -11c-13.333 -6.66699 -31.166 -13.5 -53.499 -20.5s-42.833 -10.5 -61.5 -10.5c-68.667 0 -114.667 18.5 -138 55.5s-35 101.833 -35 194.5v261h109v-262c0 -60 5 -100.333 15 -121s34.167 -31 72.5 -31s75.5 8.66699 111.5 26
v388h108zM129.999 609v82h282v-82h-282z" />
    <glyph glyph-name="Ubreve" unicode="&#x16c;" horiz-adv-x="650" 
d="M185 219c0 -88.667 46.667 -133 140 -133s140 44.333 140 133v466h112v-464c0 -80.667 -21.167 -139.5 -63.5 -176.5s-105.333 -55.5 -189 -55.5s-146.5 18.5 -188.5 55.5s-63 95.833 -63 176.5v464h112v-466zM275.5 867c13.667 -12 31.167 -18 52.5 -18
s38.833 6 52.5 18s21.167 27.667 22.5 47h99c-4 -43.333 -21 -78 -51 -104s-71.167 -39 -123.5 -39s-93.5 13 -123.5 39s-46.667 60.667 -50 104h99c1.33301 -19.333 8.83301 -35 22.5 -47z" />
    <glyph glyph-name="ubreve" unicode="&#x16d;" horiz-adv-x="543" 
d="M477 500l-0.000976562 -500h-108v31l-20 -11c-13.333 -6.66699 -31.166 -13.5 -53.499 -20.5s-42.833 -10.5 -61.5 -10.5c-68.667 0 -114.667 18.5 -138 55.5s-35 101.833 -35 194.5v261h109v-262c0 -60 5 -100.333 15 -121s34.167 -31 72.5 -31s75.5 8.66699 111.5 26
v388h108zM217.499 674c13 -13.333 30.332 -20 51.999 -20s38.834 6.83301 51.501 20.5s19.667 31.5 21 53.5h84c-4 -42 -19.833 -77.333 -47.5 -106s-64.167 -43 -109.5 -43s-82 14.333 -110 43s-44 64 -48 106h84c2 -22.667 9.5 -40.667 22.5 -54z" />
    <glyph glyph-name="Uring" unicode="&#x16e;" horiz-adv-x="650" 
d="M185 219c0 -88.667 46.667 -133 140 -133s140 44.333 140 133v466h112v-464c0 -80.667 -21.167 -139.5 -63.5 -176.5s-105.333 -55.5 -189 -55.5s-146.5 18.5 -188.5 55.5s-63 95.833 -63 176.5v464h112v-466zM464 842c0 -36 -13 -64.5 -39 -85.5
s-58.5 -31.5 -97.5 -31.5s-71.5 10.5 -97.5 31.5s-39 49.5 -39 85.5s13 64.5 39 85.5s58.5 31.5 97.5 31.5s71.5 -10.5 97.5 -31.5s39 -49.5 39 -85.5zM267 842c0 -14.667 5.33301 -26 16 -34s25.334 -12 44.001 -12s33.5 4 44.5 12s16.5 19.333 16.5 34
s-5.5 26.167 -16.5 34.5s-25.833 12.5 -44.5 12.5s-33.334 -4.16699 -44.001 -12.5s-16 -19.833 -16 -34.5z" />
    <glyph glyph-name="uring" unicode="&#x16f;" horiz-adv-x="543" 
d="M477 500l-0.000976562 -500h-108v31l-20 -11c-13.333 -6.66699 -31.166 -13.5 -53.499 -20.5s-42.833 -10.5 -61.5 -10.5c-68.667 0 -114.667 18.5 -138 55.5s-35 101.833 -35 194.5v261h109v-262c0 -60 5 -100.333 15 -121s34.167 -31 72.5 -31s75.5 8.66699 111.5 26
v388h108zM191.999 561.5c-21.333 21 -32 47.333 -32 79s10.667 58.167 32 79.5s47.666 32 78.999 32s57.833 -10.833 79.5 -32.5s32.5 -48.167 32.5 -79.5s-10.833 -57.5 -32.5 -78.5s-48.167 -31.5 -79.5 -31.5s-57.666 10.5 -78.999 31.5zM235.999 676.5
c-9.33301 -9.66699 -14 -21.667 -14 -36s4.66699 -26.333 14 -36s21.166 -14.5 35.499 -14.5s26.166 4.83301 35.499 14.5s14 21.667 14 36s-4.66699 26.333 -14 36s-21.166 14.5 -35.499 14.5s-26.166 -4.83301 -35.499 -14.5z" />
    <glyph glyph-name="Uhungarumlaut" unicode="&#x170;" horiz-adv-x="650" 
d="M185 219c0 -88.667 46.667 -133 140 -133s140 44.333 140 133v466h112v-464c0 -80.667 -21.167 -139.5 -63.5 -176.5s-105.333 -55.5 -189 -55.5s-146.5 18.5 -188.5 55.5s-63 95.833 -63 176.5v464h112v-466zM357 779l99 169l90 -39l-108 -164zM153 780l100 169l89 -39
l-107 -164z" />
    <glyph glyph-name="uhungarumlaut" unicode="&#x171;" horiz-adv-x="543" 
d="M477 500l-0.000976562 -500h-108v31l-20 -11c-13.333 -6.66699 -31.166 -13.5 -53.499 -20.5s-42.833 -10.5 -61.5 -10.5c-68.667 0 -114.667 18.5 -138 55.5s-35 101.833 -35 194.5v261h109v-262c0 -60 5 -100.333 15 -121s34.167 -31 72.5 -31s75.5 8.66699 111.5 26
v388h108zM300.999 626l129 168l85 -57l-135 -166zM101.999 626l129 167l85 -56l-135 -166z" />
    <glyph glyph-name="Uogonek" unicode="&#x172;" horiz-adv-x="651" 
d="M185 219c0 -88.667 46.666 -132.999 139.999 -132.999s140 44.333 140 133v466h112v-464c0 -124 -53 -198 -159 -222c-40.667 -36.667 -61 -66.334 -61 -89.001c0 -11.333 3.33301 -20.5 10 -27.5s15.334 -10.5 26.001 -10.5l45 5l10 -79
c-35.333 -6.66699 -66.833 -10 -94.5 -10s-51 8.33301 -70 25s-28.5 41.167 -28.5 73.5s18.667 66.5 56 102.5c-79.333 2 -138.833 21.5 -178.5 58.5s-59.5 94.833 -59.5 173.5v464h112v-466z" />
    <glyph glyph-name="uogonek" unicode="&#x173;" horiz-adv-x="543" 
d="M369 499l107.999 -0.00195312v-499c-16 -10 -32.167 -24.333 -48.5 -43s-24.5 -34 -24.5 -46s3.33301 -21.5 10 -28.5s15.334 -10.5 26.001 -10.5l45 5l10 -79c-35.333 -6.66699 -67 -10 -95 -10s-51.5 8.33301 -70.5 25s-28.5 39.334 -28.5 68.001
c0 40.667 25.333 80.334 76 119.001h-8v26c-52 -24.667 -97 -37 -135 -37c-68.667 0 -114.667 18.5 -138 55.5s-35 101.833 -35 194.5v260h109v-260c0 -60 5 -100.333 15 -121s33.333 -31 70 -31c26 0 58 6.33301 96 19l18 6v387z" />
    <glyph glyph-name="Wcircumflex" unicode="&#x174;" horiz-adv-x="911" 
d="M24 685h117l98 -589h21l130 587h130l130 -587h22l98 589h117l-135 -685h-179l-118 549l-117 -549h-180zM275 775l134 143h94l134 -143h-116l-64 67l-65 -67h-117z" />
    <glyph glyph-name="wcircumflex" unicode="&#x175;" horiz-adv-x="768" 
d="M27 500h107l79 -407h20l95 397h112l95 -397h20l78 407h108l-106 -500h-173l-78 343l-78 -343h-173zM225 585l125 146h69l127 -146h-102l-58 76l-58 -76h-103z" />
    <glyph glyph-name="Ycircumflex" unicode="&#x176;" horiz-adv-x="549" 
d="M331 0h-112v282l-215 403h125l145 -294l146 294h124l-213 -403v-282zM95 776l134 143h94l134 -143h-116l-64 67l-65 -67h-117z" />
    <glyph glyph-name="ycircumflex" unicode="&#x177;" horiz-adv-x="492" 
d="M20 500h107l106 -407h27l106 407h108l-190 -715h-107l60 215h-86zM88 585l125 146h69l127 -146h-102l-58 76l-58 -76h-103z" />
    <glyph glyph-name="Ydieresis" unicode="&#x178;" horiz-adv-x="549" 
d="M331 0h-112v282l-215 403h125l145 -294l146 294h124l-213 -403v-282zM116 783v114h104v-114h-104zM325 783v114h104v-114h-104z" />
    <glyph glyph-name="Zacute" unicode="&#x179;" horiz-adv-x="534" 
d="M42 588v97h450v-107l-318 -462v-19h318v-97h-450v106l317 462v20h-317zM135 836l236 103l35 -97l-243 -82z" />
    <glyph glyph-name="zacute" unicode="&#x17a;" horiz-adv-x="454" 
d="M41 500h371v-97l-240 -306h240v-97h-371v97l241 306h-241v97zM95 647l236 101l34 -94l-244 -78z" />
    <glyph glyph-name="Zdotaccent" unicode="&#x17b;" horiz-adv-x="534" 
d="M42 588v97h450v-107l-318 -462v-19h318v-97h-450v106l317 462v20h-317zM213 782v114h108v-114h-108z" />
    <glyph glyph-name="zdotaccent" unicode="&#x17c;" horiz-adv-x="454" 
d="M41 500h371v-97l-240 -306h240v-97h-371v97l241 306h-241v97zM172 579v114h108v-114h-108z" />
    <glyph glyph-name="Zcaron" unicode="&#x17d;" horiz-adv-x="534" 
d="M42 588v97h450v-107l-318 -462v-19h318v-97h-450v106l317 462v20h-317zM225 776l-134 143h117l65 -66l63 66h117l-134 -143h-94z" />
    <glyph glyph-name="zcaron" unicode="&#x17e;" horiz-adv-x="454" 
d="M41 403v97h371v-97l-240 -306h240v-97h-371v97l241 306h-241zM199 585l-125 146h102l59 -75l58 75h102l-127 -146h-69z" />
    <glyph glyph-name="florin" unicode="&#x192;" 
d="M304 -50c0 -68 -12.332 -115.333 -36.999 -142s-65 -40 -121 -40c-24 0 -53.333 2.66699 -88 8l-16 3v90c42 -2.66699 72.667 -4 92 -4c40.667 0 61 29 61 87v425h-58v93h58v37c0 68 10 117.5 30 148.5s57 46.5 111 46.5c17.333 0 46.666 -2.66699 87.999 -8l19 -3v-89
c-30 1.33301 -56.167 2 -78.5 2s-38 -6.83301 -47 -20.5s-13.5 -36.5 -13.5 -68.5v-45h131v-93h-131v-427z" />
    <glyph glyph-name="Aringacute" unicode="&#x1fa;" horiz-adv-x="599" 
d="M435 731c0 -25.333 -6.66699 -47.333 -20 -66l165 -665h-112l-37 147h-263l-37 -147h-111l163 663c-14 19.333 -21 44.5 -21 75.5s13 57 39 78s58.5 31.5 97.5 31.5s71.5 -10.5 97.5 -31.5s39 -49.5 39 -85.5zM275 592l-85 -347h219l-84 347h-50zM155 933l236 103l35 -97
l-243 -82zM238 731c0 -14.667 5.33301 -25.999 16 -33.999s25.334 -12 44.001 -12h5c17.333 0.666992 31 5 41 13s15 19.167 15 33.5s-5.5 25.666 -16.5 33.999s-25.833 12.5 -44.5 12.5s-33.334 -4.16699 -44.001 -12.5s-16 -19.833 -16 -34.5z" />
    <glyph glyph-name="aringacute" unicode="&#x1fb;" horiz-adv-x="507" 
d="M436 346v-228.004c0.666992 -14.667 4.5 -25.5 11.5 -32.5s17.833 -11.5 32.5 -13.5l-3 -83c-57.333 0 -101.666 12.333 -132.999 37c-53.333 -24.667 -107 -37 -161 -37c-99.333 0 -149 53 -149 159c0 50.667 13.5 87.334 40.5 110.001s68.5 36.334 124.5 41.001l129 11
v36c0 26.667 -5.83301 45.334 -17.5 56.001s-28.834 16 -51.501 16c-42.667 0 -96 -2.66699 -160 -8l-32 -2l-4 77c72.667 17.333 139.5 26 200.5 26s105 -13.167 132 -39.5s40.5 -68.166 40.5 -125.499zM212 221.996c-46 -4 -68.999 -29 -68.999 -75s20.333 -69 61 -69
c33.333 0 68.666 5.33301 105.999 16l18 6v133zM170.001 561.496c-21.333 21 -32 47.333 -32 79s10.667 58.167 32 79.5s47.666 32 78.999 32s57.833 -10.833 79.5 -32.5s32.5 -48.167 32.5 -79.5s-10.833 -57.5 -32.5 -78.5s-48.167 -31.5 -79.5 -31.5
s-57.666 10.5 -78.999 31.5zM214.001 676.496c-9.33301 -9.66699 -14 -21.667 -14 -36s4.66699 -26.333 14 -36s21.166 -14.5 35.499 -14.5s26.166 4.83301 35.499 14.5s14 21.667 14 36s-4.66699 26.333 -14 36s-21.166 14.5 -35.499 14.5s-26.166 -4.83301 -35.499 -14.5z
M118.001 839.996l236 101l34 -94l-244 -78z" />
    <glyph glyph-name="AEacute" unicode="&#x1fc;" horiz-adv-x="874" 
d="M400 0v142h-229l-42 -142h-113l202 693h612v-107h-320v-181h260v-105h-260v-193h320v-107h-430zM297 586l-98 -337h201l1 337h-104zM386 836l236 103l35 -97l-243 -82z" />
    <glyph glyph-name="aeacute" unicode="&#x1fd;" horiz-adv-x="793" 
d="M706 94l29.001 3l2 -85c-76.667 -15.333 -146.334 -23 -209.001 -23s-110.667 16.667 -144 50l-27 -12c-57.333 -25.333 -117.333 -38 -180 -38c-46.667 0 -82.167 14 -106.5 42s-36.5 67.833 -36.5 119.5s14.167 88.5 42.5 110.5s73.166 35.333 134.499 40l117 9v32
c0 21.333 -5.83301 37.5 -17.5 48.5s-28.167 16.5 -49.5 16.5c-50 0 -103 -2.66699 -159 -8l-32 -3l-4 96c84.667 12 155 18 211 18s97 -17.333 123 -52c32.667 34.667 82.334 52 149.001 52c136 0 204 -76 204 -228l-7 -79h-310c0.666992 -40 9.66699 -69.167 27 -87.5
s49.833 -27.5 97.5 -27.5s96.167 2 145.5 6zM197.001 82c30 0 60 3.83301 90 11.5s46 12.167 48 13.5c-5.33301 31.333 -8 71 -8 119l-115 -8c-46 -3.33301 -69 -26.833 -69 -70.5s18 -65.5 54 -65.5zM436.001 288l210 0.000976562c0 45.333 -8 77.666 -24 96.999
s-42.5 29 -79.5 29s-64 -10 -81 -30s-25.5 -52 -25.5 -96zM271.001 647.001l236 101l34 -94l-244 -78z" />
    <glyph glyph-name="Oslashacute" unicode="&#x1fe;" horiz-adv-x="658" 
d="M329 -11c-40.667 0 -76.334 3.99805 -107.001 11.998l-57 -123l-80 39l58 124c-62 50 -93 149.333 -93 298c0 120.667 20.833 210.334 62.5 269.001s113.834 88 216.501 88c40.667 0 78 -5.33301 112 -16l58 125l82 -35l-62 -133c58.667 -53.333 88 -152.666 88 -297.999
c0 -121.333 -20.5 -210 -61.5 -266s-113.167 -84 -216.5 -84zM200 536.998c-23.333 -41.333 -35 -106.667 -35 -196s10 -152.333 30 -189l203 436c-20 7.33301 -43 11 -69 11c-62.667 0 -105.667 -20.667 -129 -62zM329 85.9971c64 0 107.167 19.333 129.5 58
s33.5 101.5 33.5 188.5s-9 150.167 -27 189.5l-199 -428c19.333 -5.33301 40.333 -8 63 -8zM187 835.997l236 103l35 -97l-243 -82z" />
    <glyph glyph-name="oslashacute" unicode="&#x1ff;" horiz-adv-x="530" 
d="M265 511c17.333 0 38.667 -1.99805 64 -5.99805l41 101l68 -25l-42 -101c61.333 -36.667 92 -112.334 92 -227.001c0 -88 -16.667 -154 -50 -198s-91 -66 -173 -66c-25.333 0 -48 2 -68 6l-43 -105l-67 25l44 105c-59.333 38 -89 115.667 -89 233
c0 85.333 17.167 149.666 51.5 192.999s91.5 65 171.5 65zM265.001 81.002c44.667 0 74.667 13.333 90 40s23 70.667 23 132s-8.66699 104.333 -26 129l-121 -298c10 -2 21.333 -3 34 -3zM131.001 647.002l236 101l34 -94l-244 -78zM265.001 419.002
c-42.667 0 -72.167 -12.667 -88.5 -38s-24.5 -69.5 -24.5 -132.5s8 -106.167 24 -129.5l119 297c-8.66699 2 -18.667 3 -30 3z" />
    <glyph glyph-name="Scommaaccent" unicode="&#x218;" horiz-adv-x="543" 
d="M230 -77h106l-53 -223h-97zM280 599c-84.667 0 -126.998 -29.668 -126.998 -89.001c0 -30.667 10 -52.5 30 -65.5s64.167 -29 132.5 -48s116.5 -41.667 144.5 -68s42 -67.833 42 -124.5c0 -72 -20.5 -125.833 -61.5 -161.5s-96.833 -53.5 -167.5 -53.5
c-56.667 0 -119.334 6.66699 -188.001 20l-36 7l11 89c90 -12 158.667 -18 206 -18c82.667 0 124 36.667 124 110c0 28.667 -9.33301 49.834 -28 63.501s-60.667 28.667 -126 45s-114 38.833 -146 67.5s-48 74 -48 136s20.167 108.833 60.5 140.5s96.166 47.5 167.499 47.5
c51.333 0 112 -6 182 -18l35 -6l-9 -90c-93.333 10.667 -159.333 16 -198 16z" />
    <glyph glyph-name="scommaaccent" unicode="&#x219;" horiz-adv-x="469" 
d="M82 -77h106l-53 -223h-97zM413 397c-78.667 10.667 -135.668 16.0049 -171.001 16.0049s-59.833 -4.16699 -73.5 -12.5s-20.5 -21.5 -20.5 -39.5s7.5 -30.667 22.5 -38s50.333 -15.833 106 -25.5s95.167 -24.834 118.5 -45.501s35 -57.334 35 -110.001
s-16.833 -91.334 -50.5 -116.001s-82.834 -37 -147.501 -37c-40.667 0 -92 5.66699 -154 17l-31 5l4 91c80 -10.667 137.667 -16 173 -16s60.5 4.33301 75.5 13s22.5 23 22.5 43s-7.16699 33.833 -21.5 41.5s-48.666 16 -102.999 25s-94.166 23.167 -119.499 42.5
s-38 54.666 -38 105.999s17.5 89.666 52.5 114.999s79.833 38 134.5 38c42.667 0 95 -5.33301 157 -16l31 -6z" />
    <glyph glyph-name="Tcommaaccent" unicode="&#x21a;" horiz-adv-x="526" 
d="M233 -77h106l-53 -223h-97zM13 586v99h500v-99h-193v-586h-112v586h-195z" />
    <glyph glyph-name="tcommaaccent" unicode="&#x21b;" horiz-adv-x="358" 
d="M89 -77h106l-53 -223h-97zM335 407h-138v-220c0 -40.667 3 -67.667 9 -81s21.333 -20 46 -20l82 3l5 -87c-44.667 -8.66699 -78.667 -13 -102 -13c-56.667 0 -95.5 13 -116.5 39s-31.5 75 -31.5 147v232h-64v93h64v145h108v-145h138v-93z" />
    <glyph glyph-name="circumflex" unicode="&#x2c6;" horiz-adv-x="254" 
d="M-22 585l125 146h69l127 -146h-102l-58 76l-58 -76h-103z" />
    <glyph glyph-name="caron" unicode="&#x2c7;" horiz-adv-x="254" 
d="M106 585l-125 146h102l59 -75l58 75h102l-127 -146h-69z" />
    <glyph glyph-name="breve" unicode="&#x2d8;" horiz-adv-x="254" 
d="M87.5 674c13 -13.333 30.332 -20 51.999 -20s38.834 6.83301 51.501 20.5s19.667 31.5 21 53.5h84c-4 -42 -19.833 -77.333 -47.5 -106s-64.167 -43 -109.5 -43s-82 14.333 -110 43s-44 64 -48 106h84c2 -22.667 9.5 -40.667 22.5 -54z" />
    <glyph glyph-name="dotaccent" unicode="&#x2d9;" horiz-adv-x="254" 
d="M73 579v114h108v-114h-108z" />
    <glyph glyph-name="ring" unicode="&#x2da;" horiz-adv-x="254" 
d="M51 561.5c-21.333 21 -32 47.333 -32 79s10.667 58.167 32 79.5s47.666 32 78.999 32s57.833 -10.833 79.5 -32.5s32.5 -48.167 32.5 -79.5s-10.833 -57.5 -32.5 -78.5s-48.167 -31.5 -79.5 -31.5s-57.666 10.5 -78.999 31.5zM95 676.5
c-9.33301 -9.66699 -14 -21.667 -14 -36s4.66699 -26.333 14 -36s21.166 -14.5 35.499 -14.5s26.166 4.83301 35.499 14.5s14 21.667 14 36s-4.66699 26.333 -14 36s-21.166 14.5 -35.499 14.5s-26.166 -4.83301 -35.499 -14.5z" />
    <glyph glyph-name="ogonek" unicode="&#x2db;" horiz-adv-x="464" 
d="M308 -90c0 -11.333 3.33301 -20.499 10 -27.499s15.334 -10.5 26.001 -10.5l45 5l10 -79c-35.333 -6.66699 -66.833 -10 -94.5 -10s-51 8.33301 -70 25s-28.5 37.5 -28.5 62.5s6.66699 48.167 20 69.5s26.666 37.666 39.999 48.999l21 16l85 -9
c-42.667 -38 -64 -68.333 -64 -91z" />
    <glyph glyph-name="tilde" unicode="&#x2dc;" horiz-adv-x="254" 
d="M253.5 613c-17 -10.667 -32.499 -16 -46.499 -16s-37.167 6.66699 -69.5 20s-52.833 20 -61.5 20c-16.667 0 -38 -8.33301 -64 -25l-13 -9l-24 63l15 16c6.66699 6 18.667 14.167 36 24.5s33.166 15.5 47.499 15.5s37.666 -6.66699 69.999 -20s52.5 -20 60.5 -20
c14.667 0 35.334 9 62.001 27l14 9l24 -64l-16 -16c-6 -6 -17.5 -14.333 -34.5 -25z" />
    <glyph glyph-name="hungarumlaut" unicode="&#x2dd;" horiz-adv-x="254" 
d="M149 626l129 168l85 -57l-135 -166zM-50 626l129 167l85 -56l-135 -166z" />
    <glyph glyph-name="pi" unicode="&#x3c0;" 
d="M337 154l-0.00195312 253h-116l-27 -407h-109l31 407c-23.333 0 -50.666 -3.33301 -81.999 -10l-14 -3v89c41.333 11.333 90 17 146 17h244c40.667 0 75.334 3.33301 104.001 10l15 3v-90c-17.333 -7.33301 -45.333 -12 -84 -14v-255c0 -26 5.16699 -44 15.5 -54
s30.833 -15 61.5 -15v-92c-41.333 0 -73.5 2 -96.5 6s-41.5 12.5 -55.5 25.5s-23 29.167 -27 48.5s-6 46.333 -6 81z" />
    <glyph glyph-name="Wgrave" unicode="&#x1e80;" horiz-adv-x="911" 
d="M24 685h117l98 -589h21l130 587h130l130 -587h22l98 589h117l-135 -685h-179l-118 549l-117 -549h-180zM358 939l236 -103l-28 -76l-243 82z" />
    <glyph glyph-name="wgrave" unicode="&#x1e81;" horiz-adv-x="768" 
d="M27 500h107l79 -407h20l95 397h112l95 -397h20l78 407h108l-106 -500h-173l-78 343l-78 -343h-173zM265 748l236 -101l-26 -71l-244 78z" />
    <glyph glyph-name="Wacute" unicode="&#x1e82;" horiz-adv-x="911" 
d="M24 685h117l98 -589h21l130 587h130l130 -587h22l98 589h117l-135 -685h-179l-118 549l-117 -549h-180zM330 836l236 103l35 -97l-243 -82z" />
    <glyph glyph-name="wacute" unicode="&#x1e83;" horiz-adv-x="768" 
d="M27 500h107l79 -407h20l95 397h112l95 -397h20l78 407h108l-106 -500h-173l-78 343l-78 -343h-173zM262 647l236 101l34 -94l-244 -78z" />
    <glyph glyph-name="Wdieresis" unicode="&#x1e84;" horiz-adv-x="911" 
d="M24 685h117l98 -589h21l130 587h130l130 -587h22l98 589h117l-135 -685h-179l-118 549l-117 -549h-180zM298 783v114h104v-114h-104zM507 783v114h104v-114h-104z" />
    <glyph glyph-name="wdieresis" unicode="&#x1e85;" horiz-adv-x="768" 
d="M27 500h107l79 -407h20l95 397h112l95 -397h20l78 407h108l-106 -500h-173l-78 343l-78 -343h-173zM229 607v114h104v-114h-104zM438 607v114h104v-114h-104z" />
    <glyph glyph-name="uni1EAB" unicode="&#x1eab;" horiz-adv-x="507" 
d="M436 346v-228.004c0.666992 -14.667 4.5 -25.5 11.5 -32.5s17.833 -11.5 32.5 -13.5l-3 -83c-57.333 0 -101.666 12.333 -132.999 37c-53.333 -24.667 -107 -37 -161 -37c-99.333 0 -149 53 -149 159c0 50.667 13.5 87.334 40.5 110.001s68.5 36.334 124.5 41.001l129 11
v36c0 26.667 -5.83301 45.334 -17.5 56.001s-28.834 16 -51.501 16c-42.667 0 -96 -2.66699 -160 -8l-32 -2l-4 77c72.667 17.333 139.5 26 200.5 26s105 -13.167 132 -39.5s40.5 -68.166 40.5 -125.499zM212 221.996c-46 -4 -68.999 -29 -68.999 -75s20.333 -69 61 -69
c33.333 0 68.666 5.33301 105.999 16l18 6v133zM75.001 554.996l125 146h69l127 -146h-102l-58 76l-58 -76h-103zM343.501 756.996c-17 -10.667 -32.499 -16 -46.499 -16s-37.167 6.66699 -69.5 20s-52.833 20 -61.5 20c-16.667 0 -38 -8.33301 -64 -25l-13 -9l-24 63l15 16
c6.66699 6 18.667 14.167 36 24.5s33.166 15.5 47.499 15.5s37.666 -6.66699 69.999 -20s52.5 -20 60.5 -20c14.667 0 35.334 9 62.001 27l14 9l24 -64l-16 -16c-6 -6 -17.5 -14.333 -34.5 -25z" />
    <glyph glyph-name="uni1EB0" unicode="&#x1eb0;" horiz-adv-x="597" 
d="M20 0l169 693h221l167 -692h-112l-40 141h-257l-37 -142h-111zM275 590l-83 -341h211l-81 341h-47zM248.5 830c13.667 -12 31.167 -18 52.5 -18s38.833 6 52.5 18s21.167 27.667 22.5 47h99c-4 -43.333 -21 -78 -51 -104s-71.167 -39 -123.5 -39s-93.5 13 -123.5 39
s-46.667 60.667 -50 104h99c1.33301 -19.333 8.83301 -35 22.5 -47zM144 1101l236 -101l-26 -71l-244 78z" />
    <glyph glyph-name="uni1EC5" unicode="&#x1ec5;" horiz-adv-x="509" 
d="M422 94l28 2.99902l2 -85c-76 -15.333 -143.333 -23 -202 -23c-74 0 -127.167 20.333 -159.5 61s-48.5 105.667 -48.5 195c0 176.667 72.333 265 217 265c70.667 0 123.334 -18.667 158.001 -56s52 -94.666 52 -171.999l-7 -79h-310
c0.666992 -40 9.66699 -69.167 27 -87.5s49.666 -27.5 96.999 -27.5s96 2 146 6zM362 287.999c0 45.333 -8 77.667 -24 97s-42.5 29 -79.5 29s-64 -10 -81 -30s-25.833 -52 -26.5 -96h211zM101 555l125 146h69l127 -146h-102l-58 76l-58 -76h-103zM366.5 757
c-17 -10.667 -32.499 -16 -46.499 -16s-37.167 6.66699 -69.5 20s-53.166 20 -62.499 20c-16 0 -37 -8.33301 -63 -25l-13 -9l-24 63l16 16c6 6 17.667 14.167 35 24.5s33.166 15.5 47.499 15.5s37.666 -6.66699 69.999 -20s52.5 -20 60.5 -20c14.667 0 35.667 9 63 27l13 9
l24 -64l-15 -16c-6.66699 -6 -18.5 -14.333 -35.5 -25z" />
    <glyph glyph-name="uni1ED7" unicode="&#x1ed7;" horiz-adv-x="530" 
d="M265 511c80 0 137.167 -21.667 171.5 -65s51.5 -108.333 51.5 -195s-16.667 -152 -50 -196s-91 -66 -173 -66s-139.667 22 -173 66s-50 109.333 -50 196s17.167 151.667 51.5 195s91.5 65 171.5 65zM265 81c44.667 0 74.667 13.333 90 40s23 70.334 23 131.001
s-8.16699 103.667 -24.5 129s-45.833 38 -88.5 38s-72.167 -12.667 -88.5 -38s-24.5 -68.333 -24.5 -129s7.66699 -104.334 23 -131.001s45.333 -40 90 -40zM103 555l125 146h69l127 -146h-102l-58 76l-58 -76h-103zM363.5 757c-17 -10.667 -32.499 -16 -46.499 -16
s-37.167 6.66699 -69.5 20s-52.833 20 -61.5 20c-16.667 0 -38 -8.33301 -64 -25l-13 -9l-24 63l15 16c6.66699 6 18.667 14.167 36 24.5s33.166 15.5 47.499 15.5s37.666 -6.66699 69.999 -20s52.5 -20 60.5 -20c14.667 0 35.334 9 62.001 27l14 9l24 -64l-16 -16
c-6 -6 -17.5 -14.333 -34.5 -25z" />
    <glyph glyph-name="Ygrave" unicode="&#x1ef2;" horiz-adv-x="549" 
d="M331 0h-112v282l-215 403h125l145 -294l146 294h124l-213 -403v-282zM175 939l236 -103l-28 -76l-243 82z" />
    <glyph glyph-name="ygrave" unicode="&#x1ef3;" horiz-adv-x="492" 
d="M20 500h107l106 -407h27l106 407h108l-190 -715h-107l60 215h-86zM125 748l236 -101l-26 -71l-244 78z" />
    <glyph glyph-name="uni1EF8" unicode="&#x1ef8;" horiz-adv-x="537" 
d="M325 0h-111v297l-213 396h124l144 -272l143 272h124l-211 -397v-296zM378.5 806c-17 -10.667 -32.499 -15.999 -46.499 -15.999s-37.167 6.66699 -69.5 20s-53.166 20 -62.499 20c-16 0 -37 -8.66699 -63 -26l-13 -8l-24 63l16 15c6 6.66699 17.667 15.167 35 25.5
s33.166 15.5 47.499 15.5s37.666 -6.66699 69.999 -20s52.5 -20 60.5 -20c14.667 0 35.667 9 63 27l13 9l24 -64l-15 -15c-6.66699 -6.66699 -18.5 -15.334 -35.5 -26.001z" />
    <glyph glyph-name="uni1EF9" unicode="&#x1ef9;" horiz-adv-x="492" 
d="M20 499h107l106 -394h27l106 394h108l-190 -714h-107l57 215h-83zM357.5 613c-17 -10.667 -32.499 -16 -46.499 -16s-37.167 6.66699 -69.5 20s-52.833 20 -61.5 20c-16.667 0 -38 -8.33301 -64 -25l-13 -9l-24 63l15 16c6.66699 6 18.667 14.167 36 24.5
s33.166 15.5 47.499 15.5s37.666 -6.66699 69.999 -20s52.5 -20 60.5 -20c14.667 0 35.334 9 62.001 27l14 9l24 -64l-16 -16c-6 -6 -17.5 -14.333 -34.5 -25z" />
    <glyph glyph-name="endash" unicode="&#x2013;" horiz-adv-x="622" 
d="M61 313h500v-93h-500v93z" />
    <glyph glyph-name="emdash" unicode="&#x2014;" horiz-adv-x="1122" 
d="M61 313h1000v-93h-1000v93z" />
    <glyph glyph-name="quoteleft" unicode="&#x2018;" horiz-adv-x="242" 
d="M201 691l-45 -235h-114l76 235h83z" />
    <glyph glyph-name="quoteright" unicode="&#x2019;" horiz-adv-x="238" 
d="M47 457l45 235h114l-76 -235h-83z" />
    <glyph glyph-name="quotesinglbase" unicode="&#x201a;" horiz-adv-x="239" 
d="M57 -57l22 113h54l-36 -113h-40z" />
    <glyph glyph-name="quotedblleft" unicode="&#x201c;" horiz-adv-x="413" 
d="M372 691l-45 -235h-114l76 235h83zM201 691l-45 -235h-114l76 235h83z" />
    <glyph glyph-name="quotedblright" unicode="&#x201d;" horiz-adv-x="412" 
d="M47 458l45 235h114l-76 -235h-83zM220 458l45 235h114l-76 -235h-83z" />
    <glyph glyph-name="quotedblbase" unicode="&#x201e;" horiz-adv-x="394" 
d="M165 115l-45 -235h-114l76 235h83zM339 115l-45 -235h-114l76 235h83z" />
    <glyph glyph-name="dagger" unicode="&#x2020;" horiz-adv-x="479" 
d="M31 407v93h154v185h109v-185h155v-93h-155l-8 -480h-93l-8 480h-154z" />
    <glyph glyph-name="daggerdbl" unicode="&#x2021;" horiz-adv-x="516" 
d="M204 -73v185h-155v93h155v202h-155v93h155v185h108v-185h154v-93h-154v-202h155v-93h-155v-185h-108z" />
    <glyph glyph-name="bullet" unicode="&#x2022;" horiz-adv-x="460" 
d="M105 103v282h250v-282h-250z" />
    <glyph glyph-name="ellipsis" unicode="&#x2026;" horiz-adv-x="748" 
d="M61 0v144h117v-144h-117zM316 0v144h117v-144h-117zM570 0v144h117v-144h-117z" />
    <glyph glyph-name="perthousand" unicode="&#x2030;" horiz-adv-x="841" 
d="M122 586.5c-4.66699 -11.667 -7 -30.832 -7 -57.499s2.33301 -46 7 -58s13.5 -18 26.5 -18s21.833 5.83301 26.5 17.5s7 31.167 7 58.5s-2.33301 46.666 -7 57.999s-13.5 17 -26.5 17s-21.833 -5.83301 -26.5 -17.5zM151 -5.99805l222 697l62 -21l-222 -696zM33 529.002
c0 94.667 38.5 142 115.5 142s115.5 -47.333 115.5 -142c0 -48 -10 -84 -30 -108s-48.5 -36 -85.5 -36s-65.5 12 -85.5 36s-30 60 -30 108zM437 -10.998c-76.667 0 -115 47.667 -115 143s38.5 143 115.5 143s115.5 -47.333 115.5 -142c0 -48 -10 -84 -30 -108
s-48.667 -36 -86 -36zM410.5 189.502c-5 -11.667 -7.5 -30.667 -7.5 -57s2.5 -45.666 7.5 -57.999s13.833 -18.5 26.5 -18.5s21.5 6.16699 26.5 18.5s7.5 31.666 7.5 57.999s-2.5 45.333 -7.5 57s-13.833 17.5 -26.5 17.5s-21.5 -5.83301 -26.5 -17.5zM579 133.002
c0 94.667 38.5 142 115.5 142s115.5 -47.333 115.5 -142c0 -48 -10 -84 -30 -108s-48.5 -36 -85.5 -36s-65.5 12 -85.5 36s-30 60 -30 108zM667.5 189.502c-5 -11.667 -7.5 -30.668 -7.5 -57.001s2.5 -45.666 7.5 -57.999s13.833 -18.5 26.5 -18.5s21.5 6 26.5 18
s7.5 31.5 7.5 58.5s-2.33301 46.167 -7 57.5s-13.5 17 -26.5 17s-22 -5.83301 -27 -17.5z" />
    <glyph glyph-name="guilsinglleft" unicode="&#x2039;" horiz-adv-x="311" 
d="M251 330l-116 -83l116 -94v-111l-209 162v81l209 155v-110z" />
    <glyph glyph-name="guilsinglright" unicode="&#x203a;" horiz-adv-x="311" 
d="M175 254l-116 83v110l209 -155v-80l-209 -163v111z" />
    <glyph glyph-name="fraction" unicode="&#x2044;" horiz-adv-x="0" 
d="M-224 29l393 631l47 -30l-393 -633z" />
    <glyph glyph-name="zerosuperior" unicode="&#x2070;" horiz-adv-x="280" 
d="M45.5 762.5c20.333 25 51.668 37.501 94.001 37.501s73.666 -12.667 93.999 -38s30.5 -68.333 30.5 -129s-10.167 -103.334 -30.5 -128.001s-51.5 -37 -93.5 -37s-73.333 12.333 -94 37s-31 67.5 -31 128.5s10.167 104 30.5 129zM166.502 703.501
c-5 12.333 -13.667 18.501 -26 18.501s-21.166 -6.16699 -26.499 -18.5s-8 -35.833 -8 -70.5s2.66699 -57.834 8 -69.501s14.166 -17.5 26.499 -17.5s21 5.66699 26 17s7.5 34.5 7.5 69.5s-2.5 58.667 -7.5 71z" />
    <glyph glyph-name="foursuperior" unicode="&#x2074;" horiz-adv-x="280" 
d="M154 478v41h-136v73l52 198h98l-61 -192h47l10 89h77v-89h18v-79h-18v-41h-87z" />
    <glyph glyph-name="fivesuperior" unicode="&#x2075;" horiz-adv-x="280" 
d="M141 604c-10.667 0 -23.333 -2.66699 -38 -8l-65 8l10 186h199v-75h-129l-4 -46c18.667 6.66699 35.334 10 50.001 10c62 0 93 -33 93 -99c0 -73.333 -37.667 -110 -113 -110c-30 0 -62 3.33301 -96 10l-17 4l6 71c37.333 -6 68.166 -9 92.499 -9s36.5 9.66699 36.5 29
s-8.33301 29 -25 29z" />
    <glyph glyph-name="sixsuperior" unicode="&#x2076;" horiz-adv-x="280" 
d="M111 676c22.667 6 38.334 9 47.001 9c68.667 0 103 -34.667 103 -104c0 -35.333 -10.667 -63 -32 -83s-49 -30 -83 -30c-83.333 0 -125 52.333 -125 157c0 59.333 10.167 103.333 30.5 132s54.166 43 101.499 43c16 0 43 -2.66699 81 -8l16 -3l-4 -72c-40 4 -70 6 -90 6
c-30 0 -45 -15.667 -45 -47zM144 613c-9.33301 0 -17.332 -1.83203 -23.999 -5.49902s-10 -5.83398 -10 -6.50098c1.33301 -38 12.166 -57 32.499 -57s30.5 11.5 30.5 34.5s-9.66699 34.5 -29 34.5z" />
    <glyph glyph-name="sevensuperior" unicode="&#x2077;" horiz-adv-x="280" 
d="M28 703v87h217v-91l-99 -230l-98 16l96 202v16h-116z" />
    <glyph glyph-name="eightsuperior" unicode="&#x2078;" horiz-adv-x="280" 
d="M140 800c79.333 0 118.999 -29.001 118.999 -87.001c0 -20 -3.83301 -36.5 -11.5 -49.5s-15.167 -20.5 -22.5 -22.5c8.66699 -2 17.334 -9 26.001 -21s13 -28.667 13 -50c0 -36.667 -10.5 -62.834 -31.5 -78.501s-52 -23.5 -93 -23.5s-71.833 7.5 -92.5 22.5
s-31 40.833 -31 77.5c0 20.667 4.5 37.334 13.5 50.001s17.5 20.667 25.5 24c-7.33301 2.66699 -14.833 9.83398 -22.5 21.501s-11.5 28.167 -11.5 49.5c0 58 39.667 87 119 87zM139.999 538.999c22.667 0 34 10.666 34 31.999c0 15.333 -8 27.333 -24 36h-20
c-16 -9.33301 -24 -21.666 -24 -36.999c0 -20.667 11.333 -31 34 -31zM139.999 728.998c-21.333 0 -32 -9 -32 -27c0 -14 7.33301 -25 22 -33h20c14.667 7.33301 22 18.333 22 33c0 18 -10.667 27 -32 27z" />
    <glyph glyph-name="ninesuperior" unicode="&#x2079;" horiz-adv-x="280" 
d="M121 546c30 0 45.668 14.999 47.001 44.999c-16.667 -5.33301 -32.334 -8 -47.001 -8c-32.667 0 -57.667 9 -75 27s-26 44.333 -26 79s10.333 61.834 31 81.501s50.667 29.5 90 29.5c79.333 0 119 -55 119 -165c0 -57.333 -9.83301 -99.5 -29.5 -126.5
s-52.5 -40.5 -98.5 -40.5c-26 0 -54.667 3 -86 9l-15 3l5 73c32 -4.66699 60.333 -7 85 -7zM116.001 661.999c5.33301 -6.66699 12.5 -9.99902 21.5 -9.99902s20.167 3 33.5 9c0 41.333 -11 62 -33 62c-20 0 -30 -11.667 -30 -35c0 -10.667 2.66699 -19.334 8 -26.001z" />
    <glyph glyph-name="zeroinferior" unicode="&#x2080;" horiz-adv-x="280" 
d="M45.5 184.5c20.333 25 51.668 37.501 94.001 37.501s73.666 -12.667 93.999 -38s30.5 -68.333 30.5 -129s-10.167 -103.334 -30.5 -128.001s-51.5 -37 -93.5 -37s-73.333 12.333 -94 37s-31 67.5 -31 128.5s10.167 104 30.5 129zM166.502 125.501
c-5 12.333 -13.667 18.501 -26 18.501s-21.166 -6.16699 -26.499 -18.5s-8 -35.833 -8 -70.5s2.66699 -57.834 8 -69.501s14.166 -17.5 26.499 -17.5s21 5.66699 26 17s7.5 34.5 7.5 69.5s-2.5 58.667 -7.5 71z" />
    <glyph glyph-name="oneinferior" unicode="&#x2081;" horiz-adv-x="280" 
d="M219 212v-312h-88v215l-56 -38l-41 62l105 73h80z" />
    <glyph glyph-name="twoinferior" unicode="&#x2082;" horiz-adv-x="280" 
d="M253 -100l-221 0.000976562v75l79 71c32 27.333 48 50 48 68c0 16.667 -14 25 -42 25l-79 -7l-4 80c44.667 6.66699 84 10 118 10s59 -7.5 75 -22.5s24 -36.5 24 -64.5s-4.33301 -49.833 -13 -65.5s-23.667 -31.834 -45 -48.501l-49 -42h109v-79z" />
    <glyph glyph-name="threeinferior" unicode="&#x2083;" horiz-adv-x="280" 
d="M134 222c76 0 114.001 -28.667 114.001 -86c0 -35.333 -11.333 -59.333 -34 -72c27.333 -10.667 41 -35.667 41 -75c0 -66 -37.667 -99 -113 -99l-118 8l6 77c39.333 -4.66699 71.5 -7 96.5 -7s37.5 9.33301 37.5 28c0 17.333 -11.667 26 -35 26h-66v72h65
c8 0 14.667 2.33301 20 7s8 11 8 19c0 16 -11.667 24 -35 24l-87 -6l-6 75c43.333 6 78.666 9 105.999 9z" />
    <glyph glyph-name="fourinferior" unicode="&#x2084;" horiz-adv-x="280" 
d="M159 -100v41h-136v73l52 198h98l-61 -192h47l10 89h77v-89h18v-79h-18v-41h-87z" />
    <glyph glyph-name="fiveinferior" unicode="&#x2085;" horiz-adv-x="280" 
d="M133 26c-10.667 0 -23.333 -2.66699 -38 -8l-65 8l10 186h199v-75h-129l-4 -46c18.667 6.66699 35.334 10 50.001 10c62 0 93 -33 93 -99c0 -73.333 -37.667 -110 -113 -110c-30 0 -62 3.33301 -96 10l-17 4l6 71c37.333 -6 68.166 -9 92.499 -9s36.5 9.66699 36.5 29
s-8.33301 29 -25 29z" />
    <glyph glyph-name="sixinferior" unicode="&#x2086;" horiz-adv-x="280" 
d="M107 98c22.667 6 38.334 9 47.001 9c68.667 0 103 -34.667 103 -104c0 -35.333 -10.667 -63 -32 -83s-49 -30 -83 -30c-83.333 0 -125 52.333 -125 157c0 59.333 10.167 103.333 30.5 132s54.166 43 101.499 43c18 0 45 -2.66699 81 -8l16 -3l-4 -72c-40 4 -70 6 -90 6
c-30 0 -45 -15.667 -45 -47zM140 35c-9.33301 0 -17.332 -1.83203 -23.999 -5.49902s-10 -5.83398 -10 -6.50098c1.33301 -38 12.166 -57 32.499 -57s30.5 11.5 30.5 34.5s-9.66699 34.5 -29 34.5z" />
    <glyph glyph-name="seveninferior" unicode="&#x2087;" horiz-adv-x="280" 
d="M31 125v87h217v-91l-99 -230l-98 16l96 202v16h-116z" />
    <glyph glyph-name="eightinferior" unicode="&#x2088;" horiz-adv-x="280" 
d="M139 222c79.333 0 118.999 -29.001 118.999 -87.001c0 -20 -3.83301 -36.5 -11.5 -49.5s-15.167 -20.5 -22.5 -22.5c8.66699 -2 17.334 -9 26.001 -21s13 -28.667 13 -50c0 -36.667 -10.5 -62.834 -31.5 -78.501s-52 -23.5 -93 -23.5s-71.833 7.5 -92.5 22.5
s-31 40.833 -31 77.5c0 20.667 4.5 37.334 13.5 50.001s17.5 20.667 25.5 24c-7.33301 2.66699 -14.833 9.83398 -22.5 21.501s-11.5 28.167 -11.5 49.5c0 58 39.667 87 119 87zM138.999 -39.001c22.667 0 34 10.666 34 31.999c0 15.333 -8 27.333 -24 36h-20
c-16 -9.33301 -24 -21.666 -24 -36.999c0 -20.667 11.333 -31 34 -31zM138.999 150.998c-21.333 0 -32 -9 -32 -27c0 -14 7.33301 -25 22 -33h20c14.667 7.33301 22 18.333 22 33c0 18 -10.667 27 -32 27z" />
    <glyph glyph-name="nineinferior" unicode="&#x2089;" horiz-adv-x="280" 
d="M120 -32c30 0 45.668 14.999 47.001 44.999c-16.667 -5.33301 -32.334 -8 -47.001 -8c-32.667 0 -57.667 9 -75 27s-26 44.333 -26 79s10.333 61.834 31 81.501s50.667 29.5 90 29.5c79.333 0 119 -55 119 -165c0 -57.333 -9.83301 -99.5 -29.5 -126.5
s-52.5 -40.5 -98.5 -40.5c-27.333 0 -56 3 -86 9l-15 3l5 73c32 -4.66699 60.333 -7 85 -7zM115.001 83.999c5.33301 -6.66699 12.5 -9.99902 21.5 -9.99902s20.167 3 33.5 9c0 41.333 -11 62 -33 62c-20 0 -30 -11.667 -30 -35c0 -10.667 2.66699 -19.334 8 -26.001z" />
    <glyph glyph-name="Euro" unicode="&#x20ac;" 
d="M28 365l-0.000976562 84.002h62c9.33301 78 32.333 134.5 69 169.5s94.334 52.5 173.001 52.5c51.333 0 114.333 -8 189 -24l-4 -87c-54 10 -107.333 15 -160 15s-90 -9.5 -112 -28.5s-36.333 -51.5 -43 -97.5h258v-84h-265v-79h265v-84h-258
c7.33301 -42.667 22 -72.834 44 -90.501s56.667 -26.5 104 -26.5s103 4.66699 167 14l3 -88c-66 -14.667 -128.667 -22 -188 -22c-77.333 0 -134.333 17.167 -171 51.5s-60 88.166 -70 161.499h-63v84h57c-0.666992 9.33301 -1 24 -1 44v35h-56z" />
    <glyph glyph-name="trademark" unicode="&#x2122;" horiz-adv-x="668" 
d="M85 571v67h200v-67h-52v-239h-74v239h-74zM313 331v307h89l52 -180l56 180h88v-307h-69v196l-48 -178h-50l-49 178v-196h-69z" />
    <glyph glyph-name="Omega" unicode="&#x2126;" 
d="M49 84l99.002 0.000976562l-11 16c-4.66699 6.66699 -12.667 20.667 -24 42s-21.333 43.333 -30 66c-23.333 60 -35 117.667 -35 173c0 101.333 17.5 175 52.5 221s94.833 69 179.5 69s144.5 -23 179.5 -69s52.5 -119.667 52.5 -221c0 -58.667 -12 -116.667 -36 -174
c-20.667 -50.667 -38.667 -86.667 -54 -108l-10 -15h99v-93h-203v81c6.66699 12 15 28 25 48s23.167 54.833 39.5 104.5s24.5 92.5 24.5 128.5c0 82.667 -7.33301 140.167 -22 172.5s-46.334 48.5 -95.001 48.5s-80.334 -16.167 -95.001 -48.5s-22 -89.833 -22 -172.5
c0 -36 7.5 -77.333 22.5 -124s29.833 -84.334 44.5 -113.001l22 -44v-81h-203v93z" />
    <glyph glyph-name="partialdiff" unicode="&#x2202;" 
d="M264 719c86 0 148.497 -29.334 187.497 -88.001s58.5 -150.667 58.5 -276s-19.167 -217.333 -57.5 -276s-100.5 -88 -186.5 -88c-74.667 0 -131.667 18.833 -171 56.5s-59 92.334 -59 164.001s18.833 126.834 56.5 165.501s90.5 58 158.5 58
c45.333 0 86.333 -6.66699 123 -20l20 -7c-3.33301 80.667 -15.666 137.167 -36.999 169.5s-58.666 48.5 -111.999 48.5c-21.333 0 -45 -3.33301 -71 -10s-46.667 -13.334 -62 -20.001l-23 -9l-4 85c56.667 31.333 116.334 47 179.001 47zM393.997 315.999
c-37.333 16.667 -77.833 25.001 -121.5 25.001s-74.667 -11.333 -93 -34s-27.5 -53.334 -27.5 -92.001c0 -87.333 38 -131 114 -131c43.333 0 75.5 18.667 96.5 56s31.5 96 31.5 176z" />
    <glyph glyph-name="Delta" unicode="&#x2206;" 
d="M512 0h-464v84l139 576h186l139 -578v-82zM293 568h-26l-110 -475h245z" />
    <glyph glyph-name="product" unicode="&#x220f;" 
d="M356 -172v832h-154v-832h-111v832h-60v97h499v-97h-63v-832h-111z" />
    <glyph glyph-name="summation" unicode="&#x2211;" 
d="M36 757h487v-98h-369v-18l233 -301v-77l-233 -318v-20h369v-97h-487v122l250 352l-250 333v122z" />
    <glyph glyph-name="minus" unicode="&#x2212;" 
d="M64 202v98h432v-98h-432z" />
    <glyph glyph-name="radical" unicode="&#x221a;" 
d="M2 345v98h147l108 -483h12l190 825h110l-221 -918h-174l-115 478h-57z" />
    <glyph glyph-name="infinity" unicode="&#x221e;" 
d="M161 121c-43.333 0 -76.3311 14.5 -98.998 43.5s-34 71.333 -34 127s11.167 98.167 33.5 127.5s54.833 44 97.5 44c27.333 0 50.666 -7 69.999 -21s36.333 -37 51 -69c14.667 32 31.667 55 51 69s42.666 21 69.999 21c42.667 0 75.167 -14.5 97.5 -43.5
s33.5 -71.5 33.5 -127.5c0 -114 -44.333 -171 -133 -171c-26.667 0 -49.5 7 -68.5 21s-35.833 36.667 -50.5 68c-15.333 -33.333 -32 -56.5 -50 -69.5s-41 -19.5 -69 -19.5zM175.002 369c-31.333 0 -47.001 -25.667 -47.001 -77s15.667 -77 47 -77
c15.333 0 27.333 5.83301 36 17.5s19.334 31.5 32.001 59.5c-9.33301 19.333 -16 32.833 -20 40.5s-10.5 15.667 -19.5 24s-18.5 12.5 -28.5 12.5zM385.001 215c31.333 0 47 25.667 47 77s-15.667 77 -47 77c-10 0 -19.5 -4.16699 -28.5 -12.5s-15.5 -16.333 -19.5 -24
s-10.667 -21.167 -20 -40.5c2.66699 -8.66699 5.83398 -15.667 9.50098 -21s7 -10.833 10 -16.5s5.16699 -9.5 6.5 -11.5s3.5 -5 6.5 -9s5.66699 -6.66699 8 -8s5.16602 -3.33301 8.49902 -6c4.66699 -3.33301 11 -5 19 -5z" />
    <glyph glyph-name="integral" unicode="&#x222b;" 
d="M333 -12c0 -66 -12.501 -112.832 -37.501 -140.499s-60.5 -41.5 -106.5 -41.5c-18 0 -44 2.66699 -78 8l-15 3l4 90c20.667 -2 41.5 -3 62.5 -3s36 6.33301 45 19s13.5 35 13.5 67v595c0 73.333 10.833 124.166 32.5 152.499s58.834 42.5 111.501 42.5
c19.333 0 47 -2.66699 83 -8l16 -3l-4 -90c-22.667 2.66699 -45 4 -67 4s-37.5 -7.33301 -46.5 -22s-13.5 -40 -13.5 -76v-597z" />
    <glyph glyph-name="approxequal" unicode="&#x2248;" 
d="M381.5 267c-18.333 0 -53.5 8.5 -105.5 25.5s-84.333 25.5 -97 25.5s-28 -3.5 -46 -10.5s-32.667 -14.167 -44 -21.5l-17 -10l-10 88c41.333 34.667 81.666 52 120.999 52c19.333 0 54 -8.5 104 -25.5s81.667 -25.5 95 -25.5c24 0 53.667 10.333 89 31l17 10l9 -87
c-12 -12 -29.667 -23.667 -53 -35s-44.166 -17 -62.499 -17zM381.5 62c-18.333 0 -53.498 8.49902 -105.498 25.499s-84.333 25.5 -97 25.5s-28 -3.5 -46 -10.5s-32.667 -13.833 -44 -20.5l-17 -11l-10 88c41.333 34.667 81.666 52 120.999 52c19.333 0 54 -8.5 104 -25.5
s81.667 -25.5 95 -25.5s28.666 3.33301 45.999 10s31.666 13.334 42.999 20.001l17 11l9 -87c-12 -12 -29.667 -23.667 -53 -35s-44.166 -17 -62.499 -17z" />
    <glyph glyph-name="notequal" unicode="&#x2260;" 
d="M60 301v98h233l68 155l85 -34l-53 -121h105v-98h-148l-44 -100h192v-98h-235l-64 -147l-85 34l49 113h-103v98h146l44 100h-190z" />
    <glyph glyph-name="lessequal" unicode="&#x2264;" 
d="M488 402l-300 -72l300 -79v-106l-422 133v95l422 135v-106zM66 20v98h422v-98h-422z" />
    <glyph glyph-name="greaterequal" unicode="&#x2265;" 
d="M372 330l-300 72v106l422 -135v-95l-422 -133v106zM494 118v-98h-422v98h422z" />
    <glyph glyph-name="lozenge" unicode="&#x25ca;" 
d="M206 172l-158 154l158 162h149l157 -162l-157 -154h-149zM290 247l112 79l-112 87h-20l-113 -87l113 -79h20z" />
    <glyph glyph-name="dotlessj" unicode="&#xf6be;" horiz-adv-x="242" 
d="M67 19l-0.000976562 480.998h108v-482c0 -65.333 -11.5 -113.666 -34.5 -144.999s-69.167 -64.666 -138.5 -99.999l-43 81c46.667 29.333 76.334 53.333 89.001 72s19 49.667 19 93z" />
    <glyph glyph-name="commaaccent" unicode="&#xf6c3;" horiz-adv-x="170" 
d="M7 -300l44 223h106l-53 -223h-97z" />
    <glyph glyph-name=".null" horiz-adv-x="0" 
 />
    <glyph glyph-name="nonmarkingreturn" horiz-adv-x="333" 
 />
    <glyph glyph-name="CR" horiz-adv-x="235" 
 />
    <glyph glyph-name="DLE" horiz-adv-x="0" 
 />
    <glyph glyph-name="zero.pnum" horiz-adv-x="534" 
d="M103.5 447.5c38.333 41 93.168 61.501 164.501 61.501s125.833 -20.333 163.5 -61s56.5 -108.5 56.5 -203.5s-18.833 -161 -56.5 -198s-92.334 -55.5 -164.001 -55.5s-126.5 18.667 -164.5 56s-57 103.166 -57 197.499s19.167 162 57.5 203zM357.502 380.001
c-19 24 -48.999 36.001 -89.999 36.001s-71.167 -12.167 -90.5 -36.5s-29 -68.333 -29 -132s9.83301 -106.834 29.5 -129.501s49.667 -34 90 -34s70.166 11.333 89.499 34s29 66 29 130s-9.5 108 -28.5 132z" />
    <glyph glyph-name="one.pnum" horiz-adv-x="378" 
d="M308 500v-500h-101v383l-150 -83l-38 82l202 118h87z" />
    <glyph glyph-name="two.pnum" horiz-adv-x="481" 
d="M436 0h-387.999v89l146 113c47.333 35.333 79.833 63 97.5 83s26.5 41.667 26.5 65s-8.5 39.5 -25.5 48.5s-46.167 13.5 -87.5 13.5c-18 0 -47.667 -2.5 -89 -7.5s-62 -7.83301 -62 -8.5l-6 93c76 13.333 139.667 20 191 20c125.333 0 188 -48.667 188 -146
c0 -40 -9.33301 -72.5 -28 -97.5s-50.334 -53.833 -95.001 -86.5l-112 -86h244v-93z" />
    <glyph glyph-name="three.pnum" horiz-adv-x="482" 
d="M50 491c73.333 12.667 137.832 19.002 193.499 19.002s99.334 -9.66699 131.001 -29s47.5 -53 47.5 -101s-24.333 -85.667 -73 -113c58.667 -23.333 88 -64.333 88 -123c0 -50.667 -17.667 -88.834 -53 -114.501s-82.333 -38.5 -141 -38.5c-52.667 0 -109 5 -169 15
l-32 6l12 93c72 -8.66699 129.833 -13 173.5 -13s72.5 4.83301 86.5 14.5s21 25.167 21 46.5c0 37.333 -31.333 56.666 -94 57.999h-129v89h128c53.333 1.33301 80 21 80 59c0 36 -27.667 54 -83 54c-44 0 -94.333 -3.33301 -151 -10l-26 -3z" />
    <glyph glyph-name="four.pnum" horiz-adv-x="479" 
d="M299 -9v96h-267v75l139 338h108l-136 -316h156v123h102v-123h46v-97h-46v-96h-102z" />
    <glyph glyph-name="five.pnum" horiz-adv-x="499" 
d="M438 503v-106h-269l-13 -100c36.667 15.333 72.667 23 108 23c62.667 0 110.667 -13.167 144 -39.5s50 -66 50 -119s-17.5 -94.667 -52.5 -125s-84.833 -45.5 -149.5 -45.5c-50 0 -109 7 -177 21l-34 7l12 93c82 -14.667 147.333 -22 196 -22c62 0 93 22.5 93 67.5
s-31.667 67.5 -95 67.5c-30 0 -62.333 -6.66699 -97 -20l-19 -7l-79 16l20 289h362z" />
    <glyph glyph-name="six.pnum" horiz-adv-x="503" 
d="M430 409c-66.667 6.66699 -120 9.99902 -160 9.99902s-70.333 -9.66699 -91 -29s-31 -52.666 -31 -99.999c48.667 20.667 92 31 130 31c124.667 0 187 -54.667 187 -164c0 -52.667 -19.5 -93.667 -58.5 -123s-91.667 -44 -158 -44s-116.666 21 -150.999 63
s-51.5 108.333 -51.5 199s20 156.167 60 196.5s93.333 60.5 160 60.5c55.333 0 104.666 -3.66699 147.999 -11l23 -4zM262 225.999c-28 0 -59.999 -5.00098 -95.999 -15.001l-18 -5c2 -84.667 38.667 -127 110 -127c31.333 0 56.666 6.33301 75.999 19s29 32.334 29 59.001
c0 46 -33.667 69 -101 69z" />
    <glyph glyph-name="seven.pnum" horiz-adv-x="417" 
d="M31 411v89h356v-112l-204 -397l-88 24l195 374v22h-259z" />
    <glyph glyph-name="eight.pnum" horiz-adv-x="505" 
d="M252 509c61.333 0 109.334 -11.1699 144.001 -33.5029s52 -57.5 52 -105.5s-25 -84 -75 -108c19.333 -10 34 -18.667 44 -26s19.5 -19.666 28.5 -36.999s13.5 -38.666 13.5 -63.999c0 -50 -18.667 -86.667 -56 -110s-87.333 -35 -150 -35s-112.834 11.667 -150.501 35
s-56.5 59.333 -56.5 108c0 34 7.16699 60.5 21.5 79.5s34.833 35.5 61.5 49.5c-48 24.667 -72 61.334 -72 110.001c0 91.333 65 137 195 137zM252.001 77.9971c70 0 105 22.001 105 66.001c0 20.667 -5.83301 36.167 -17.5 46.5s-29.5 19.166 -53.5 26.499h-70
c-24 -7.33301 -41.5 -16.5 -52.5 -27.5s-16.5 -26.833 -16.5 -47.5c0 -42.667 35 -64 105 -64zM347.001 363.998c0 38 -31.5 57 -94.5 57s-94.5 -19 -94.5 -57c0 -18.667 4.66699 -33 14 -43s24 -18.333 44 -25h70c20.667 6 36 14.167 46 24.5s15 24.833 15 43.5z" />
    <glyph glyph-name="nine.pnum" horiz-adv-x="486" 
d="M224 82c36 0 63.832 10.832 83.499 32.499s29.5 54.167 29.5 97.5c-33.333 -16.667 -72 -25 -116 -25c-120.667 0 -181 51.667 -181 155c0 52.667 17.833 93.834 53.5 123.501s83.167 44.5 142.5 44.5c136.667 0 205 -86.5 205 -259.5s-72.333 -259.5 -217 -259.5
c-54.667 0 -102.667 5 -144 15l-20 5l9 85c52.667 -9.33301 104.334 -14 155.001 -14zM164.499 292.999c15 -12 34.167 -18 57.5 -18c40.667 0 73.334 6 98.001 18l13 6c-2 80.667 -35.667 121 -101 121c-30.667 0 -53.334 -6.16699 -68.001 -18.5s-22 -30.5 -22 -54.5
s7.5 -42 22.5 -54z" />
    <glyph glyph-name="questiondown.cap" horiz-adv-x="431" 
d="M30 151c0 44.667 5.50195 78.666 16.502 101.999s33.5 48.333 67.5 75s56.5 47.834 67.5 63.501s16.5 32.5 16.5 50.5v33h88c16 -20.667 24 -46.667 24 -78c0 -16.667 -6.33301 -33.334 -19 -50.001s-35.334 -38.5 -68.001 -65.5s-54.334 -48 -65.001 -63
s-16 -34.5 -16 -58.5c0 -49.333 35.333 -74 106 -74c33.333 0 75.333 4.66699 126 14l23 5l6 -83c-62 -22 -118.333 -33 -169 -33c-70 0 -121.5 12.833 -154.5 38.5s-49.5 66.834 -49.5 123.501zM303.002 684.999v-140h-116v140h116z" />
    <glyph glyph-name="endash.cap" horiz-adv-x="624" 
d="M62 343h500v-93h-500v93z" />
    <glyph glyph-name="emdash.cap" horiz-adv-x="1124" 
d="M62 343h1000v-93h-1000v93z" />
    <glyph glyph-name="periodcentered.cap" horiz-adv-x="239" 
d="M61 259v144h117v-144h-117z" />
    <glyph glyph-name="exclamdown.cap" horiz-adv-x="266" 
d="M192 686v-140h-117v140h117zM181 445l10 -444h-116l10 444h96z" />
    <glyph glyph-name="parenleft.cap" horiz-adv-x="289" 
d="M163 331c0 -58 7.83203 -122.503 23.499 -193.503s31.5 -127.5 47.5 -169.5l24 -63h-103c-9.33301 15.333 -21.333 40.833 -36 76.5s-27 69.334 -37 101.001s-19 70.334 -27 116.001s-12 96.167 -12 151.5s9.33301 120.333 28 195s37.334 132.334 56.001 173.001l28 62
h103c-22.667 -57.333 -44.167 -132 -64.5 -224s-30.5 -167 -30.5 -225z" />
    <glyph glyph-name="parenright.cap" horiz-adv-x="289" 
d="M126 359c0 58 -7.83203 122.503 -23.499 193.503s-31.5 127.5 -47.5 169.5l-24 63h103c9.33301 -15.333 21.333 -40.833 36 -76.5s27 -69.334 37 -101.001s19 -70.334 27 -116.001s12 -96.167 12 -151.5s-9.33301 -120.333 -28 -195s-37.334 -132.334 -56.001 -173.001
l-28 -62h-103c22.667 57.333 44.167 132 64.5 224s30.5 167 30.5 225z" />
    <glyph glyph-name="bracketleft.cap" horiz-adv-x="344" 
d="M306 779v-97h-123v-678h123v-97h-233v872h233z" />
    <glyph glyph-name="bracketright.cap" horiz-adv-x="344" 
d="M38 682v97h233v-872h-233v97h123v678h-123z" />
    <glyph glyph-name="braceleft.cap" horiz-adv-x="357" 
d="M228 605l6.99902 -125c0 -42 -7 -72.333 -21 -91s-43.333 -34 -88 -46c44 -11.333 73.167 -27.166 87.5 -47.499s21.5 -51.833 21.5 -94.5l-7 -117c0 -28.667 6.33301 -50.834 19 -66.501s36.334 -24.5 71.001 -26.5v-92c-71.333 2.66699 -121.833 17.167 -151.5 43.5
s-44.5 69.5 -44.5 129.5l7 121c0 51.333 -36.667 87 -110 107v85c38 8.66699 65.833 21.167 83.5 37.5s26.5 37.5 26.5 63.5l-7 127c0 62.667 14.833 106.834 44.5 132.501s80.5 39.834 152.5 42.501l1 -92c-35.333 -2.66699 -59.5 -11.334 -72.5 -26.001
s-19.5 -36.334 -19.5 -65.001z" />
    <glyph glyph-name="braceright.cap" horiz-adv-x="358" 
d="M129 79l-6.99902 125c0 42 7 72.333 21 91s43.333 34 88 46c-44 11.333 -73.167 27.166 -87.5 47.499s-21.5 51.833 -21.5 94.5l7 117c0 28.667 -6.33301 50.834 -19 66.501s-36.334 24.5 -71.001 26.5v92c71.333 -2.66699 121.833 -17.167 151.5 -43.5
s44.5 -69.5 44.5 -129.5l-7 -121c0 -51.333 36.667 -87 110 -107v-85c-38 -8.66699 -65.833 -21.167 -83.5 -37.5s-26.5 -37.5 -26.5 -63.5l7 -127c0 -62.667 -14.833 -106.834 -44.5 -132.501s-80.5 -39.834 -152.5 -42.501l-1 92c35.333 2.66699 59.5 11.334 72.5 26.001
s19.5 36.334 19.5 65.001z" />
    <glyph glyph-name="grave.cap" horiz-adv-x="254" 
d="M44 939l236 -103l-28 -76l-243 82z" />
    <glyph glyph-name="acute.cap" horiz-adv-x="254" 
d="M6 836l236 103l35 -97l-243 -82z" />
    <glyph glyph-name="circumflex.cap" horiz-adv-x="476" 
d="M37 776l134 143h94l134 -143h-116l-64 67l-65 -67h-117z" />
    <glyph glyph-name="caron.cap" horiz-adv-x="254" 
d="M93 776l-134 143h117l65 -66l63 66h117l-134 -143h-94z" />
    <glyph glyph-name="tilde.cap" horiz-adv-x="254" 
d="M229 777c-16 0 -45 8.33301 -87 25s-67.333 25 -76 25c-16.667 0 -38 -11 -64 -33l-13 -11l-24 78l15.5 17.5c6.33301 7 18.333 16.167 36 27.5s35.167 17 52.5 17s46.5 -8.33301 87.5 -25s65.167 -25 72.5 -25c14.667 0 35.667 11 63 33l13 11l24 -79
c-10 -14 -25.167 -27.667 -45.5 -41s-38.5 -20 -54.5 -20z" />
    <glyph glyph-name="dieresis.cap" horiz-adv-x="254" 
d="M-33 783v114h104v-114h-104zM176 783v114h104v-114h-104z" />
    <glyph glyph-name="macron.cap" horiz-adv-x="254" 
d="M-24 795v81h332v-81h-332z" />
    <glyph glyph-name="breve.cap" horiz-adv-x="254" 
d="M95.5 867c13.667 -12 31.167 -18 52.5 -18s38.833 6 52.5 18s21.167 27.667 22.5 47h99c-4 -43.333 -21 -78 -51 -104s-71.167 -39 -123.5 -39s-93.5 13 -123.5 39s-46.667 60.667 -50 104h99c1.33301 -19.333 8.83301 -35 22.5 -47z" />
    <glyph glyph-name="ring.cap" horiz-adv-x="254" 
d="M278 747c0 -36 -13 -64.5 -39 -85.5s-58.5 -31.5 -97.5 -31.5s-71.5 10.5 -97.5 31.5s-39 49.5 -39 85.5s13 64.5 39 85.5s58.5 31.5 97.5 31.5s71.5 -10.5 97.5 -31.5s39 -49.5 39 -85.5zM81 747c0 -14.667 5.33301 -26 16 -34s25.334 -12 44.001 -12s33.5 4 44.5 12
s16.5 19.333 16.5 34s-5.5 26.167 -16.5 34.5s-25.833 12.5 -44.5 12.5s-33.334 -4.16699 -44.001 -12.5s-16 -19.833 -16 -34.5z" />
    <glyph glyph-name="hungarumlaut.cap" horiz-adv-x="254" 
d="M173 779l99 169l90 -39l-108 -164zM-31 780l100 169l89 -39l-107 -164z" />
    <glyph glyph-name="dotaccent.cap" horiz-adv-x="254" 
d="M73 782v114h108v-114h-108z" />
    <glyph glyph-name="zero.numr" horiz-adv-x="280" 
d="M45.5 662.5c20.333 25 51.668 37.501 94.001 37.501s73.666 -12.667 93.999 -38s30.5 -68.333 30.5 -129s-10.167 -103.334 -30.5 -128.001s-51.5 -37 -93.5 -37s-73.333 12.333 -94 37s-31 67.5 -31 128.5s10.167 104 30.5 129zM166.502 603.501
c-5 12.333 -13.667 18.501 -26 18.501s-21.166 -6.16699 -26.499 -18.5s-8 -35.833 -8 -70.5s2.66699 -57.834 8 -69.501s14.166 -17.5 26.499 -17.5s21 5.66699 26 17s7.5 34.5 7.5 69.5s-2.5 58.667 -7.5 71z" />
    <glyph glyph-name="one.numr" horiz-adv-x="280" 
d="M213 690v-312h-88v215l-56 -38l-41 62l105 73h80z" />
    <glyph glyph-name="two.numr" horiz-adv-x="280" 
d="M250 378l-221 0.000976562v75l79 71c32 27.333 48 50 48 68c0 16.667 -14 25 -42 25l-79 -7l-4 80c44.667 6.66699 84 10 118 10s59 -7.5 75 -22.5s24 -36.5 24 -64.5s-4.33301 -49.833 -13 -65.5s-23.667 -31.834 -45 -48.501l-49 -42h109v-79z" />
    <glyph glyph-name="three.numr" horiz-adv-x="280" 
d="M137 700c76 0 114.001 -28.667 114.001 -86c0 -35.333 -11.333 -59.333 -34 -72c27.333 -10.667 41 -35.667 41 -75c0 -66 -37.667 -99 -113 -99l-118 8l6 77c39.333 -4.66699 71.5 -7 96.5 -7s37.5 9.33301 37.5 28c0 17.333 -11.667 26 -35 26h-66v72h65
c8 0 14.667 2.33301 20 7s8 11 8 19c0 16 -11.667 24 -35 24l-87 -6l-6 75c43.333 6 78.666 9 105.999 9z" />
    <glyph glyph-name="four.numr" horiz-adv-x="280" 
d="M155 378v41h-136v73l52 198h98l-61 -192h47l10 89h77v-89h18v-79h-18v-41h-87z" />
    <glyph glyph-name="five.numr" horiz-adv-x="280" 
d="M140 504c-10.667 0 -23.333 -2.66699 -38 -8l-65 8l10 186h199v-75h-129l-4 -46c18.667 6.66699 35.334 10 50.001 10c62 0 93 -33 93 -99c0 -73.333 -37.667 -110 -113 -110c-30 0 -62 3.33301 -96 10l-17 4l6 71c37.333 -6 68.166 -9 92.499 -9s36.5 9.66699 36.5 29
s-8.33301 29 -25 29z" />
    <glyph glyph-name="six.numr" horiz-adv-x="280" 
d="M109 576c22.667 6 38.334 9 47.001 9c68.667 0 103 -34.667 103 -104c0 -35.333 -10.667 -63 -32 -83s-49 -30 -83 -30c-83.333 0 -125 52.333 -125 157c0 59.333 10.167 103.333 30.5 132s54.166 43 101.499 43c18 0 45 -2.66699 81 -8l16 -3l-4 -72c-40 4 -70 6 -90 6
c-30 0 -45 -15.667 -45 -47zM142 513c-9.33301 0 -17.332 -1.83203 -23.999 -5.49902s-10 -5.83398 -10 -6.50098c1.33301 -38 12.166 -57 32.499 -57s30.5 11.5 30.5 34.5s-9.66699 34.5 -29 34.5z" />
    <glyph glyph-name="seven.numr" horiz-adv-x="280" 
d="M35 603v87h217v-91l-99 -230l-98 16l96 202v16h-116z" />
    <glyph glyph-name="eight.numr" horiz-adv-x="280" 
d="M139 700c79.333 0 118.999 -29.001 118.999 -87.001c0 -20 -3.83301 -36.5 -11.5 -49.5s-15.167 -20.5 -22.5 -22.5c8.66699 -2 17.334 -9 26.001 -21s13 -28.667 13 -50c0 -36.667 -10.5 -62.834 -31.5 -78.501s-52 -23.5 -93 -23.5s-71.833 7.5 -92.5 22.5
s-31 40.833 -31 77.5c0 20.667 4.5 37.334 13.5 50.001s17.5 20.667 25.5 24c-7.33301 2.66699 -14.833 9.83398 -22.5 21.501s-11.5 28.167 -11.5 49.5c0 58 39.667 87 119 87zM138.999 438.999c22.667 0 34 10.666 34 31.999c0 15.333 -8 27.333 -24 36h-20
c-16 -9.33301 -24 -21.666 -24 -36.999c0 -20.667 11.333 -31 34 -31zM138.999 628.998c-21.333 0 -32 -9 -32 -27c0 -14 7.33301 -25 22 -33h20c14.667 7.33301 22 18.333 22 33c0 18 -10.667 27 -32 27z" />
    <glyph glyph-name="nine.numr" horiz-adv-x="280" 
d="M123 446c30 0 45.668 14.999 47.001 44.999c-16.667 -5.33301 -32.334 -8 -47.001 -8c-32.667 0 -57.667 9 -75 27s-26 44.333 -26 79s10.333 61.834 31 81.501s50.667 29.5 90 29.5c79.333 0 119 -55 119 -165c0 -57.333 -9.83301 -99.5 -29.5 -126.5
s-52.5 -40.5 -98.5 -40.5c-26 0 -54.667 3 -86 9l-15 3l5 73c32 -4.66699 60.333 -7 85 -7zM118.001 561.999c5.33301 -6.66699 12.5 -9.99902 21.5 -9.99902s20.167 3 33.5 9c0 41.333 -11 62 -33 62c-20 0 -30 -11.667 -30 -35c0 -10.667 2.66699 -19.334 8 -26.001z" />
    <glyph glyph-name="zero.slash" 
d="M251 277v101h65v-101h-65zM280 671c83.333 0 145.667 -26.667 187 -80s62 -141.5 62 -264.5s-20.833 -210 -62.5 -261s-104 -76.5 -187 -76.5s-145.333 25.333 -187 76s-62.5 137.5 -62.5 260.5s20.833 211.333 62.5 265s104.167 80.5 187.5 80.5zM280.001 574
c-48 0 -82.5 -18.167 -103.5 -54.5s-31.5 -100.166 -31.5 -191.499s10.833 -154.5 32.5 -189.5s56 -52.5 103 -52.5s81 17.5 102 52.5s31.5 98.167 31.5 189.5s-10.333 155.166 -31 191.499s-55 54.5 -103 54.5z" />
    <glyph glyph-name="at.cap" horiz-adv-x="970" 
d="M937 329v-10c0 -110 -15.333 -187.167 -46 -231.5s-77 -66.5 -139 -66.5c-30 0 -55.5 4.83301 -76.5 14.5s-34.5 19.167 -40.5 28.5l-9 15c-58.667 -38 -114.5 -57 -167.5 -57s-95.333 18.5 -127 55.5s-47.5 100.333 -47.5 190s14.667 155.167 44 196.5s80 62 152 62
c26.667 0 55.334 -6 86.001 -18l16 -7v14h108v-184c0 -101.333 3.33301 -163 10 -185c2 -8 5.66699 -15 11 -21s10.833 -9.66699 16.5 -11s15.5 -2 29.5 -2s26.333 4.66699 37 14c22.667 20.667 34 85 34 193v11c0 114 -25.833 196.667 -77.5 248s-135.167 77 -250.5 77
s-202.5 -31 -261.5 -93s-88.5 -156.833 -88.5 -284.5s27.167 -220.334 81.5 -278.001s144.166 -86.5 269.499 -86.5l143 9l5 -95c-61.333 -6 -110.666 -9 -147.999 -9c-76.667 0 -142.334 7.5 -197.001 22.5s-102 40.167 -142 75.5c-80 70 -120 193 -120 369
c0 156.667 40.167 273.334 120.5 350.001s193.5 115 339.5 115c290 0 435 -140.333 435 -421zM475 117c28 0 66.001 11.332 114.001 33.999c-4.66699 26.667 -7 71.667 -7 135v130c-33.333 10 -60 15 -80 15c-42.667 0 -71.334 -12.167 -86.001 -36.5
s-22 -65.166 -22 -122.499c0 -103.333 27 -155 81 -155z" />
    <glyph glyph-name="zero.dnom" horiz-adv-x="280" 
d="M45.5 284.5c20.333 25 51.668 37.501 94.001 37.501s73.666 -12.667 93.999 -38s30.5 -68.333 30.5 -129s-10.167 -103.334 -30.5 -128.001s-51.5 -37 -93.5 -37s-73.333 12.333 -94 37s-31 67.5 -31 128.5s10.167 104 30.5 129zM166.502 225.501
c-5 12.333 -13.667 18.501 -26 18.501s-21.166 -6.16699 -26.499 -18.5s-8 -35.833 -8 -70.5s2.66699 -57.834 8 -69.501s14.166 -17.5 26.499 -17.5s21 5.66699 26 17s7.5 34.5 7.5 69.5s-2.5 58.667 -7.5 71z" />
    <glyph glyph-name="one.dnom" horiz-adv-x="280" 
d="M215 312v-312h-88v215l-56 -38l-41 62l105 73h80z" />
    <glyph glyph-name="two.dnom" horiz-adv-x="280" 
d="M252 0l-221 0.000976562v75l79 71c32 27.333 48 50 48 68c0 16.667 -14 25 -42 25l-79 -7l-4 80c44.667 6.66699 84 10 118 10s59 -7.5 75 -22.5s24 -36.5 24 -64.5s-4.33301 -49.833 -13 -65.5s-23.667 -31.834 -45 -48.501l-49 -42h109v-79z" />
    <glyph glyph-name="three.dnom" horiz-adv-x="280" 
d="M137 322c76 0 114.001 -28.667 114.001 -86c0 -35.333 -11.333 -59.333 -34 -72c27.333 -10.667 41 -35.667 41 -75c0 -66 -37.667 -99 -113 -99l-118 8l6 77c39.333 -4.66699 71.5 -7 96.5 -7s37.5 9.33301 37.5 28c0 17.333 -11.667 26 -35 26h-66v72h65
c8 0 14.667 2.33301 20 7s8 11 8 19c0 16 -11.667 24 -35 24l-87 -6l-6 75c43.333 6 78.666 9 105.999 9z" />
    <glyph glyph-name="four.dnom" horiz-adv-x="280" 
d="M156 0v41h-136v73l52 198h98l-61 -192h47l10 89h77v-89h18v-79h-18v-41h-87z" />
    <glyph glyph-name="five.dnom" horiz-adv-x="280" 
d="M136 126c-10.667 0 -23.333 -2.66699 -38 -8l-65 8l10 186h199v-75h-129l-4 -46c18.667 6.66699 35.334 10 50.001 10c62 0 93 -33 93 -99c0 -73.333 -37.667 -110 -113 -110c-30 0 -62 3.33301 -96 10l-17 4l6 71c37.333 -6 68.166 -9 92.499 -9s36.5 9.66699 36.5 29
s-8.33301 29 -25 29z" />
    <glyph glyph-name="six.dnom" horiz-adv-x="280" 
d="M107 198c22.667 6 38.334 9 47.001 9c68.667 0 103 -34.667 103 -104c0 -35.333 -10.667 -63 -32 -83s-49 -30 -83 -30c-83.333 0 -125 52.333 -125 157c0 59.333 10.167 103.333 30.5 132s54.166 43 101.499 43c18 0 45 -2.66699 81 -8l16 -3l-4 -72c-40 4 -70 6 -90 6
c-30 0 -45 -15.667 -45 -47zM140 135c-9.33301 0 -17.332 -1.83203 -23.999 -5.49902s-10 -5.83398 -10 -6.50098c1.33301 -38 12.166 -57 32.499 -57s30.5 11.5 30.5 34.5s-9.66699 34.5 -29 34.5z" />
    <glyph glyph-name="seven.dnom" horiz-adv-x="280" 
d="M34 225v87h217v-91l-99 -230l-98 16l96 202v16h-116z" />
    <glyph glyph-name="eight.dnom" horiz-adv-x="280" 
d="M140 322c79.333 0 118.999 -29.001 118.999 -87.001c0 -20 -3.83301 -36.5 -11.5 -49.5s-15.167 -20.5 -22.5 -22.5c8.66699 -2 17.334 -9 26.001 -21s13 -28.667 13 -50c0 -36.667 -10.5 -62.834 -31.5 -78.501s-52 -23.5 -93 -23.5s-71.833 7.5 -92.5 22.5
s-31 40.833 -31 77.5c0 20.667 4.5 37.334 13.5 50.001s17.5 20.667 25.5 24c-7.33301 2.66699 -14.833 9.83398 -22.5 21.501s-11.5 28.167 -11.5 49.5c0 58 39.667 87 119 87zM139.999 60.999c22.667 0 34 10.666 34 31.999c0 15.333 -8 27.333 -24 36h-20
c-16 -9.33301 -24 -21.666 -24 -36.999c0 -20.667 11.333 -31 34 -31zM139.999 250.998c-21.333 0 -32 -9 -32 -27c0 -14 7.33301 -25 22 -33h20c14.667 7.33301 22 18.333 22 33c0 18 -10.667 27 -32 27z" />
    <glyph glyph-name="nine.dnom" horiz-adv-x="280" 
d="M121 68c30 0 45.668 14.999 47.001 44.999c-16.667 -5.33301 -32.334 -8 -47.001 -8c-32.667 0 -57.667 9 -75 27s-26 44.333 -26 79s10.333 61.834 31 81.501s50.667 29.5 90 29.5c79.333 0 119 -55 119 -165c0 -57.333 -9.83301 -99.5 -29.5 -126.5
s-52.5 -40.5 -98.5 -40.5c-26 0 -54.667 3 -86 9l-15 3l5 73c32 -4.66699 60.333 -7 85 -7zM116.001 183.999c5.33301 -6.66699 12.5 -9.99902 21.5 -9.99902s20.167 3 33.5 9c0 41.333 -11 62 -33 62c-20 0 -30 -11.667 -30 -35c0 -10.667 2.66699 -19.334 8 -26.001z" />
    <glyph glyph-name="hyphen.cap" horiz-adv-x="421" 
d="M61 250v99h299v-99h-299z" />
    </font>
</defs>
</svg>
